<svg width="38" height="38" viewBox="0 0 38 38" fill="none" xmlns="http://www.w3.org/2000/svg">
<path fill-rule="evenodd" clip-rule="evenodd" d="M0 3.16667C0 1.41776 1.41777 0 3.16667 0H12.6667C14.4156 0 15.8333 1.41777 15.8333 3.16667V12.6667C15.8333 14.4156 14.4156 15.8333 12.6667 15.8333H3.16667C1.41776 15.8333 0 14.4156 0 12.6667V3.16667ZM3.95833 11.875V3.95833H11.875V11.875H3.95833Z" fill="#1E202C"/>
<path fill-rule="evenodd" clip-rule="evenodd" d="M22.1667 3.16667C22.1667 1.41776 23.5844 0 25.3333 0H34.8333C36.5822 0 38 1.41777 38 3.16667V12.6667C38 14.4156 36.5822 15.8333 34.8333 15.8333H25.3333C23.5844 15.8333 22.1667 14.4156 22.1667 12.6667V3.16667ZM26.125 11.875V3.95833H34.0417V11.875H26.125Z" fill="#1E202C"/>
<path fill-rule="evenodd" clip-rule="evenodd" d="M25.3333 22.1667C23.5844 22.1667 22.1667 23.5844 22.1667 25.3333V34.8333C22.1667 36.5822 23.5844 38 25.3333 38H34.8333C36.5822 38 38 36.5822 38 34.8333V25.3333C38 23.5844 36.5822 22.1667 34.8333 22.1667H25.3333ZM26.125 26.125V34.0417H34.0417V26.125H26.125Z" fill="#1E202C"/>
<path fill-rule="evenodd" clip-rule="evenodd" d="M0 25.3333C0 23.5844 1.41777 22.1667 3.16667 22.1667H12.6667C14.4156 22.1667 15.8333 23.5844 15.8333 25.3333V34.8333C15.8333 36.5822 14.4156 38 12.6667 38H3.16667C1.41776 38 0 36.5822 0 34.8333V25.3333ZM3.95833 34.0417V26.125H11.875V34.0417H3.95833Z" fill="#1E202C"/>
</svg>
