<svg width="49" height="49" viewBox="0 0 49 49" fill="none" xmlns="http://www.w3.org/2000/svg">
<path d="M19.3684 9.49143H17.887V5.54325C17.887 4.17066 16.7702 3.05402 15.3976 3.05402H6.64378C5.27119 3.05402 4.15455 4.17066 4.15455 5.54325V6.89017C4.15455 7.28117 4.47146 7.59798 4.86236 7.59798C5.25326 7.59798 5.57017 7.28117 5.57017 6.89017V5.54325C5.57017 4.95133 6.05186 4.46964 6.64378 4.46964H15.3977C15.9897 4.46964 16.4714 4.95133 16.4714 5.54325V14.2972C16.4714 14.8892 15.9897 15.3709 15.3977 15.3709H6.64378C6.05177 15.3709 5.57017 14.8892 5.57017 14.2972V10.1992C5.57017 9.80825 5.25326 9.49143 4.86236 9.49143H4.86217H2.67267C1.28045 9.49143 0.147949 10.6239 0.147949 12.016V42.9766C0.147949 44.3687 1.28045 45.5012 2.67248 45.5012H19.3684C20.7609 45.5012 21.8938 44.3687 21.8938 42.9766V12.016C21.8938 10.6239 20.761 9.49143 19.3684 9.49143ZM20.4782 42.9766C20.4782 43.5881 19.9804 44.0855 19.3684 44.0855H2.67248C2.06102 44.0855 1.56357 43.5881 1.56357 42.9766V12.016C1.56357 11.4045 2.06102 10.9071 2.67248 10.9071H4.15445V14.2972C4.15445 15.6698 5.27119 16.7865 6.64369 16.7865H15.3976C16.7702 16.7865 17.887 15.6698 17.887 14.2972V10.9071H19.3684C19.9803 10.9071 20.4782 11.4045 20.4782 12.016V42.9766Z" fill="#000036"/>
<path d="M8.64824 22.8457H13.3933C13.7842 22.8457 14.1011 22.5289 14.1011 22.1379C14.1011 21.7469 13.7842 21.4301 13.3933 21.4301H8.64824C8.25734 21.4301 7.94043 21.7469 7.94043 22.1379C7.94043 22.5289 8.25734 22.8457 8.64824 22.8457Z" fill="#000036"/>
<path d="M17.467 24.6234H4.57451C4.18361 24.6234 3.8667 24.9402 3.8667 25.3312C3.8667 25.7222 4.18361 26.039 4.57451 26.039H17.467C17.8579 26.039 18.1748 25.7222 18.1748 25.3312C18.1748 24.9402 17.8579 24.6234 17.467 24.6234Z" fill="#000036"/>
<path d="M17.467 27.8169H4.57451C4.18361 27.8169 3.8667 28.1337 3.8667 28.5247C3.8667 28.9157 4.18361 29.2325 4.57451 29.2325H17.467C17.8579 29.2325 18.1748 28.9157 18.1748 28.5247C18.1748 28.1337 17.8579 27.8169 17.467 27.8169Z" fill="#000036"/>
<path d="M16.4133 34.0213H5.62811C4.65681 34.0213 3.8667 34.8115 3.8667 35.7827V40.0622C3.8667 41.0335 4.6569 41.8237 5.62811 41.8237H16.4133C17.3846 41.8237 18.1748 41.0335 18.1748 40.0622V35.7827C18.1748 34.8116 17.3846 34.0213 16.4133 34.0213ZM16.7592 40.0622C16.7592 40.253 16.604 40.408 16.4133 40.408H5.62811C5.43738 40.408 5.28232 40.2529 5.28232 40.0622V35.7827C5.28232 35.592 5.43748 35.4369 5.62811 35.4369H16.4133C16.604 35.4369 16.7592 35.5921 16.7592 35.7827V40.0622Z" fill="#000036"/>
<path d="M8.84156 13.7698L9.3408 12.4589H12.7047L13.1987 13.7678C13.3057 14.0512 13.5749 14.2259 13.8611 14.2259C13.944 14.2259 14.0286 14.2112 14.1108 14.1802C14.4765 14.0422 14.6612 13.6338 14.5231 13.268L11.8459 6.17385C11.8434 6.16743 11.8409 6.16102 11.8383 6.1546C11.7034 5.82665 11.3873 5.61487 11.0329 5.61487C11.0327 5.61487 11.0324 5.61487 11.0321 5.61496C10.6772 5.61525 10.3612 5.82759 10.2268 6.15601C10.2246 6.16139 10.2225 6.16668 10.2205 6.17215L7.51871 13.266C7.3796 13.6313 7.56287 14.0402 7.9282 14.1794C8.29343 14.3186 8.70245 14.1351 8.84156 13.7698ZM11.0305 8.02256L12.1704 11.0433H9.87997L11.0305 8.02256Z" fill="#000036"/>
<path d="M45.9435 9.49143H44.4616V5.54325C44.4616 4.17066 43.3448 3.05402 41.9723 3.05402H33.2184C31.8458 3.05402 30.729 4.17066 30.729 5.54325V9.49143H29.2476C27.8551 9.49143 26.7222 10.6239 26.7222 12.016V42.9766C26.7222 44.3687 27.855 45.5012 29.2476 45.5012H39.9884C40.3793 45.5012 40.6962 45.1843 40.6962 44.7933C40.6962 44.4023 40.3793 44.0855 39.9884 44.0855H29.2476C28.6357 44.0855 28.1378 43.5881 28.1378 42.9766V12.016C28.1378 11.4045 28.6356 10.9071 29.2476 10.9071H30.729V14.2972C30.729 15.6698 31.8458 16.7865 33.2184 16.7865H41.9723C43.3449 16.7865 44.4616 15.6698 44.4616 14.2972V10.9071H45.9435C46.555 10.9071 47.0524 11.4045 47.0524 12.016V42.9766C47.0524 43.5881 46.555 44.0855 45.9435 44.0855H43.3017C42.9108 44.0855 42.5939 44.4023 42.5939 44.7933C42.5939 45.1843 42.9108 45.5012 43.3017 45.5012H45.9435C47.3356 45.5012 48.4681 44.3687 48.4681 42.9766V12.016C48.4681 10.6239 47.3356 9.49143 45.9435 9.49143ZM43.0459 14.2971C43.0459 14.8891 42.5642 15.3708 41.9723 15.3708H33.2184C32.6264 15.3708 32.1447 14.8891 32.1447 14.2971V5.54325C32.1447 4.95133 32.6264 4.46964 33.2184 4.46964H41.9723C42.5643 4.46964 43.0459 4.95133 43.0459 5.54325V14.2971Z" fill="#000036"/>
<path d="M31.1487 35.4369H44.0412C44.4321 35.4369 44.749 35.1201 44.749 34.7291C44.749 34.3381 44.4321 34.0213 44.0412 34.0213H31.1487C30.7578 34.0213 30.4409 34.3381 30.4409 34.7291C30.4409 35.1201 30.7578 35.4369 31.1487 35.4369Z" fill="#000036"/>
<path d="M44.749 37.9224C44.749 37.5314 44.4321 37.2146 44.0412 37.2146H31.1487C30.7578 37.2146 30.4409 37.5314 30.4409 37.9224C30.4409 38.3134 30.7578 38.6302 31.1487 38.6302H44.0412C44.4321 38.6302 44.749 38.3134 44.749 37.9224Z" fill="#000036"/>
<path d="M35.4407 40.408C35.0498 40.408 34.7329 40.7248 34.7329 41.1158C34.7329 41.5068 35.0498 41.8236 35.4407 41.8236H39.8582C40.2491 41.8236 40.566 41.5068 40.566 41.1158C40.566 40.7248 40.2491 40.408 39.8582 40.408H35.4407Z" fill="#000036"/>
<path d="M32.2024 31.6673H34.9059C35.8772 31.6673 36.6674 30.8771 36.6674 29.9059V22.1633C36.6674 21.1921 35.8772 20.4019 34.9059 20.4019H32.2024C31.2311 20.4019 30.4409 21.1921 30.4409 22.1633V29.9059C30.4409 30.8771 31.2311 31.6673 32.2024 31.6673ZM31.8565 22.1633C31.8565 21.9726 32.0117 21.8175 32.2024 21.8175H34.9059C35.0966 21.8175 35.2518 21.9727 35.2518 22.1633V29.9059C35.2518 30.0966 35.0966 30.2516 34.9059 30.2516H32.2024C32.0117 30.2516 31.8565 30.0965 31.8565 29.9059V22.1633Z" fill="#000036"/>
<path d="M42.988 31.6673C43.9593 31.6673 44.7494 30.8771 44.7494 29.9059V22.1633C44.7494 21.1921 43.9592 20.4019 42.988 20.4019H40.4148C39.4435 20.4019 38.6533 21.1921 38.6533 22.1633V29.9059C38.6533 30.8771 39.4435 31.6673 40.4148 31.6673H42.988ZM40.0689 29.9059V22.1633C40.0689 21.9726 40.2241 21.8175 40.4148 21.8175H42.988C43.1787 21.8175 43.3338 21.9727 43.3338 22.1633V29.9059C43.3338 30.0966 43.1786 30.2516 42.988 30.2516H40.4148C40.2241 30.2516 40.0689 30.0966 40.0689 29.9059Z" fill="#000036"/>
<path d="M39.37 9.40755C39.6725 9.01033 39.8527 8.51505 39.8527 7.97833C39.8527 6.67502 38.7925 5.61481 37.4892 5.61481H35.3992C35.0083 5.61481 34.6914 5.93162 34.6914 6.32262V13.5179C34.6914 13.7061 34.7664 13.8866 34.8998 14.0195C35.0325 14.1515 35.2121 14.2257 35.3992 14.2257H35.4023C35.4025 14.2257 37.3245 14.2171 37.8542 14.2171C39.3124 14.2171 40.4988 13.0308 40.4988 11.5726C40.4988 10.678 40.0518 9.88631 39.37 9.40755ZM37.4892 7.03043C38.0118 7.03043 38.437 7.45569 38.437 7.97833C38.437 8.50098 38.0118 8.92614 37.4892 8.92614C37.3364 8.92614 36.1069 8.92813 36.1069 8.92813V7.03043H37.4892ZM37.8542 12.8016C37.5353 12.8016 36.7131 12.8047 36.107 12.8071V10.3462C36.3062 10.3454 37.8542 10.3438 37.8542 10.3438C38.5318 10.3438 39.0831 10.8952 39.0831 11.5727C39.0831 12.2502 38.5318 12.8016 37.8542 12.8016Z" fill="#000036"/>
<path d="M24.3079 0.725952C23.917 0.725952 23.6001 1.04277 23.6001 1.43376V2.94376C23.6001 3.33476 23.917 3.65158 24.3079 3.65158C24.6988 3.65158 25.0157 3.33476 25.0157 2.94376V1.43376C25.0157 1.04277 24.6988 0.725952 24.3079 0.725952Z" fill="#000036"/>
<path d="M24.3079 12.4885C23.917 12.4885 23.6001 12.8053 23.6001 13.1963V16.2915C23.6001 16.6825 23.917 16.9993 24.3079 16.9993C24.6988 16.9993 25.0157 16.6825 25.0157 16.2915V13.1963C25.0157 12.8054 24.6988 12.4885 24.3079 12.4885Z" fill="#000036"/>
<path d="M24.3079 32.5102C23.917 32.5102 23.6001 32.827 23.6001 33.218V36.3131C23.6001 36.7041 23.917 37.0209 24.3079 37.0209C24.6988 37.0209 25.0157 36.7041 25.0157 36.3131V33.218C25.0157 32.827 24.6988 32.5102 24.3079 32.5102Z" fill="#000036"/>
<path d="M24.3079 25.8363C23.917 25.8363 23.6001 26.1531 23.6001 26.5441V29.6393C23.6001 30.0303 23.917 30.3471 24.3079 30.3471C24.6988 30.3471 25.0157 30.0303 25.0157 29.6393V26.5441C25.0157 26.1531 24.6988 25.8363 24.3079 25.8363Z" fill="#000036"/>
<path d="M24.3079 39.1841C23.917 39.1841 23.6001 39.501 23.6001 39.892V42.9871C23.6001 43.3781 23.917 43.6949 24.3079 43.6949C24.6988 43.6949 25.0157 43.3781 25.0157 42.9871V39.892C25.0157 39.501 24.6988 39.1841 24.3079 39.1841Z" fill="#000036"/>
<path d="M24.3079 5.8147C23.917 5.8147 23.6001 6.13151 23.6001 6.52251V9.61763C23.6001 10.0086 23.917 10.3254 24.3079 10.3254C24.6988 10.3254 25.0157 10.0086 25.0157 9.61763V6.52251C25.0157 6.13151 24.6988 5.8147 24.3079 5.8147Z" fill="#000036"/>
<path d="M24.3079 19.1625C23.917 19.1625 23.6001 19.4793 23.6001 19.8703V22.9654C23.6001 23.3564 23.917 23.6732 24.3079 23.6732C24.6988 23.6732 25.0157 23.3564 25.0157 22.9654V19.8703C25.0157 19.4794 24.6988 19.1625 24.3079 19.1625Z" fill="#000036"/>
<path d="M24.3079 45.8579C23.917 45.8579 23.6001 46.1747 23.6001 46.5657V48.0757C23.6001 48.4667 23.917 48.7835 24.3079 48.7835C24.6988 48.7835 25.0157 48.4667 25.0157 48.0757V46.5657C25.0157 46.1748 24.6988 45.8579 24.3079 45.8579Z" fill="#000036"/>
</svg>
