<svg width="263" height="102" viewBox="0 0 263 102" fill="none" xmlns="http://www.w3.org/2000/svg">
<path d="M240.59 48.2736C236.08 48.2736 234.09 53.3236 234.09 59.2836C234.09 65.2436 236.08 70.2936 240.59 70.2936C245.1 70.2936 247.03 65.3036 247.03 59.3436C247.03 53.3836 245.1 48.2736 240.59 48.2736Z" fill="url(#paint0_linear_2985_755)"/>
<path d="M179.71 46.5335C179.71 41.9635 177.54 38.1135 172.61 38.1135H164.91V54.9635H172.67C177.6 54.9635 179.71 51.1135 179.71 46.5435V46.5335Z" fill="url(#paint1_linear_2985_755)"/>
<path d="M262.55 31.3135C262.2 30.5435 261.6 29.9135 260.85 29.5235C242.49 20.0235 235.15 14.7635 220.04 1.42353C218.49 0.22353 217.4 -0.0964696 215.52 0.0235304C195.51 2.49353 186.49 2.67353 165.97 0.14353C165.13 0.0435304 164.28 0.22353 163.55 0.65353C162.82 1.09353 162.27 1.76353 161.97 2.55353C158.36 12.0535 156.24 21.4935 155.62 30.7535H172.62C185.8 30.7535 191.51 37.9135 191.51 46.5135C191.51 55.1135 185.79 62.2735 172.68 62.2735H164.92V74.8335C171.58 87.6335 180.2 96.6435 184.99 100.594C185.95 101.384 187.17 101.754 188.4 101.654C195.27 101.074 207.93 98.3335 221.44 90.6835C227.82 87.0935 233.67 82.6635 238.87 77.5435C227.53 76.7935 222.6 68.7235 222.6 59.2635C222.6 49.3335 228.02 40.9135 240.59 40.9135C249.36 40.9135 254.64 45.0935 257.01 51.0035C259.38 45.6135 261.31 39.8535 262.79 33.7635C262.99 32.9435 262.91 32.0735 262.56 31.3035L262.55 31.3135ZM217.37 52.1235C216.77 50.1935 215.57 48.8735 212.68 48.8735C207.69 48.8735 204.86 52.7835 204.86 57.4735V76.7235H193.97V41.8235H203.66L204.26 45.1335C206.19 42.4835 209.13 40.9235 213.41 40.9235C218.1 40.9235 221.35 42.8535 223.46 45.9735L217.38 52.1135L217.37 52.1235Z" fill="url(#paint2_linear_2985_755)"/>
<path d="M10.9 31.1133V75.8833H0V31.1133H10.9Z" fill="#3D3D3D"/>
<path d="M26.8301 41.8933L27.4201 44.8833C29.3501 42.4833 32.4001 41.0133 36.9101 41.0133C46.1101 41.0133 51.2101 47.6333 51.2101 55.4233V75.8733H40.6001V55.4233C40.6001 51.4933 38.7201 48.1533 34.3301 48.1533C29.9401 48.1533 28.0001 51.4333 28.0001 55.3633V75.8733H17.3901V41.8933H26.8201H26.8301Z" fill="#3D3D3D"/>
<path d="M74.6501 65.5633C74.6501 60.5833 56.2501 63.3933 56.2501 52.2033C56.2501 46.6333 61.4101 41.0133 71.8401 41.0133C77.8201 41.0133 82.4501 42.8933 85.4901 45.9333L79.5701 51.9133C78.2801 49.6833 75.6401 48.1633 71.8401 48.1633C68.9701 48.1633 67.5601 49.8633 67.5601 50.9733C67.5601 54.9533 85.9601 53.9033 85.9601 65.5633C85.9601 71.1333 80.6301 76.7533 69.9601 76.7533C63.1001 76.7533 58.3001 74.3533 55.3701 70.6033L59.1801 64.8033C60.5301 67.6133 63.9801 69.6033 69.9601 69.6033C73.0701 69.6033 74.6501 67.5533 74.6501 65.5633Z" fill="#3D3D3D"/>
<path d="M115.13 75.8733L114.54 72.8833C112.61 75.2833 109.56 76.7533 105.05 76.7533C95.85 76.7533 90.75 70.1333 90.75 62.3433V41.8933H101.36V62.3433C101.36 66.2733 103.24 69.6133 107.63 69.6133C112.02 69.6133 113.96 66.3333 113.96 62.4033V41.8933H124.57V75.8733H115.14H115.13Z" fill="#3D3D3D"/>
<path d="M140.27 41.8933L140.86 45.1133C142.74 42.5333 145.61 41.0133 149.77 41.0133C154.34 41.0133 157.5 42.8933 159.56 45.9333L153.64 51.9133C153.05 50.0333 151.88 48.7533 149.07 48.7533C144.21 48.7533 141.45 52.5633 141.45 57.1333V75.8833H130.84V41.9033H140.27V41.8933Z" fill="#3D3D3D"/>
<defs>
<linearGradient id="paint0_linear_2985_755" x1="183.34" y1="118.144" x2="284.87" y2="13.7535" gradientUnits="userSpaceOnUse">
<stop stop-color="#F26922"/>
<stop offset="1" stop-color="#FECF0A"/>
</linearGradient>
<linearGradient id="paint1_linear_2985_755" x1="140.85" y1="76.8135" x2="242.38" y2="-27.5865" gradientUnits="userSpaceOnUse">
<stop stop-color="#F26922"/>
<stop offset="1" stop-color="#FECF0A"/>
</linearGradient>
<linearGradient id="paint2_linear_2985_755" x1="152.98" y1="88.6135" x2="254.51" y2="-15.7865" gradientUnits="userSpaceOnUse">
<stop stop-color="#F26922"/>
<stop offset="1" stop-color="#FECF0A"/>
</linearGradient>
</defs>
</svg>
