<svg width="179" height="69" viewBox="0 0 179 69" fill="none" xmlns="http://www.w3.org/2000/svg">
<g clip-path="url(#clip0_2985_36)">
<path d="M163.322 32.7528C160.262 32.7528 158.912 36.1794 158.912 40.2235C158.912 44.2675 160.262 47.6941 163.322 47.6941C166.382 47.6941 167.692 44.3082 167.692 40.2642C167.692 36.2201 166.382 32.7528 163.322 32.7528Z" fill="white"/>
<path d="M122.013 31.5721C122.013 28.4712 120.541 25.8589 117.195 25.8589H111.971V37.2922H117.236C120.581 37.2922 122.013 34.6798 122.013 31.5789V31.5721Z" fill="white"/>
<path d="M178.222 21.2449C177.985 20.7224 177.578 20.2949 177.069 20.0303C164.611 13.5842 159.631 10.0152 149.378 0.963532C148.326 0.149292 147.587 -0.0678381 146.311 0.0135858C132.734 1.68956 126.613 1.8117 112.69 0.0950097C112.12 0.0271564 111.543 0.149292 111.048 0.441061C110.552 0.739616 110.179 1.19423 109.976 1.73027C107.526 8.17634 106.088 14.5817 105.667 20.8649H117.202C126.145 20.8649 130.02 25.7232 130.02 31.5586C130.02 37.394 126.138 42.2523 117.243 42.2523H111.977V50.7746C116.496 59.4598 122.345 65.5734 125.596 68.2536C126.247 68.7897 127.075 69.0407 127.909 68.9729C132.571 68.5793 141.161 66.7201 150.328 61.5294C154.657 59.0934 158.626 56.0875 162.155 52.6134C154.46 52.1045 151.115 46.6288 151.115 40.2099C151.115 33.472 154.793 27.7588 163.322 27.7588C169.273 27.7588 172.855 30.5951 174.463 34.6052C176.072 30.9479 177.381 27.0395 178.385 22.9073C178.521 22.3509 178.467 21.7606 178.229 21.2381L178.222 21.2449ZM147.566 35.3651C147.159 34.0556 146.345 33.1599 144.384 33.1599C140.998 33.1599 139.078 35.813 139.078 38.9953V52.0571H131.689V28.3763H138.264L138.671 30.6222C139.98 28.8241 141.975 27.7656 144.879 27.7656C148.062 27.7656 150.267 29.0751 151.699 31.1922L147.573 35.3584L147.566 35.3651Z" fill="url(#paint0_linear_2985_36)"/>
<path d="M7.46974 21.1091V51.487H0.0737305V21.1091H7.46974Z" fill="white"/>
<path d="M18.2789 28.4237L18.6792 30.4525C19.9888 28.824 22.0583 27.8266 25.1185 27.8266C31.361 27.8266 34.8215 32.3185 34.8215 37.6043V51.4803H27.6223V37.6043C27.6223 34.9376 26.3466 32.6713 23.3679 32.6713C20.3891 32.6713 19.0728 34.8969 19.0728 37.5635V51.4803H11.8735V28.4237H18.2721H18.2789Z" fill="white"/>
<path d="M50.7262 44.4846C50.7262 41.1055 38.2412 43.0122 38.2412 35.4194C38.2412 31.64 41.7424 27.8266 48.8195 27.8266C52.8771 27.8266 56.0187 29.1022 58.0814 31.165L54.0645 35.2226C53.1892 33.7095 51.3979 32.6781 48.8195 32.6781C46.8721 32.6781 45.9154 33.8316 45.9154 34.5848C45.9154 37.2853 58.4004 36.5729 58.4004 44.4846C58.4004 48.264 54.7838 52.0774 47.5438 52.0774C42.8891 52.0774 39.6321 50.4489 37.644 47.9044L40.2293 43.9689C41.1453 45.8756 43.4862 47.2259 47.5438 47.2259C49.6541 47.2259 50.7262 45.8349 50.7262 44.4846Z" fill="white"/>
<path d="M78.193 51.4803L77.7927 49.4514C76.4831 51.0799 74.4136 52.0774 71.3534 52.0774C65.1109 52.0774 61.6504 47.5855 61.6504 42.2997V28.4237H68.8496V42.2997C68.8496 44.9663 70.1253 47.2326 73.104 47.2326C76.0828 47.2326 77.3991 45.007 77.3991 42.3404V28.4237H84.5984V51.4803H78.1998H78.193Z" fill="white"/>
<path d="M95.2516 28.4237L95.6519 30.6086C96.9276 28.858 98.875 27.8266 101.698 27.8266C104.799 27.8266 106.943 29.1022 108.34 31.165L104.324 35.2226C103.923 33.947 103.129 33.0784 101.223 33.0784C97.925 33.0784 96.0523 35.6637 96.0523 38.7645V51.487H88.853V28.4305H95.2516V28.4237Z" fill="white"/>
</g>
<defs>
<linearGradient id="paint0_linear_2985_36" x1="103.876" y1="60.1248" x2="172.767" y2="-10.714" gradientUnits="userSpaceOnUse">
<stop stop-color="white"/>
<stop offset="1" stop-color="white"/>
</linearGradient>
<clipPath id="clip0_2985_36">
<rect width="178.379" height="69" fill="white" transform="translate(0.0737305)"/>
</clipPath>
</defs>
</svg>
