<svg width="24" height="33" viewBox="0 0 24 33" fill="none" xmlns="http://www.w3.org/2000/svg">
<path d="M11.6865 0C6.75328 0.00605821 2.75557 4.00371 2.74951 8.93696V14.4366C2.74951 14.8163 3.05732 15.1241 3.43699 15.1241H6.18684C6.56651 15.1241 6.87431 14.8163 6.87431 14.4366V8.93696C6.87425 6.27921 9.02878 4.12474 11.6865 4.12474C14.3442 4.12474 16.4987 6.27921 16.4987 8.93696V14.4366C16.4987 14.8163 16.8065 15.1241 17.1862 15.1241H19.9359C20.3156 15.1241 20.6234 14.8163 20.6234 14.4366V8.93696C20.6174 4.00371 16.6197 0.00605821 11.6865 0Z" fill="#4D4D4D"/>
<path d="M3.43726 13.7512H19.9362C21.8346 13.7512 23.3735 15.2901 23.3735 17.1884V29.5626C23.3735 31.461 21.8346 33 19.9362 33H3.43726C1.53891 33 0 31.461 0 29.5627V17.1885C0 15.2901 1.53891 13.7512 3.43726 13.7512Z" fill="#FBB511"/>
<path d="M15.1241 21.3134C15.1321 19.415 13.5997 17.8696 11.7013 17.8616C9.80296 17.8536 8.25753 19.386 8.24954 21.2844C8.244 22.5965 8.986 23.7974 10.162 24.3794L9.63127 28.0917C9.5781 28.4676 9.83976 28.8154 10.2157 28.8686C10.2475 28.8731 10.2797 28.8754 10.3118 28.8754H13.0617C13.4414 28.8792 13.7523 28.5746 13.7561 28.1949C13.7564 28.1599 13.7541 28.1249 13.7491 28.0903L13.2184 24.378C14.38 23.7967 15.1165 22.6122 15.1241 21.3134Z" fill="white"/>
</svg>
