<svg width="50" height="45" viewBox="0 0 50 45" fill="none" xmlns="http://www.w3.org/2000/svg">
<path d="M45.129 13.4926H43.0945V12.1843L44.3639 10.7862C45.0229 10.0605 45.3858 9.12094 45.3858 8.14058V4.82508C45.3858 2.50675 43.4996 0.620667 41.1813 0.620667H39.2474C36.929 0.620667 35.0429 2.50685 35.0429 4.82508V8.14058C35.0429 9.12094 35.4059 10.0605 36.0647 10.7862L37.3344 12.1845V13.4926H35.2998C33.3232 13.4926 31.6667 14.8859 31.2586 16.7419C31.0509 16.7129 30.8391 16.6968 30.6235 16.6968H28.2404V15.0964L29.6941 13.4955C30.4209 12.695 30.8213 11.6587 30.8213 10.5774V6.84311C30.8213 4.28252 28.7381 2.19956 26.1776 2.19956C25.7763 2.19956 25.4512 2.52469 25.4512 2.92597C25.4512 3.32725 25.7763 3.65237 26.1776 3.65237C27.9371 3.65237 29.3684 5.08367 29.3684 6.84311V10.5773C29.3684 11.2968 29.1021 11.9862 28.6186 12.5187L27.1217 14.1674C26.9208 14.2966 26.7878 14.522 26.7878 14.7787V17.4233C26.7878 17.8246 27.1129 18.1497 27.5142 18.1497H30.6237C32.342 18.1497 33.7401 19.5477 33.7401 21.2661V25.8242H16.4371V21.2661C16.4371 19.9263 17.287 18.7816 18.4758 18.342C18.5316 18.3303 18.5849 18.3117 18.6352 18.2879C18.9256 18.1982 19.234 18.1496 19.5533 18.1496H22.6629C23.0641 18.1496 23.3893 17.8245 23.3893 17.4232V14.7786C23.3893 14.522 23.2562 14.2965 23.0554 14.1673L21.5584 12.5186C21.0749 11.9861 20.8084 11.2966 20.8084 10.5772V6.84311C20.8084 5.08376 22.2397 3.65237 23.9993 3.65237C24.4004 3.65237 24.7257 3.32725 24.7257 2.92597C24.7257 2.52469 24.4004 2.19956 23.9993 2.19956C21.4387 2.19956 19.3556 4.28261 19.3556 6.84311V10.5773C19.3556 11.6585 19.756 12.6948 20.4827 13.4954L21.9363 15.0962V16.6967H19.5531C19.3501 16.6967 19.1506 16.7114 18.9546 16.7372C18.5448 14.8836 16.8896 13.4926 14.9146 13.4926H12.8801V12.1843L14.1495 10.7862C14.8085 10.0605 15.1714 9.12094 15.1714 8.14058V4.82508C15.1714 2.50675 13.2852 0.620667 10.9669 0.620667H9.03314C6.71482 0.620667 4.82873 2.50685 4.82873 4.82508V8.14058C4.82873 9.12094 5.1916 10.0605 5.85062 10.7862L7.12016 12.1844V13.4926H5.08562C2.80372 13.4926 0.947266 15.349 0.947266 17.6309V22.3229C0.947266 22.7242 1.27248 23.0493 1.67367 23.0493H12.9759C13.377 23.0493 13.7023 22.7242 13.7023 22.3229C13.7023 21.9216 13.377 21.5965 12.9759 21.5965H2.40008V17.6309C2.40008 16.1502 3.60478 14.9454 5.08562 14.9454H7.84656C8.24775 14.9454 8.57297 14.6203 8.57297 14.219V11.8709C8.57297 11.6183 8.44396 11.3958 8.24822 11.2656L6.92612 9.8096C6.5104 9.35179 6.28145 8.75911 6.28145 8.14067V4.82508C6.28145 3.30781 7.51578 2.07348 9.03305 2.07348H10.967C12.4843 2.07348 13.7187 3.30781 13.7187 4.82508V8.14058C13.7187 8.75902 13.4897 9.35179 13.074 9.80951L11.7518 11.2656C11.5562 11.3958 11.4273 11.6183 11.4273 11.8708V14.2189C11.4273 14.6202 11.7525 14.9453 12.1537 14.9453H14.9146C16.2335 14.9453 17.3326 15.9012 17.5573 17.1565C16.0353 17.8987 14.9842 19.4615 14.9842 21.2658V26.5503C14.9842 26.9516 15.3094 27.2767 15.7106 27.2767H34.4663C34.8676 27.2767 35.1927 26.9516 35.1927 26.5503V21.2658C35.1927 19.4754 34.1571 17.9231 32.6539 17.1742C32.8715 15.9103 33.9747 14.9453 35.2998 14.9453H38.0608C38.4621 14.9453 38.7872 14.6202 38.7872 14.2189V11.8708C38.7872 11.6181 38.6582 11.3956 38.4623 11.2654L37.1403 9.80951C36.7246 9.35179 36.4958 8.75902 36.4958 8.14058V4.82508C36.4958 3.30781 37.7301 2.07348 39.2474 2.07348H41.1813C42.6986 2.07348 43.933 3.30781 43.933 4.82508V8.14058C43.933 8.75902 43.704 9.35179 43.2883 9.80951L41.9662 11.2656C41.7705 11.3958 41.6416 11.6183 41.6416 11.8708V14.2189C41.6416 14.6202 41.9667 14.9453 42.368 14.9453H45.1289C46.6097 14.9453 47.8145 16.15 47.8145 17.6308V21.5964H37.3636C36.9623 21.5964 36.6372 21.9215 36.6372 22.3228C36.6372 22.7241 36.9623 23.0492 37.3636 23.0492H48.5409C48.9421 23.0492 49.2673 22.7241 49.2673 22.3228V17.6308C49.2674 15.349 47.4109 13.4926 45.129 13.4926Z" fill="#000036"/>
<path d="M32.4127 36.4831C32.3289 36.2247 32.1078 36.0347 31.8396 35.9906L27.8715 35.3393L26.0258 31.7666C25.9011 31.5253 25.6522 31.3735 25.3805 31.3735C25.1087 31.3735 24.8598 31.5251 24.7351 31.7666L22.8894 35.3393L18.9213 35.9906C18.6532 36.0347 18.4321 36.2246 18.3481 36.4831C18.2641 36.7415 18.3314 37.0251 18.5224 37.2184L21.3497 40.0777L20.743 44.0527C20.702 44.3213 20.8142 44.5904 21.0341 44.75C21.1606 44.8419 21.3104 44.8888 21.4611 44.8888C21.5723 44.8888 21.6841 44.8632 21.7871 44.8114L25.3803 43.006L28.9734 44.8114C29.2162 44.9335 29.5068 44.9099 29.7264 44.75C29.9463 44.5904 30.0585 44.3213 30.0176 44.0527L29.4107 40.0777L32.238 37.2184C32.4295 37.0251 32.4967 36.7415 32.4127 36.4831ZM28.1215 39.3156C27.96 39.4789 27.8854 39.709 27.9199 39.9359L28.3696 42.8817L25.7067 41.5439C25.5014 41.4408 25.2597 41.4408 25.0545 41.5439L22.3916 42.8817L22.8412 39.9359C22.8758 39.7088 22.8011 39.4788 22.6396 39.3156L20.5441 37.1965L23.4848 36.7138C23.7114 36.6766 23.9072 36.5343 24.0125 36.3304L25.3804 33.6827L26.7481 36.3304C26.8536 36.5343 27.0492 36.6766 27.2758 36.7138L30.2165 37.1965L28.1215 39.3156Z" fill="#000036"/>
<path d="M48.3136 31.1418C48.2296 30.8834 48.0087 30.6934 47.7407 30.6493L43.7726 29.998L41.9268 26.4253C41.8021 26.184 41.5532 26.0322 41.2814 26.0322C41.0096 26.0322 40.7608 26.1838 40.6361 26.4253L38.7904 29.998L34.8222 30.6493C34.5541 30.6934 34.333 30.8833 34.249 31.1418C34.165 31.4002 34.2322 31.6839 34.4233 31.8771L37.2507 34.7364L36.6438 38.7115C36.6029 38.9801 36.7151 39.2492 36.935 39.4088C37.1549 39.5685 37.4454 39.5923 37.688 39.4702L41.2812 37.6648L44.8743 39.4702C44.9774 39.522 45.0891 39.5476 45.2003 39.5476C45.3511 39.5476 45.501 39.5008 45.6273 39.4088C45.8472 39.2492 45.9594 38.9801 45.9185 38.7115L45.3116 34.7364L48.139 31.8771C48.3304 31.6839 48.3976 31.4002 48.3136 31.1418ZM44.0224 33.9744C43.8609 34.1376 43.7863 34.3678 43.8208 34.5947L44.2705 37.5406L41.6076 36.2028C41.5049 36.1512 41.3933 36.1254 41.2814 36.1254C41.1696 36.1254 41.0579 36.1512 40.9553 36.2028L38.2924 37.5406L38.7421 34.5947C38.7766 34.3676 38.702 34.1375 38.5405 33.9744L36.4451 31.8554L39.3858 31.3727C39.6125 31.3355 39.8082 31.1932 39.9135 30.9893L41.2813 28.3416L42.6491 30.9893C42.7545 31.1932 42.9502 31.3355 43.1768 31.3727L46.1174 31.8554L44.0224 33.9744Z" fill="#000036"/>
<path d="M16.5115 31.1419C16.4276 30.8834 16.2063 30.6934 15.9382 30.6493L11.9701 29.998L10.1244 26.4253C9.99966 26.184 9.75079 26.0322 9.47899 26.0322C9.20719 26.0322 8.95833 26.1838 8.83356 26.4253L6.98806 29.9981L3.01996 30.6494C2.75184 30.6935 2.53072 30.8834 2.44672 31.1419C2.36273 31.4003 2.43002 31.684 2.62103 31.8772L5.44842 34.7365L4.84168 38.7116C4.80072 38.9802 4.91293 39.2493 5.13283 39.4089C5.35263 39.5686 5.64311 39.5924 5.88585 39.4703L9.47899 37.6649L13.072 39.4703C13.1751 39.5221 13.2868 39.5477 13.398 39.5477C13.5487 39.5477 13.6987 39.5009 13.8251 39.4089C14.045 39.2493 14.1572 38.9802 14.1162 38.7116L13.5095 34.7365L16.3368 31.8772C16.5281 31.6839 16.5955 31.4003 16.5115 31.1419ZM12.22 33.9744C12.0586 34.1376 11.9838 34.3678 12.0184 34.5947L12.468 37.5406L9.80525 36.2028C9.70266 36.1511 9.59092 36.1254 9.47909 36.1254C9.36725 36.1254 9.25551 36.1512 9.15293 36.2028L6.49004 37.5406L6.93974 34.5947C6.97437 34.3676 6.89963 34.1375 6.73815 33.9744L4.64302 31.8554L7.58375 31.3727C7.81035 31.3355 8.00608 31.1932 8.1115 30.9893L9.47928 28.3416L10.8471 30.9893C10.9525 31.1932 11.1482 31.3355 11.3748 31.3727L14.3155 31.8554L12.22 33.9744Z" fill="#000036"/>
</svg>
