<svg width="319" height="325" viewBox="0 0 319 325" fill="none" xmlns="http://www.w3.org/2000/svg">
<mask id="mask0_1296_292" style="mask-type:alpha" maskUnits="userSpaceOnUse" x="0" y="0" width="319" height="325">
<rect width="319" height="325" fill="#D9D9D9"/>
</mask>
<g mask="url(#mask0_1296_292)">
<g opacity="0.05">
<path d="M180.356 6.69488L80.1789 64.5401H123.232L124.341 66.2905L133.695 80.8687C135.084 80.4144 136.594 80.214 138.144 80.214C142.273 80.214 146.028 81.8843 148.727 84.5834C151.466 87.3227 153.137 91.0775 153.137 95.2064C153.137 99.3354 151.466 103.13 148.727 105.829C146.028 108.529 142.273 110.239 138.144 110.239C134.015 110.239 130.221 108.529 127.521 105.829C124.782 103.13 123.112 99.3755 123.112 95.2064C123.112 91.0374 124.702 87.5632 127.281 84.8774L119.116 72.0897H67.0304L16 101.594C16 111.148 16.2806 120.555 16.8151 129.788H68.0059L76.1702 117.04C73.5913 114.341 72.0012 110.707 72.0012 106.658C72.0012 102.609 73.6715 98.7741 76.4107 96.0349C79.1099 93.3357 82.8647 91.6654 87.0337 91.6654C91.2027 91.6654 94.9174 93.3357 97.6567 96.0349C100.356 98.7741 102.026 102.529 102.026 106.658C102.026 110.787 100.356 114.582 97.6567 117.281C94.9174 120.02 91.1627 121.69 87.0337 121.69C85.4837 121.69 84.0138 121.45 82.5841 120.996L73.2305 135.627L72.1214 137.378H17.3496C17.9643 145.141 18.7393 152.784 19.7147 160.254H81.9293L93.942 141.507H144.719C145.413 138.848 146.803 136.523 148.647 134.679C151.386 131.939 155.101 130.269 159.27 130.269C163.439 130.269 167.154 131.939 169.893 134.679C172.632 137.418 174.262 141.132 174.262 145.261C174.262 149.39 172.592 153.185 169.893 155.884C167.154 158.624 163.399 160.294 159.27 160.294C152.282 160.294 146.402 155.51 144.732 149.056H98.1244L87.1807 166.093L86.0716 167.844H20.8238C22.013 175.647 23.4027 183.29 24.9928 190.76H104.819C105.514 188.141 106.863 185.776 108.747 183.932C111.447 181.233 115.201 179.522 119.37 179.522C123.539 179.522 127.254 181.233 129.953 183.932C132.693 186.631 134.363 190.386 134.363 194.555C134.363 198.724 132.693 202.438 129.953 205.178C127.254 207.877 123.499 209.547 119.37 209.547C115.241 209.547 111.447 207.877 108.747 205.178C106.863 203.294 105.514 200.969 104.819 198.35H26.7032C28.5872 206.153 30.6717 213.796 33.0369 221.226H86.0583L87.1673 222.976L98.111 240.013H144.719C146.389 233.559 152.282 228.816 159.257 228.816C163.386 228.816 167.14 230.486 169.88 233.185C172.579 235.924 174.249 239.679 174.249 243.808C174.249 247.937 172.579 251.692 169.88 254.431C167.14 257.13 163.386 258.841 159.257 258.841C155.128 258.841 151.373 257.13 148.634 254.431C146.79 252.547 145.4 250.222 144.705 247.603H93.9286L81.916 228.816H35.5222C38.1813 236.659 41.1611 244.342 44.3413 251.732H72.1214L73.2305 253.482L82.5841 268.06C84.0138 267.646 85.4837 267.406 87.0337 267.406C91.1627 267.406 94.9174 269.076 97.6567 271.815C100.356 274.514 102.026 278.269 102.026 282.398C102.026 286.527 100.356 290.322 97.6567 293.021C94.9174 295.76 91.1627 297.431 87.0337 297.431C82.9048 297.431 79.1099 295.76 76.4107 293.021C73.6715 290.322 72.0012 286.567 72.0012 282.398C72.0012 278.229 73.5913 274.755 76.1702 272.069L68.0059 259.322H47.7888C56.3674 277.588 66.6162 294.411 78.4284 309.617H122.951C123.646 306.998 125.036 304.673 126.88 302.789C129.619 300.09 133.334 298.42 137.503 298.42C141.672 298.42 145.387 300.09 148.126 302.789C150.825 305.528 152.495 309.283 152.495 313.412C152.495 317.541 150.825 321.296 148.126 324.035C145.387 326.734 141.632 328.444 137.503 328.444C133.374 328.444 129.619 326.734 126.88 324.035C125.036 322.151 123.646 319.826 122.951 317.207H84.5884C110.044 347.432 142.193 370.803 180.342 386.29" fill="url(#paint0_linear_1296_292)"/>
<path d="M349.228 100.418L185.46 6L186.022 387.038C368.977 312.904 349.228 100.418 349.228 100.418ZM227.298 213.596C229.93 220.518 233.551 226.384 238.161 231.181C242.771 235.978 248.209 239.639 254.476 242.178C260.743 244.717 267.545 245.986 274.881 245.986C279.263 245.986 283.499 245.144 287.575 243.447C291.65 241.75 295.432 239.545 298.906 236.82C302.38 234.094 305.507 231.02 308.259 227.6C311.012 224.179 313.27 220.718 315.034 217.204L323.867 222.843C321.301 227.038 318.254 231.074 314.753 234.922C311.239 238.77 307.19 242.191 302.58 245.171C297.97 248.151 292.773 250.516 286.973 252.266C281.174 254.017 274.707 254.899 267.558 254.899C257.216 254.899 247.822 253.175 239.404 249.727C230.972 246.28 223.743 241.617 217.73 235.724C211.717 229.831 207.054 222.949 203.767 215.092C200.48 207.222 198.836 198.911 198.836 190.132C198.836 184.306 199.584 178.614 201.094 173.068C202.604 167.523 204.769 162.325 207.628 157.461C210.474 152.611 213.962 148.148 218.064 144.112C222.166 140.063 226.803 136.589 231.974 133.676C237.146 130.763 242.798 128.505 248.944 126.902C255.091 125.298 261.639 124.51 268.6 124.51C275.562 124.51 281.375 125.405 286.987 127.196C292.599 128.986 297.703 131.351 302.313 134.291C306.923 137.244 311.025 140.638 314.633 144.486C318.241 148.335 321.328 152.37 323.893 156.566L314.78 162.579C309.582 152.49 303.743 145.101 297.289 140.438C290.835 135.774 283.406 133.436 275.001 133.436C267.785 133.436 261.051 134.745 254.784 137.391C248.517 140.023 243.052 143.778 238.375 148.669C233.698 153.559 230.037 159.492 227.378 166.481C224.719 173.469 223.382 181.353 223.382 190.132C223.382 198.911 224.692 206.661 227.338 213.596H227.298Z" fill="url(#paint1_linear_1296_292)"/>
</g>
</g>
<defs>
<linearGradient id="paint0_linear_1296_292" x1="16" y1="196.519" x2="344.698" y2="196.519" gradientUnits="userSpaceOnUse">
<stop stop-color="#EF669A"/>
<stop offset="0.51" stop-color="#9171B1"/>
<stop offset="1" stop-color="#72CEEC"/>
</linearGradient>
<linearGradient id="paint1_linear_1296_292" x1="16.1205" y1="196.519" x2="344.899" y2="196.519" gradientUnits="userSpaceOnUse">
<stop stop-color="#EF669A"/>
<stop offset="0.51" stop-color="#9171B1"/>
<stop offset="1" stop-color="#72CEEC"/>
</linearGradient>
</defs>
</svg>
