<svg width="32" height="464" viewBox="0 0 32 464" fill="none" xmlns="http://www.w3.org/2000/svg">
<path d="M0.999999 0.126508L30.8182 0.126509L30.8182 18.6173L26.9453 18.6173L26.9453 4.62544L17.8601 4.62544L17.8601 17.2923L14.0018 17.2923L14.0018 4.62544L0.999999 4.62544L0.999999 0.126508ZM15.9091 50.0516C12.7254 50.0516 9.98816 49.4692 7.69744 48.3044C5.41643 47.1396 3.65956 45.5429 2.42684 43.5143C1.20383 41.4954 0.592327 39.1998 0.592327 36.6276C0.592327 34.0457 1.20383 31.7404 2.42684 29.7117C3.65956 27.6928 5.42128 26.1009 7.712 24.9362C10.0027 23.7714 12.7351 23.189 15.9091 23.189C19.0928 23.189 21.8252 23.7714 24.1062 24.9362C26.3969 26.1009 28.1538 27.6928 29.3768 29.7117C30.6095 31.7404 31.2259 34.0457 31.2259 36.6276C31.2259 39.1998 30.6095 41.4954 29.3768 43.5143C28.1538 45.5429 26.3969 47.1396 24.1062 48.3044C21.8252 49.4692 19.0928 50.0516 15.9091 50.0516ZM15.9091 45.5963C18.3357 45.5963 20.3789 45.2032 22.0387 44.417C23.7082 43.6405 24.97 42.5728 25.8242 41.2139C26.6881 39.8647 27.12 38.3359 27.12 36.6276C27.12 34.9095 26.6881 33.3759 25.8242 32.0267C24.9701 30.6775 23.7082 29.6098 22.0387 28.8236C20.3789 28.0471 18.3357 27.6588 15.9091 27.6588C13.4825 27.6588 11.4344 28.0471 9.76491 28.8236C8.10511 29.6098 6.84327 30.6775 5.9794 32.0267C5.12523 33.3759 4.69815 34.9095 4.69815 36.6276C4.69815 38.3359 5.12523 39.8647 5.9794 41.2139C6.84327 42.5728 8.10511 43.6405 9.76491 44.417C11.4344 45.2032 13.4825 45.5963 15.9091 45.5963ZM0.999997 55.6607L30.8182 55.6607L30.8182 66.2892C30.8182 68.5994 30.4202 70.5164 29.6243 72.0403C28.8284 73.5739 27.7267 74.7193 26.3192 75.4764C24.9215 76.2335 23.3054 76.612 21.4709 76.612C19.6461 76.612 18.0397 76.2286 16.6516 75.4618C15.2733 74.7047 14.2008 73.5594 13.4339 72.0257C12.6671 70.5018 12.2837 68.5848 12.2837 66.2747L12.2837 58.2232L16.1566 58.2232L16.1566 65.867C16.1566 67.323 16.3653 68.5072 16.7827 69.4196C17.2 70.3417 17.8067 71.0163 18.6026 71.4434C19.3986 71.8704 20.3546 72.084 21.4709 72.084C22.5968 72.084 23.5723 71.8656 24.3974 71.4288C25.2224 71.0017 25.8533 70.3271 26.2901 69.405C26.7366 68.4926 26.9599 67.2939 26.9599 65.8088L26.9599 60.1596L0.999997 60.1596L0.999997 55.6607ZM14.4531 70.3805L0.999996 77.7477L0.999996 72.6227L14.4531 65.4011L14.4531 70.3805ZM26.9453 91.4665L30.8182 91.4665L30.8182 114.544L26.9453 114.544L26.9453 105.24L0.999995 105.24L0.999995 100.756L26.9453 100.756L26.9453 91.4665ZM0.999994 119.643L30.8182 119.643L30.8182 124.142L17.8601 124.142L17.8601 139.007L30.8182 139.007L30.8182 143.521L0.999993 143.521L0.999993 139.007L14.0018 139.007L14.0018 124.142L0.999994 124.142L0.999994 119.643ZM0.999993 150.073L30.8182 150.073L30.8182 168.767L26.9453 168.767L26.9453 154.572L17.8601 154.572L17.8601 167.792L14.0018 167.792L14.0018 154.572L4.87286 154.572L4.87286 168.942L0.999992 168.942L0.999993 150.073ZM30.8182 209.695L0.99999 209.695L0.99999 205.56L22.8686 190.403L22.8686 190.126L0.999991 190.126L0.999991 185.627L30.8182 185.627L30.8182 189.792L8.92045 204.963L8.92045 205.239L30.8182 205.239L30.8182 209.695ZM0.99999 216.257L30.8182 216.257L30.8182 234.952L26.9453 234.952L26.9453 220.756L17.8601 220.756L17.8601 233.976L14.0018 233.976L14.0018 220.756L4.87286 220.756L4.87286 235.127L0.999989 235.127L0.99999 216.257ZM0.999989 246.8L30.8182 238.53L30.8182 243.262L7.72655 249.071L7.72655 249.348L30.8182 255.39L30.8182 260.078L7.71199 266.121L7.71199 266.397L30.8182 272.192L30.8182 276.938L0.999988 268.654L0.999988 264.126L23.3345 257.851L23.3345 257.618L0.999988 251.343L0.999989 246.8ZM30.8182 315.958L0.999986 315.958L0.999986 311.823L22.8686 296.667L22.8686 296.39L0.999986 296.39L0.999987 291.891L30.8182 291.891L30.8182 296.055L8.92044 311.226L8.92044 311.503L30.8182 311.503L30.8182 315.958ZM15.9091 348.423C12.7254 348.423 9.98815 347.84 7.69743 346.676C5.41641 345.511 3.65955 343.914 2.42683 341.885C1.20382 339.866 0.592314 337.571 0.592314 334.999C0.592314 332.417 1.20382 330.111 2.42683 328.083C3.65955 326.064 5.42127 324.472 7.71199 323.307C10.0027 322.142 12.7351 321.56 15.9091 321.56C19.0928 321.56 21.8252 322.142 24.1062 323.307C26.3969 324.472 28.1538 326.064 29.3768 328.083C30.6095 330.111 31.2258 332.417 31.2258 334.999C31.2258 337.571 30.6095 339.866 29.3768 341.885C28.1537 343.914 26.3969 345.511 24.1062 346.676C21.8252 347.84 19.0928 348.423 15.9091 348.423ZM15.9091 343.967C18.3357 343.967 20.3789 343.574 22.0387 342.788C23.7082 342.012 24.97 340.944 25.8242 339.585C26.6881 338.236 27.12 336.707 27.12 334.999C27.12 333.281 26.6881 331.747 25.8242 330.398C24.97 329.049 23.7082 327.981 22.0387 327.195C20.3789 326.418 18.3357 326.03 15.9091 326.03C13.4825 326.03 11.4344 326.418 9.7649 327.195C8.1051 327.981 6.84326 329.049 5.97939 330.398C5.12522 331.747 4.69814 333.281 4.69814 334.999C4.69814 336.707 5.12522 338.236 5.97939 339.585C6.84326 340.944 8.1051 342.012 9.7649 342.788C11.4344 343.574 13.4825 343.967 15.9091 343.967ZM0.999984 354.032L30.8182 354.032L30.8182 364.66C30.8182 366.97 30.4202 368.887 29.6243 370.411C28.8283 371.945 27.7267 373.09 26.3192 373.847C24.9215 374.605 23.3054 374.983 21.4709 374.983C19.6461 374.983 18.0396 374.6 16.6516 373.833C15.2733 373.076 14.2007 371.93 13.4339 370.397C12.6671 368.873 12.2837 366.956 12.2837 364.646L12.2837 356.594L16.1566 356.594L16.1566 364.238C16.1566 365.694 16.3653 366.878 16.7827 367.791C17.2 368.713 17.8067 369.387 18.6026 369.814C19.3985 370.242 20.3546 370.455 21.4709 370.455C22.5968 370.455 23.5723 370.237 24.3974 369.8C25.2224 369.373 25.8533 368.698 26.2901 367.776C26.7366 366.864 26.9599 365.665 26.9599 364.18L26.9599 358.531L0.999984 358.531L0.999984 354.032ZM14.4531 368.752L0.999983 376.119L0.999983 370.994L14.4531 363.772L14.4531 368.752ZM30.8182 380.458L30.8182 385.917L7.63919 395.41L7.63919 395.76L30.8182 405.253L30.8182 410.713L0.999981 410.713L0.999982 406.432L22.5774 406.432L22.5774 406.155L1.04366 397.361L1.04366 393.809L22.592 385.015L22.592 384.738L0.999983 384.738L0.999983 380.458L30.8182 380.458ZM0.999981 419.772L0.999981 414.997L30.8182 425.727L30.8182 430.925L0.99998 441.655L0.99998 436.88L25.402 428.45L25.402 428.217L0.999981 419.772ZM12.6768 420.573L12.6768 436.065L8.89132 436.065L8.89132 420.573L12.6768 420.573ZM0.99998 445.961L30.8182 445.961L30.8182 450.46L4.87285 450.46L4.87285 463.972L0.999979 463.972L0.99998 445.961Z" fill="white"/>
</svg>
