<svg width="26" height="37" viewBox="0 0 26 37" fill="none" xmlns="http://www.w3.org/2000/svg">
<path d="M12.9998 0C7.51227 0.00673898 3.06533 4.45361 3.05859 9.94122V16.0589C3.05859 16.4812 3.40099 16.8236 3.82332 16.8236H6.88218C7.30451 16.8236 7.64691 16.4812 7.64691 16.0589V9.94122C7.64684 6.98481 10.0435 4.58824 12.9998 4.58824C15.9561 4.58824 18.3528 6.98481 18.3528 9.94122V16.0589C18.3528 16.4812 18.6952 16.8236 19.1175 16.8236H22.1763C22.5986 16.8236 22.941 16.4812 22.941 16.0589V9.94122C22.9343 4.45361 18.4873 0.00673898 12.9998 0Z" fill="#4D4D4D"/>
<path d="M3.82351 15.2964H22.1765C24.2882 15.2964 26 17.0082 26 19.1199V32.8846C26 34.9964 24.2882 36.7082 22.1765 36.7082H3.82351C1.71185 36.7082 0 34.9964 0 32.8847V19.12C0 17.0082 1.71185 15.2964 3.82351 15.2964Z" fill="#E15588"/>
<path d="M16.8238 23.7083C16.8327 21.5967 15.1281 19.8776 13.0164 19.8687C10.9048 19.8598 9.18568 21.5644 9.17679 23.6761C9.17063 25.1357 9.99601 26.4715 11.3042 27.1189L10.7138 31.2483C10.6546 31.6665 10.9457 32.0534 11.3639 32.1126C11.3993 32.1176 11.4351 32.1201 11.4708 32.1201H14.5297C14.952 32.1244 15.2979 31.7855 15.3021 31.3632C15.3025 31.3242 15.2999 31.2853 15.2944 31.2468L14.704 27.1174C15.9961 26.4707 16.8154 25.1531 16.8238 23.7083Z" fill="white"/>
</svg>
