<svg width="580" height="95" viewBox="0 0 580 95" fill="none" xmlns="http://www.w3.org/2000/svg">
<path d="M0 43.8627V36.6068H7.99073V43.8051H17.4186L12.9921 50.6579H7.99073V62.751C7.99073 64.5937 8.79555 65.5151 10.5777 65.5151C12.0723 65.5151 13.3945 65.1696 14.5443 64.5362V70.9858C12.8771 71.9648 10.9226 72.5982 8.22068 72.5982C3.33426 72.5407 0 70.6403 0 64.0755V50.7155V43.8627Z" fill="white"/>
<path d="M15.7515 58.1442V58.029C15.7515 49.9669 21.5002 43.3445 29.6634 43.3445C39.0913 43.3445 43.4029 50.6579 43.4029 58.6624C43.4029 59.2959 43.3454 60.0445 43.2879 60.7931H23.6848C24.4896 64.4211 27.019 66.3214 30.5832 66.3214C33.2851 66.3214 35.2397 65.4576 37.4242 63.4421L42.0232 67.4731C39.3788 70.7556 35.5846 72.7711 30.5257 72.7711C21.9601 72.7135 15.7515 66.7821 15.7515 58.1442ZM35.5846 55.7831C35.1247 52.2128 32.9977 49.7941 29.6634 49.7941C26.3292 49.7941 24.2021 52.1552 23.5698 55.7831H35.5846Z" fill="white"/>
<path d="M45.9898 58.2017V58.0865C45.9898 50.0245 52.1409 43.402 60.764 43.402C66.0529 43.402 69.3871 45.1872 72.0315 48.1241L67.1451 53.4221C65.363 51.5217 63.5809 50.3124 60.7065 50.3124C56.6824 50.3124 53.8656 53.8252 53.8656 58.029V58.1441C53.8656 62.4631 56.6824 65.9183 60.994 65.9183C63.6959 65.9183 65.5355 64.7666 67.49 62.9238L72.1465 67.6459C69.3871 70.6404 66.2828 72.8286 60.6491 72.8286C52.1984 72.8286 45.9898 66.2638 45.9898 58.2017Z" fill="white"/>
<path d="M74.7334 37.1252L82.7242 32V47.9514C84.5637 45.5904 86.9207 43.4021 91.0023 43.4021C97.0385 43.4021 100.603 47.4331 100.603 53.8828V72.1952H92.5545V56.4166C92.5545 52.6159 90.7724 50.658 87.7256 50.658C84.6787 50.658 82.7242 52.6159 82.7242 56.4166V72.1952H74.7334V37.1252Z" fill="white"/>
<path d="M102.672 68.4521L106.064 63.1542C109.168 65.4 112.33 66.5518 114.974 66.5518C117.274 66.5518 118.366 65.688 118.366 64.4211V64.3059C118.366 62.5783 115.607 62.0024 112.503 61.0235C108.536 59.8717 104.109 58.029 104.109 52.5583V52.4431C104.109 46.6845 108.766 43.4597 114.4 43.4597C117.964 43.4597 121.873 44.669 124.92 46.7421L121.873 52.2704C119.056 50.6579 116.297 49.6214 114.227 49.6214C112.273 49.6214 111.295 50.4852 111.295 51.5793V51.6945C111.295 53.2493 113.997 53.9979 117.044 55.0921C121.011 56.4166 125.552 58.3169 125.552 63.4421V63.5573C125.552 69.8342 120.896 72.6559 114.745 72.6559C110.835 72.7135 106.409 71.389 102.672 68.4521Z" fill="#F15830"/>
<path d="M127.277 58.2017V58.0865C127.277 49.9669 133.83 43.402 142.568 43.402C151.306 43.402 157.745 49.9093 157.745 57.9714V58.0865C157.745 66.2062 151.192 72.771 142.453 72.771C133.773 72.8286 127.277 66.3214 127.277 58.2017ZM149.927 58.2017V58.0865C149.927 53.9403 146.937 50.3124 142.511 50.3124C137.912 50.3124 135.21 53.8252 135.21 58.029V58.1441C135.21 62.2903 138.199 65.9183 142.626 65.9183C147.167 65.9183 149.927 62.3479 149.927 58.2017Z" fill="#F15830"/>
<path d="M160.504 47.3179L168.495 42.1927V47.9513C170.45 45.3023 173.152 43.3444 177.291 43.3444C183.844 43.3444 190.11 48.5272 190.11 57.9137V58.0289C190.11 67.4731 183.959 72.5982 177.291 72.5982C173.037 72.5982 170.392 70.6403 168.495 68.3944V80.4876H160.504V47.3179ZM182.177 58.0865V57.9713C182.177 53.3068 179.015 50.1972 175.279 50.1972C171.542 50.1972 168.438 53.3068 168.438 57.9713V58.0865C168.438 62.751 171.542 65.8607 175.279 65.8607C179.015 65.8607 182.177 62.8662 182.177 58.0865Z" fill="#F15830"/>
<path d="M192.755 37.1252L200.746 32V47.9514C202.585 45.5904 204.942 43.4021 209.024 43.4021C215.06 43.4021 218.624 47.4331 218.624 53.8828V72.1952H210.633V56.4166C210.633 52.6159 208.851 50.658 205.804 50.658C202.758 50.658 200.803 52.6159 200.803 56.4166V72.1952H192.812V37.1252H192.755Z" fill="#F15830"/>
<path d="M239.664 43.9204H248L237.135 72.8287C234.95 78.5873 232.651 80.718 227.879 80.718C225.005 80.718 222.821 79.9694 220.751 78.7601L223.453 72.9439C224.488 73.5773 225.81 74.038 226.845 74.038C228.224 74.038 228.972 73.6349 229.604 72.1952L218.567 43.8628H227.075L233.513 63.0966L239.664 43.9204Z" fill="#F15830"/>
<line opacity="0.4" x1="270.5" y1="32" x2="270.5" y2="80" stroke="#D0D0D0"/>
<circle cx="532.5" cy="47.5" r="47.5" fill="#D9D9D9"/>
<circle cx="530" cy="51" r="42" fill="#121533"/>
<circle cx="8" cy="8" r="8" transform="matrix(-1 0 0 1 577 31)" fill="#D9D9D9"/>
<circle cx="4" cy="4" r="4" transform="matrix(-1 0 0 1 573 35)" fill="#F15830"/>
<path d="M312.225 70.0518V72H297.028V70.0518H312.225ZM297.715 44.9844V72H295.433V44.9844H297.715ZM310.332 57.1006V59.0488H297.028V57.1006H310.332ZM312.132 44.9844V46.9512H297.028V44.9844H312.132ZM317.772 44.9844H320.073L330.056 68.7715L340.057 44.9844H342.339L330.928 72H329.184L317.772 44.9844ZM317.067 44.9844H319.09L319.331 60.1992V72H317.067V44.9844ZM341.059 44.9844H343.081V72H340.799V60.1992L341.059 44.9844ZM359.131 60.9971H351.431V59.0488H359.131C360.739 59.0488 362.044 58.7891 363.046 58.2695C364.06 57.7376 364.796 57.0202 365.254 56.1172C365.724 55.2142 365.959 54.1999 365.959 53.0742C365.959 51.9733 365.724 50.959 365.254 50.0312C364.796 49.1035 364.06 48.3613 363.046 47.8047C362.044 47.2357 360.739 46.9512 359.131 46.9512H352.229V72H349.946V44.9844H359.131C361.11 44.9844 362.774 45.3245 364.122 46.0049C365.483 46.6852 366.509 47.6315 367.202 48.8438C367.895 50.056 368.241 51.4538 368.241 53.0371C368.241 54.6947 367.895 56.1234 367.202 57.3232C366.509 58.5107 365.489 59.4199 364.141 60.0508C362.792 60.6816 361.122 60.9971 359.131 60.9971ZM388.985 70.0518V72H374.977V70.0518H388.985ZM375.645 44.9844V72H373.362V44.9844H375.645ZM412.123 57.0449V59.9395C412.123 61.832 411.876 63.5452 411.381 65.0791C410.898 66.6006 410.193 67.9056 409.266 68.9941C408.35 70.0827 407.249 70.9176 405.963 71.499C404.676 72.0804 403.229 72.3711 401.621 72.3711C400.05 72.3711 398.615 72.0804 397.316 71.499C396.03 70.9176 394.923 70.0827 393.995 68.9941C393.067 67.9056 392.35 66.6006 391.843 65.0791C391.336 63.5452 391.082 61.832 391.082 59.9395V57.0449C391.082 55.1523 391.329 53.4453 391.824 51.9238C392.331 50.39 393.049 49.0788 393.977 47.9902C394.904 46.9017 396.011 46.0667 397.298 45.4854C398.584 44.904 400.013 44.6133 401.584 44.6133C403.192 44.6133 404.639 44.904 405.926 45.4854C407.212 46.0667 408.319 46.9017 409.247 47.9902C410.175 49.0788 410.886 50.39 411.381 51.9238C411.876 53.4453 412.123 55.1523 412.123 57.0449ZM409.859 59.9395V57.0078C409.859 55.4121 409.674 53.9772 409.303 52.7031C408.944 51.429 408.406 50.3405 407.688 49.4375C406.983 48.5345 406.118 47.8418 405.091 47.3594C404.064 46.877 402.895 46.6357 401.584 46.6357C400.31 46.6357 399.166 46.877 398.151 47.3594C397.137 47.8418 396.271 48.5345 395.554 49.4375C394.849 50.3405 394.304 51.429 393.921 52.7031C393.55 53.9772 393.364 55.4121 393.364 57.0078V59.9395C393.364 61.5475 393.55 62.9948 393.921 64.2812C394.304 65.5553 394.855 66.6501 395.572 67.5654C396.29 68.4684 397.156 69.1611 398.17 69.6436C399.197 70.126 400.347 70.3672 401.621 70.3672C402.945 70.3672 404.114 70.126 405.128 69.6436C406.142 69.1611 407.002 68.4684 407.707 67.5654C408.412 66.6501 408.944 65.5553 409.303 64.2812C409.674 62.9948 409.859 61.5475 409.859 59.9395ZM416.799 44.9844L424.981 59.6982L433.238 44.9844H435.873L426.132 61.8135V72H423.85V61.8135L414.09 44.9844H416.799ZM456.617 70.0518V72H441.421V70.0518H456.617ZM442.107 44.9844V72H439.825V44.9844H442.107ZM454.725 57.1006V59.0488H441.421V57.1006H454.725ZM456.524 44.9844V46.9512H441.421V44.9844H456.524ZM478.252 70.0518V72H463.056V70.0518H478.252ZM463.742 44.9844V72H461.46V44.9844H463.742ZM476.359 57.1006V59.0488H463.056V57.1006H476.359ZM478.159 44.9844V46.9512H463.056V44.9844H478.159Z" fill="white"/>
<path d="M505.694 56.1729H508.552C509.467 56.1729 510.222 56.0182 510.815 55.709C511.409 55.3874 511.848 54.9421 512.133 54.373C512.43 53.7917 512.578 53.1175 512.578 52.3506C512.578 51.6579 512.442 51.0456 512.17 50.5137C511.91 49.9694 511.508 49.5488 510.964 49.252C510.42 48.9427 509.733 48.7881 508.904 48.7881C508.249 48.7881 507.643 48.918 507.086 49.1777C506.529 49.4375 506.084 49.8024 505.75 50.2725C505.416 50.7425 505.249 51.3115 505.249 51.9795H499.887C499.887 50.4951 500.283 49.2025 501.074 48.1016C501.878 47.0007 502.954 46.141 504.303 45.5225C505.651 44.904 507.135 44.5947 508.756 44.5947C510.587 44.5947 512.188 44.8916 513.562 45.4854C514.935 46.0667 516.005 46.9264 516.771 48.0645C517.538 49.2025 517.922 50.6126 517.922 52.2949C517.922 53.1484 517.724 53.9772 517.328 54.7812C516.932 55.5729 516.363 56.2904 515.621 56.9336C514.891 57.5645 514.001 58.0716 512.949 58.4551C511.898 58.8262 510.716 59.0117 509.405 59.0117H505.694V56.1729ZM505.694 60.2363V57.4717H509.405C510.877 57.4717 512.17 57.6387 513.283 57.9727C514.396 58.3066 515.33 58.7891 516.085 59.4199C516.84 60.0384 517.409 60.7744 517.792 61.6279C518.175 62.4691 518.367 63.403 518.367 64.4297C518.367 65.6914 518.126 66.8171 517.644 67.8066C517.161 68.7839 516.481 69.6126 515.603 70.293C514.737 70.9733 513.722 71.4928 512.56 71.8516C511.397 72.1979 510.129 72.3711 508.756 72.3711C507.618 72.3711 506.498 72.2165 505.397 71.9072C504.309 71.5856 503.319 71.1094 502.429 70.4785C501.55 69.8353 500.845 69.0312 500.313 68.0664C499.794 67.0892 499.534 65.9326 499.534 64.5967H504.896C504.896 65.2894 505.07 65.9079 505.416 66.4521C505.762 66.9964 506.239 67.4232 506.845 67.7324C507.463 68.0417 508.15 68.1963 508.904 68.1963C509.758 68.1963 510.488 68.0417 511.094 67.7324C511.712 67.4108 512.182 66.9655 512.504 66.3965C512.838 65.8151 513.005 65.141 513.005 64.374C513.005 63.3844 512.826 62.5928 512.467 61.999C512.108 61.3929 511.595 60.9476 510.927 60.6631C510.259 60.3786 509.467 60.2363 508.552 60.2363H505.694ZM535.827 44.7061H536.606V48.9736H536.291C534.881 48.9736 533.625 49.1839 532.524 49.6045C531.424 50.0251 530.49 50.625 529.723 51.4043C528.968 52.1712 528.387 53.099 527.979 54.1875C527.583 55.276 527.385 56.4945 527.385 57.8428V62.333C527.385 63.2979 527.478 64.1514 527.663 64.8936C527.861 65.6234 528.139 66.2357 528.498 66.7305C528.869 67.2129 529.302 67.5778 529.797 67.8252C530.292 68.0602 530.848 68.1777 531.467 68.1777C532.048 68.1777 532.574 68.054 533.044 67.8066C533.526 67.5592 533.935 67.2129 534.269 66.7676C534.615 66.3099 534.875 65.778 535.048 65.1719C535.233 64.5534 535.326 63.8792 535.326 63.1494C535.326 62.4196 535.233 61.7454 535.048 61.127C534.875 60.5085 534.615 59.9766 534.269 59.5312C533.922 59.0736 533.502 58.721 533.007 58.4736C532.512 58.2262 531.955 58.1025 531.337 58.1025C530.496 58.1025 529.754 58.3005 529.11 58.6963C528.479 59.0798 527.985 59.5745 527.626 60.1807C527.267 60.7868 527.076 61.4238 527.051 62.0918L525.437 61.0527C525.474 60.1003 525.672 59.1973 526.03 58.3438C526.401 57.4902 526.909 56.7357 527.552 56.0801C528.207 55.4121 528.993 54.8926 529.908 54.5215C530.824 54.138 531.856 53.9463 533.007 53.9463C534.269 53.9463 535.376 54.1875 536.328 54.6699C537.293 55.1523 538.097 55.8141 538.74 56.6553C539.383 57.4964 539.866 58.4674 540.188 59.5684C540.509 60.6693 540.67 61.8444 540.67 63.0938C540.67 64.4049 540.453 65.6234 540.021 66.749C539.6 67.8747 538.988 68.8581 538.184 69.6992C537.392 70.5404 536.439 71.196 535.326 71.666C534.213 72.1361 532.964 72.3711 531.578 72.3711C530.143 72.3711 528.838 72.1113 527.663 71.5918C526.5 71.0599 525.498 70.3177 524.657 69.3652C523.816 68.4128 523.167 67.2809 522.709 65.9697C522.264 64.6585 522.041 63.2236 522.041 61.665V59.5869C522.041 57.4098 522.356 55.4183 522.987 53.6123C523.631 51.7939 524.552 50.223 525.752 48.8994C526.952 47.5635 528.399 46.5306 530.094 45.8008C531.788 45.071 533.7 44.7061 535.827 44.7061ZM562.045 56.1172V60.793C562.045 62.8216 561.828 64.5719 561.396 66.0439C560.963 67.5036 560.338 68.7035 559.521 69.6436C558.717 70.5713 557.759 71.2578 556.646 71.7031C555.532 72.1484 554.295 72.3711 552.935 72.3711C551.846 72.3711 550.832 72.235 549.892 71.9629C548.951 71.6784 548.104 71.2393 547.35 70.6455C546.607 70.0518 545.964 69.3034 545.42 68.4004C544.888 67.485 544.48 66.3965 544.195 65.1348C543.911 63.873 543.769 62.4258 543.769 60.793V56.1172C543.769 54.0885 543.985 52.3506 544.418 50.9033C544.863 49.4437 545.488 48.25 546.292 47.3223C547.108 46.3945 548.073 45.7142 549.187 45.2812C550.3 44.8359 551.537 44.6133 552.897 44.6133C553.986 44.6133 554.994 44.7555 555.922 45.04C556.862 45.3122 557.709 45.7389 558.464 46.3203C559.218 46.9017 559.862 47.6501 560.394 48.5654C560.925 49.4684 561.334 50.5508 561.618 51.8125C561.903 53.0618 562.045 54.4967 562.045 56.1172ZM556.683 61.498V55.3936C556.683 54.4163 556.627 53.5628 556.516 52.833C556.417 52.1032 556.262 51.4847 556.052 50.9775C555.841 50.458 555.582 50.0374 555.272 49.7158C554.963 49.3942 554.611 49.1592 554.215 49.0107C553.819 48.8623 553.38 48.7881 552.897 48.7881C552.291 48.7881 551.753 48.9056 551.283 49.1406C550.826 49.3757 550.436 49.7529 550.114 50.2725C549.793 50.7796 549.545 51.46 549.372 52.3135C549.211 53.1546 549.131 54.1813 549.131 55.3936V61.498C549.131 62.4753 549.18 63.335 549.279 64.0771C549.391 64.8193 549.551 65.4564 549.762 65.9883C549.984 66.5078 550.244 66.9346 550.541 67.2686C550.85 67.5902 551.203 67.8252 551.599 67.9736C552.007 68.1221 552.452 68.1963 552.935 68.1963C553.528 68.1963 554.054 68.0788 554.512 67.8438C554.982 67.5964 555.378 67.2129 555.699 66.6934C556.033 66.1615 556.281 65.4688 556.441 64.6152C556.602 63.7617 556.683 62.7227 556.683 61.498Z" fill="#F15830"/>
</svg>
