<svg width="28" height="32" viewBox="0 0 28 32" fill="none" xmlns="http://www.w3.org/2000/svg">
<path d="M18.3626 14.8378C20.4102 13.3445 21.7436 10.9277 21.7436 8.20512C21.7436 3.68081 18.0627 0 13.5384 0C9.01413 0 5.33331 3.68081 5.33331 8.20512C5.33331 10.9277 6.66663 13.3445 8.71425 14.8378C3.62425 16.7856 0 21.7207 0 27.4872C0 29.9756 2.02444 32 4.51281 32H22.5641C25.0524 32 27.0769 29.9756 27.0769 27.4872C27.0769 21.7207 23.4526 16.7856 18.3626 14.8378ZM7.79488 8.20512C7.79488 5.03813 10.3714 2.46156 13.5384 2.46156C16.7054 2.46156 19.282 5.03813 19.282 8.20512C19.282 11.3721 16.7054 13.9487 13.5384 13.9487C10.3714 13.9487 7.79488 11.3721 7.79488 8.20512ZM22.5641 29.5384H4.51281C3.38175 29.5384 2.46156 28.6182 2.46156 27.4871C2.46156 21.3792 7.43056 16.4102 13.5385 16.4102C19.6464 16.4102 24.6154 21.3792 24.6154 27.4871C24.6154 28.6182 23.6952 29.5384 22.5641 29.5384Z" fill="#F15830"/>
</svg>
