<svg width="24" height="24" viewBox="0 0 24 24" fill="none" xmlns="http://www.w3.org/2000/svg">
<path d="M14 22.8143C18.0854 22.8143 21.463 19.7681 21.9916 15.8261C22.0722 15.2527 21.5615 14.742 20.9882 14.8227C17.0461 15.3513 14 18.7289 14 22.8143ZM8.26613 12.2872C8.26574 12.6959 8.37714 13.0968 8.58828 13.4467C8.79943 13.7966 9.10226 14.082 9.464 14.2721C9.82573 14.4622 10.2326 14.5497 10.6405 14.5252C11.0484 14.5006 11.4418 14.3649 11.7781 14.1328L11.7602 14.303C11.7602 14.8971 11.9962 15.4668 12.4162 15.8868C12.8363 16.3069 13.406 16.5428 14 16.5428C14.594 16.5428 15.1637 16.3069 15.5838 15.8868C16.0038 15.4668 16.2398 14.8971 16.2398 14.303L16.2219 14.1328C16.5802 14.3837 17.0192 14.527 17.4941 14.527C18.0881 14.527 18.6578 14.291 19.0778 13.871C19.4979 13.451 19.7339 12.8813 19.7339 12.2872C19.7339 11.3913 19.2053 10.6298 18.4527 10.2714C19.2053 9.91305 19.7339 9.15152 19.7339 8.2556C19.7343 7.84696 19.6229 7.446 19.4117 7.09613C19.2006 6.74627 18.8977 6.46083 18.536 6.27074C18.1743 6.08064 17.7674 5.99313 17.3595 6.01768C16.9516 6.04223 16.5582 6.17791 16.2219 6.41002L16.2398 6.23979C16.2398 5.64576 16.0038 5.07606 15.5838 4.65602C15.1637 4.23598 14.594 4 14 4C13.406 4 12.8363 4.23598 12.4162 4.65602C11.9962 5.07606 11.7602 5.64576 11.7602 6.23979L11.7781 6.41002C11.4198 6.15916 10.9808 6.01581 10.5059 6.01581C9.9119 6.01581 9.3422 6.25179 8.92215 6.67183C8.50211 7.09188 8.26613 7.66158 8.26613 8.2556C8.26613 9.15152 8.79472 9.91305 9.54729 10.2714C8.79472 10.6298 8.26613 11.3913 8.26613 12.2872ZM14 8.03163C14.594 8.03163 15.1637 8.2676 15.5838 8.68765C16.0038 9.10769 16.2398 9.67739 16.2398 10.2714C16.2398 10.8654 16.0038 11.4351 15.5838 11.8552C15.1637 12.2752 14.594 12.5112 14 12.5112C13.406 12.5112 12.8363 12.2752 12.4162 11.8552C11.9962 11.4351 11.7602 10.8654 11.7602 10.2714C11.7602 9.67739 11.9962 9.10769 12.4162 8.68765C12.8363 8.2676 13.406 8.03163 14 8.03163ZM6.00842 15.8261C6.53701 19.7681 9.91462 22.8143 14 22.8143C14 18.7289 10.9539 15.3513 7.01185 14.8227C6.43846 14.742 5.92779 15.2527 6.00842 15.8261Z" fill="#17407B"/>
</svg>
