<svg width="20" height="20" viewBox="0 0 23 33" fill="none" xmlns="http://www.w3.org/2000/svg">
<path d="M19.8056 14.1833V8.30556C19.8056 3.72587 16.0797 0 11.5 0C6.92032 0 3.19444 3.72587 3.19444 8.30556V14.1833H0V32.7111H23V14.1833H19.8056ZM5.11111 8.30556C5.11111 4.78272 7.97717 1.91667 11.5 1.91667C15.0229 1.91667 17.8889 4.78272 17.8889 8.30556V14.1833H5.11111V8.30556ZM21.0833 30.7944H1.91667V16.1H21.0833V30.7944Z" fill="grey"/>
<path d="M11.5 18.4C9.91473 18.4 8.625 19.6897 8.625 21.275C8.625 22.5243 9.42623 23.5896 10.5417 23.9852V27.9194H12.4583V23.9852C13.5738 23.5896 14.375 22.5243 14.375 21.275C14.375 19.6897 13.0853 18.4 11.5 18.4ZM11.5 22.2333C10.9716 22.2333 10.5417 21.8034 10.5417 21.275C10.5417 20.7466 10.9716 20.3167 11.5 20.3167C12.0284 20.3167 12.4583 20.7466 12.4583 21.275C12.4583 21.8034 12.0284 22.2333 11.5 22.2333Z" fill="grey"/>
</svg>
