<svg width="17" height="17" viewBox="0 0 12 14" fill="none" xmlns="http://www.w3.org/2000/svg">
<path d="M6.0013 0.333008C4.1633 0.333008 2.66797 1.82834 2.66797 3.66634V4.99967H2.0013C1.26597 4.99967 0.667969 5.59767 0.667969 6.33301V12.333C0.667969 13.0683 1.26597 13.6663 2.0013 13.6663H10.0013C10.7366 13.6663 11.3346 13.0683 11.3346 12.333V6.33301C11.3346 5.59767 10.7366 4.99967 10.0013 4.99967H9.33464V3.66634C9.33464 1.82834 7.8393 0.333008 6.0013 0.333008ZM4.0013 3.66634C4.0013 2.56367 4.89864 1.66634 6.0013 1.66634C7.10397 1.66634 8.0013 2.56367 8.0013 3.66634V4.99967H4.0013V3.66634ZM10.0026 12.333H6.66797V10.8143C7.06464 10.583 7.33464 10.1577 7.33464 9.66634C7.33464 8.93101 6.73664 8.33301 6.0013 8.33301C5.26597 8.33301 4.66797 8.93101 4.66797 9.66634C4.66797 10.157 4.93797 10.583 5.33464 10.8143V12.333H2.0013V6.33301H10.0013L10.0026 12.333Z" fill="#8391A7"/>
</svg>
