<svg width="25" height="25" viewBox="0 0 38 23" fill="none" xmlns="http://www.w3.org/2000/svg">
<path d="M19 0C11.7397 0 5.15567 3.97218 0.297331 10.4241C-0.0991101 10.9526 -0.0991101 11.6911 0.297331 12.2197C5.15567 18.6794 11.7397 22.6515 19 22.6515C26.2603 22.6515 32.8443 18.6793 37.7027 12.2275C38.0991 11.6989 38.0991 10.9604 37.7027 10.4318C32.8443 3.97218 26.2603 0 19 0ZM19.5208 19.3012C14.7013 19.6044 10.7214 15.6322 11.0245 10.805C11.2733 6.825 14.4992 3.59906 18.4792 3.35031C23.2987 3.04715 27.2786 7.01933 26.9755 11.8466C26.7189 15.8188 23.493 19.0447 19.5208 19.3012ZM19.2798 15.6167C16.6835 15.7799 14.5381 13.6422 14.7091 11.0459C14.8413 8.90048 16.5825 7.16702 18.7279 7.0271C21.3242 6.86386 23.4697 9.00154 23.2987 11.5978C23.1587 13.751 21.4175 15.4845 19.2798 15.6167Z" fill="#718096"/>
</svg>
