<svg width="25" height="25" viewBox="0 0 39 28" fill="none" xmlns="http://www.w3.org/2000/svg">
<path d="M32.079 24.9799L7.51804 0.419595L7.51279 0.413595C7.37981 0.281707 7.22217 0.177301 7.04885 0.106339C6.87553 0.035376 6.68992 -0.000754197 6.50264 1.19335e-05C6.31536 0.000778064 6.13006 0.0384255 5.95732 0.110804C5.78459 0.183182 5.6278 0.288874 5.49591 0.421846C5.36402 0.554817 5.25962 0.712464 5.18866 0.885785C5.11769 1.05911 5.08156 1.24471 5.08233 1.43199C5.08388 1.81023 5.23561 2.17236 5.50416 2.43872L7.65454 4.5891C5.04672 6.37515 2.80202 8.64046 1.03989 11.2645C0.752133 11.6894 0.598328 12.1907 0.598328 12.7038C0.598328 13.217 0.752133 13.7183 1.03989 14.1432C5.53791 20.8006 12.6686 24.7008 19.7993 24.6521C22.109 24.6604 24.4034 24.2759 26.5842 23.515L30.0652 26.996C30.3334 27.2555 30.6927 27.3995 31.0659 27.3969C31.4391 27.3944 31.7964 27.2456 32.0611 26.9824C32.3257 26.7192 32.4765 26.3627 32.4812 25.9895C32.4858 25.6164 32.3438 25.2562 32.0858 24.9866L32.079 24.9799ZM19.7993 20.7811C18.4483 20.7806 17.119 20.4415 15.9328 19.7949C14.7466 19.1482 13.7415 18.2146 13.0091 17.0793C12.2768 15.944 11.8406 14.6433 11.7405 13.2961C11.6404 11.9488 11.8795 10.5979 12.4361 9.3669L14.6825 11.6133C14.5015 12.4659 14.5365 13.3503 14.7842 14.186C15.0319 15.0217 15.4845 15.7822 16.1008 16.3986C16.7171 17.0149 17.4777 17.4675 18.3134 17.7152C19.1491 17.9629 20.0335 17.9979 20.8861 17.8169L23.1325 20.0633C22.0855 20.538 20.9489 20.7828 19.7993 20.7811ZM38.5587 11.2608C34.0607 4.5996 26.93 0.699363 19.7993 0.748116C17.4895 0.73975 15.1952 1.12425 13.0144 1.88519L16.4646 5.3354C17.9617 4.65787 19.6298 4.45271 21.2465 4.74726C22.8633 5.04181 24.3518 5.82208 25.5138 6.98409C26.6758 8.14609 27.4561 9.63464 27.7506 11.2514C28.0452 12.8681 27.84 14.5362 27.1625 16.0333L31.9433 20.8141C34.5516 19.0283 36.7966 16.763 38.5587 14.1387C38.8463 13.7139 39 13.2127 39 12.6997C39 12.1867 38.8463 11.6855 38.5587 11.2608Z" fill="#718096"/>
<path d="M19.7993 7.46928C19.434 7.46933 19.0698 7.50754 18.7125 7.58329L24.9161 13.7862C25.0779 13.0241 25.0673 12.2354 24.8853 11.4779C24.7033 10.7204 24.3543 10.0131 23.8639 9.40766C23.3735 8.80226 22.7541 8.31405 22.0509 7.97869C21.3476 7.64332 20.5784 7.46929 19.7993 7.46928Z" fill="#718096"/>
</svg>
