<svg width="167" height="33" viewBox="0 0 167 33" fill="none" xmlns="http://www.w3.org/2000/svg">
<path d="M0 8.02597V3.11688H5.34987V7.98701H11.662L8.69835 12.6234H5.34987V20.8052C5.34987 22.0519 5.88871 22.6753 7.08185 22.6753C8.08254 22.6753 8.96777 22.4416 9.73754 22.013V26.3766C8.62138 27.039 7.31278 27.4675 5.50383 27.4675C2.23232 27.4286 0 26.1429 0 21.7013V12.6623V8.02597Z" fill="#162952"/>
<path d="M10.5459 17.6883V17.6104C10.5459 12.1558 14.3947 7.67532 19.8601 7.67532C26.1721 7.67532 29.0588 12.6234 29.0588 18.039C29.0588 18.4675 29.0203 18.974 28.9818 19.4805H15.8573C16.3961 21.9351 18.0896 23.2208 20.4759 23.2208C22.2848 23.2208 23.5934 22.6364 25.056 21.2727L28.135 24C26.3646 26.2208 23.8244 27.5844 20.4374 27.5844C14.7026 27.5455 10.5459 23.5325 10.5459 17.6883ZM23.8244 16.0909C23.5165 13.6753 22.0924 12.039 19.8601 12.039C17.6277 12.039 16.2037 13.6364 15.7803 16.0909H23.8244Z" fill="#162952"/>
<path d="M30.7905 17.7273V17.6494C30.7905 12.1948 34.9088 7.71429 40.682 7.71429C44.2229 7.71429 46.4553 8.92209 48.2257 10.9091L44.9542 14.4935C43.7611 13.2078 42.5679 12.3896 40.6435 12.3896C37.9493 12.3896 36.0634 14.7662 36.0634 17.6104V17.6883C36.0634 20.6104 37.9493 22.9481 40.836 22.9481C42.6449 22.9481 43.8765 22.1688 45.1851 20.9221L48.3027 24.1169C46.4553 26.1429 44.3769 27.6234 40.605 27.6234C34.9473 27.6234 30.7905 23.1818 30.7905 17.7273Z" fill="#162952"/>
<path d="M50.0347 3.46753L55.3845 0V10.7922C56.6162 9.19481 58.1942 7.71429 60.9269 7.71429C64.9681 7.71429 67.3544 10.4416 67.3544 14.8052V27.1948H61.966V16.5195C61.966 13.9481 60.7729 12.6234 58.733 12.6234C56.6931 12.6234 55.3845 13.9481 55.3845 16.5195V27.1948H50.0347V3.46753Z" fill="#162952"/>
<path d="M68.7402 24.6623L71.011 21.0779C73.0894 22.5974 75.2063 23.3766 76.9767 23.3766C78.5163 23.3766 79.2475 22.7922 79.2475 21.9351V21.8571C79.2475 20.6883 77.4001 20.2987 75.3217 19.6364C72.666 18.8571 69.7024 17.6104 69.7024 13.9091V13.8312C69.7024 9.93505 72.82 7.75323 76.5918 7.75323C78.9781 7.75323 81.5953 8.57142 83.6352 9.97401L81.5953 13.7143C79.7094 12.6234 77.862 11.9221 76.4764 11.9221C75.1678 11.9221 74.5135 12.5065 74.5135 13.2467V13.3247C74.5135 14.3766 76.3224 14.8831 78.3623 15.6234C81.018 16.5195 84.0586 17.8052 84.0586 21.2727V21.3506C84.0586 25.5974 80.941 27.5065 76.8228 27.5065C74.2056 27.5454 71.242 26.6493 68.7402 24.6623Z" fill="#F15830"/>
<path d="M85.2134 17.7273V17.6494C85.2134 12.1559 89.601 7.71429 95.4513 7.71429C101.301 7.71429 105.612 12.1169 105.612 17.5714V17.6494C105.612 23.1429 101.225 27.5844 95.3743 27.5844C89.5626 27.6234 85.2134 23.2208 85.2134 17.7273ZM100.378 17.7273V17.6494C100.378 14.8442 98.3764 12.3896 95.4128 12.3896C92.3337 12.3896 90.5248 14.7662 90.5248 17.6104V17.6883C90.5248 20.4935 92.5262 22.9481 95.4898 22.9481C98.5303 22.9481 100.378 20.5325 100.378 17.7273Z" fill="#F15830"/>
<path d="M107.459 10.3637L112.809 6.89612V10.7922C114.118 9.00001 115.927 7.67534 118.698 7.67534C123.086 7.67534 127.281 11.1818 127.281 17.5325V17.6104C127.281 24 123.163 27.4675 118.698 27.4675C115.85 27.4675 114.079 26.1429 112.809 24.6234V32.8052H107.459V10.3637ZM121.97 17.6494V17.5714C121.97 14.4156 119.853 12.3117 117.351 12.3117C114.849 12.3117 112.771 14.4156 112.771 17.5714V17.6494C112.771 20.8052 114.849 22.9091 117.351 22.9091C119.853 22.9091 121.97 20.8831 121.97 17.6494Z" fill="#F15830"/>
<path d="M129.051 3.46753L134.401 0V10.7922C135.633 9.19481 137.211 7.71429 139.943 7.71429C143.985 7.71429 146.371 10.4416 146.371 14.8052V27.1948H141.021V16.5195C141.021 13.9481 139.828 12.6234 137.788 12.6234C135.748 12.6234 134.44 13.9481 134.44 16.5195V27.1948H129.09V3.46753H129.051Z" fill="#F15830"/>
<path d="M160.458 8.06493H166.039L158.764 27.6234C157.302 31.5195 155.762 32.961 152.568 32.961C150.643 32.961 149.181 32.4545 147.795 31.6364L149.604 27.7013C150.297 28.1299 151.182 28.4416 151.875 28.4416C152.799 28.4416 153.299 28.1688 153.722 27.1948L146.333 8.02597H152.029L156.339 21.039L160.458 8.06493Z" fill="#F15830"/>
</svg>
