<svg width="238" height="54" viewBox="0 0 238 54" fill="none" xmlns="http://www.w3.org/2000/svg">
<path d="M14.6473 53.8939H13.7583V47.269H14.6473V53.8939Z" fill="#999999"/>
<path d="M27.0509 53.8939H26.1619L22.9868 48.8241H22.9657V53.8939H22.0767V47.269H22.9657L26.1407 52.3176H26.1619V47.269H27.0509V53.8939Z" fill="#999999"/>
<path d="M37.8885 52.2323C37.8885 51.9341 37.7827 51.6785 37.571 51.4867C37.3593 51.2737 36.9783 51.1033 36.4491 50.9755C35.7718 50.8051 35.2638 50.5708 34.8828 50.2299C34.5018 49.9104 34.3113 49.5057 34.3113 49.0157C34.3113 48.5045 34.523 48.0571 34.9251 47.7163C35.3273 47.3755 35.8565 47.2051 36.4915 47.2051C37.19 47.2051 37.7403 47.3968 38.1425 47.8015C38.5447 48.2063 38.7563 48.6536 38.7352 49.1861L38.714 49.2074H37.8673C37.8673 48.824 37.7403 48.5258 37.4863 48.2702C37.2323 48.0145 36.8936 47.908 36.4915 47.908C36.0681 47.908 35.7506 48.0145 35.539 48.2063C35.3273 48.4193 35.2003 48.6749 35.2003 48.9944C35.2003 49.2927 35.3273 49.527 35.5601 49.7187C35.793 49.9104 36.1951 50.0808 36.7455 50.2299C37.4017 50.4004 37.9097 50.656 38.2695 50.9968C38.6082 51.3376 38.7987 51.7424 38.7987 52.2536C38.7987 52.7862 38.587 53.2122 38.1637 53.5317C37.7403 53.8512 37.2112 54.0217 36.5338 54.0217C35.8988 54.0217 35.3273 53.8512 34.8405 53.4891C34.3536 53.127 34.1208 52.6583 34.1419 52.0406V52.0193H34.9886C34.9886 52.4453 35.1368 52.7649 35.4543 52.9779C35.7718 53.2122 36.1316 53.3187 36.5126 53.3187C36.936 53.3187 37.2746 53.2335 37.5075 53.0418C37.7827 52.8075 37.8885 52.5518 37.8885 52.2323Z" fill="#999999"/>
<path d="M50.6943 47.269V51.6785C50.6943 52.4028 50.4614 52.9779 49.9958 53.3827C49.5301 53.7874 48.9162 54.0004 48.1754 54.0004C47.4557 54.0004 46.8842 53.7874 46.4186 53.3827C45.9529 52.9779 45.7412 52.4028 45.7412 51.6785V47.269H46.6302V51.6785C46.6302 52.1898 46.7784 52.5732 47.0536 52.8714C47.3499 53.1483 47.7097 53.2974 48.1754 53.2974C48.6622 53.2974 49.0432 53.1483 49.3607 52.8714C49.6571 52.5945 49.8053 52.1898 49.8053 51.6785V47.269H50.6943Z" fill="#999999"/>
<path d="M58.7801 51.0182V53.8939H57.8911V47.269H60.1348C60.8545 47.269 61.4048 47.4395 61.7858 47.759C62.1668 48.0785 62.3573 48.5472 62.3573 49.1649C62.3573 49.5057 62.2727 49.804 62.1033 50.0596C61.934 50.3152 61.68 50.5069 61.3413 50.656C61.7011 50.7838 61.9551 50.9756 62.1245 51.2312C62.2727 51.4868 62.3573 51.8276 62.3573 52.2111V52.8288C62.3573 53.0418 62.3785 53.2122 62.4208 53.3827C62.4632 53.5531 62.5478 53.6809 62.6537 53.7874V53.8939H61.7435C61.6165 53.7874 61.553 53.6383 61.5106 53.4466C61.4683 53.2548 61.4683 53.0418 61.4683 52.8288V52.2324C61.4683 51.8702 61.3625 51.5933 61.1508 51.359C60.9391 51.146 60.664 51.0395 60.3041 51.0395H58.7801V51.0182ZM58.7801 50.3152H60.0501C60.5581 50.3152 60.918 50.2087 61.1296 50.017C61.3413 49.8253 61.4683 49.527 61.4683 49.1436C61.4683 48.7602 61.3625 48.4832 61.1508 48.2702C60.9391 48.0572 60.6005 47.972 60.1348 47.972H58.7801V50.3152Z" fill="#999999"/>
<path d="M72.9833 52.1898H70.5068L69.9141 53.8939H69.0039L71.3746 47.269H72.1366L74.4649 53.8939H73.5548L72.9833 52.1898ZM70.7607 51.4442H72.7293L71.7768 48.5898H71.7556L70.7607 51.4442Z" fill="#999999"/>
<path d="M86.2125 53.8939H85.3235L82.1485 48.8241H82.1273V53.8939H81.2383V47.269H82.1273L85.3023 52.3176H85.3235V47.269H86.2125V53.8939Z" fill="#999999"/>
<path d="M98.2353 51.7848V51.8061C98.2564 52.4238 98.0236 52.9564 97.5791 53.3611C97.1346 53.7871 96.5419 53.9788 95.8011 53.9788C95.0602 53.9788 94.4464 53.7232 93.9807 53.1907C93.5151 52.6581 93.2822 51.9765 93.2822 51.167V49.9954C93.2822 49.186 93.5151 48.5043 93.9807 47.9718C94.4464 47.4392 95.0602 47.1836 95.8011 47.1836C96.5419 47.1836 97.1346 47.3753 97.5791 47.78C98.0236 48.1848 98.2353 48.7173 98.2141 49.3564V49.3777H97.3674C97.3674 48.909 97.2404 48.5469 96.9653 48.27C96.6901 47.9931 96.3091 47.8652 95.8223 47.8652C95.3142 47.8652 94.9332 48.057 94.6369 48.4617C94.3406 48.8664 94.1924 49.3564 94.1924 49.9741V51.167C94.1924 51.7635 94.3406 52.2747 94.6369 52.6794C94.9332 53.0842 95.3354 53.2759 95.8223 53.2759C96.3091 53.2759 96.6901 53.1481 96.9653 52.8712C97.2404 52.5942 97.3674 52.2321 97.3674 51.7635H98.2353V51.7848Z" fill="#999999"/>
<path d="M108.776 50.8264H106.067V53.1909H109.242V53.8939H105.199V47.269H109.2V47.972H106.088V50.1235H108.798V50.8264H108.776Z" fill="#999999"/>
<path d="M127.7 52.2323C127.7 51.9341 127.594 51.6785 127.382 51.4867C127.17 51.2737 126.789 51.1033 126.26 50.9755C125.583 50.8051 125.075 50.5708 124.694 50.2299C124.313 49.9104 124.122 49.5057 124.122 49.0157C124.122 48.5045 124.334 48.0571 124.736 47.7163C125.138 47.3755 125.668 47.2051 126.303 47.2051C127.001 47.2051 127.551 47.3968 127.954 47.8015C128.356 48.2063 128.567 48.6536 128.546 49.1861L128.525 49.2074H127.678C127.678 48.824 127.551 48.5258 127.297 48.2702C127.043 48.0145 126.705 47.908 126.303 47.908C125.879 47.908 125.562 48.0145 125.35 48.2063C125.138 48.4193 125.011 48.6749 125.011 48.9944C125.011 49.2927 125.138 49.527 125.371 49.7187C125.604 49.9104 126.006 50.0808 126.557 50.2299C127.213 50.4004 127.721 50.656 128.081 50.9968C128.419 51.3376 128.61 51.7424 128.61 52.2536C128.61 52.7862 128.398 53.2122 127.975 53.5317C127.551 53.8512 127.022 54.0217 126.345 54.0217C125.71 54.0217 125.138 53.8512 124.652 53.4891C124.165 53.127 123.932 52.6583 123.953 52.0406V52.0193H124.8C124.8 52.4453 124.948 52.7649 125.265 52.9779C125.583 53.2122 125.943 53.3187 126.324 53.3187C126.747 53.3187 127.086 53.2335 127.319 53.0418C127.573 52.8075 127.7 52.5518 127.7 52.2323Z" fill="#999999"/>
<path d="M136.611 53.8939H135.722V47.269H136.611V53.8939Z" fill="#999999"/>
<path d="M147.3 52.6584H147.321L149.417 47.269H150.517V53.8939H149.65V48.9306H149.628L147.639 53.8939H147.025L144.972 48.7602H144.951V53.8939H144.062V47.269H145.226L147.3 52.6584Z" fill="#999999"/>
<path d="M158.772 51.2312V53.8939H157.883V47.269H160.402C161.101 47.269 161.651 47.4608 162.032 47.8229C162.413 48.185 162.625 48.675 162.625 49.2714C162.625 49.8679 162.434 50.3578 162.032 50.7199C161.651 51.0821 161.101 51.2525 160.402 51.2525H158.772V51.2312ZM158.772 50.5282H160.402C160.847 50.5282 161.185 50.4004 161.397 50.1661C161.609 49.9318 161.736 49.6122 161.736 49.2501C161.736 48.888 161.63 48.5685 161.397 48.3341C161.185 48.0785 160.847 47.972 160.402 47.972H158.772V50.5282Z" fill="#999999"/>
<path d="M170.435 53.1909H173.653V53.8939H169.546V47.269H170.435V53.1909Z" fill="#999999"/>
<path d="M181.421 53.8939H180.532V47.269H181.421V53.8939Z" fill="#999999"/>
<path d="M192.512 50.9756H189.74V53.8939H188.851V47.269H192.978V47.972H189.74V50.2513H192.512V50.9756Z" fill="#999999"/>
<path d="M200.725 53.8939H199.836V47.269H200.725V53.8939Z" fill="#999999"/>
<path d="M211.753 50.8264H209.044V53.1909H212.219V53.8939H208.155V47.269H212.155V47.972H209.044V50.1235H211.753V50.8264Z" fill="#999999"/>
<path d="M219.056 53.8939V47.269H221.13C221.998 47.269 222.675 47.546 223.204 48.0785C223.734 48.6111 223.988 49.2927 223.988 50.1448V51.0608C223.988 51.9128 223.734 52.5945 223.204 53.127C222.675 53.6596 221.998 53.9152 221.13 53.9152H219.056V53.8939ZM219.945 47.972V53.1909H221.13C221.744 53.1909 222.21 52.9992 222.569 52.5945C222.929 52.1897 223.099 51.6785 223.099 51.0395V50.1235C223.099 49.5057 222.929 48.9945 222.569 48.5898C222.21 48.185 221.744 47.9933 221.13 47.9933H219.945V47.972Z" fill="#999999"/>
<path d="M33.4224 0.106445V2.55615H19.8545V37.8106H13.5679V2.55615H0V0.106445H33.4224Z" fill="#4D4D4D"/>
<path d="M39.582 0.106445H52.5785C54.8222 0.106445 56.7907 0.340765 58.484 0.830706C60.1774 1.32065 61.5955 2.0023 62.7174 2.85437C63.8392 3.72775 64.7071 4.77153 65.2786 5.96443C65.8501 7.17864 66.1464 8.47804 66.1464 9.90526C66.1464 11.0769 65.9347 12.1846 65.4902 13.207C65.0457 14.2295 64.4319 15.1455 63.6276 15.9763C62.8232 16.807 61.8707 17.51 60.7277 18.1064C59.6059 18.7029 58.357 19.1715 57.0023 19.5124L70.655 37.7893H63.3312L50.3136 20.0662H45.9109V37.7893H39.582V0.106445ZM45.8898 18.1917H49.5304C50.9486 18.1917 52.2398 17.9999 53.4463 17.6165C54.6317 17.2331 55.6688 16.7005 56.5578 16.0189C57.4257 15.3372 58.1242 14.4851 58.611 13.5053C59.0979 12.5254 59.3519 11.4177 59.3519 10.1822C59.3519 9.05319 59.1614 8.0094 58.7804 7.05082C58.3994 6.11355 57.849 5.28278 57.1505 4.62242C56.452 3.94077 55.6053 3.42952 54.6317 3.04609C53.658 2.66266 52.5996 2.47094 51.4566 2.47094H45.9109V18.1917H45.8898Z" fill="#4D4D4D"/>
<path d="M119.698 0.106445L133.859 30.0993L147.004 0.106445H149.988L132.991 38.684H131.361L113.073 0.106445H119.698Z" fill="#4D4D4D"/>
<path d="M155.153 10.438H161.461V37.8108H155.153V10.438Z" fill="#4D4D4D"/>
<path d="M201.043 0.106445V2.55615H187.475V37.8106H181.188V2.55615H167.62V0.106445H201.043Z" fill="#4D4D4D"/>
<path d="M208.642 0.106445L221.638 19.2141L234.571 0.106445H238L223.48 21.5147V37.8106H217.172V22.1112L202.207 0.106445H208.642Z" fill="#4D4D4D"/>
<path d="M112.544 27.6711C112.735 26.3291 112.65 24.838 112.142 23.1978C112.671 24.9445 112.692 26.4569 112.544 27.6711Z" fill="#73CFEE"/>
<path d="M112.544 27.6709C112.396 28.7147 112.099 29.6733 111.697 30.5253C111.824 30.3123 112.353 29.2685 112.544 27.6709Z" fill="#5DB2C9"/>
<path d="M111.676 30.5893C112.227 27.5005 110.364 25.9455 108.078 24.5396C106.681 25.4981 104.458 26.3502 100.987 26.8614C100.987 26.8614 93.3881 27.7774 96.2456 34.4236C99.2725 41.4319 107.633 35.4461 107.633 35.4461C107.633 35.4461 110.258 33.6993 111.697 30.5467C111.697 30.568 111.676 30.5893 111.676 30.5893Z" fill="#73CFEE"/>
<path d="M109.454 18.128C110.808 19.9387 111.676 21.6215 112.142 23.1765C111.697 21.6854 110.893 20.0239 109.559 18.2558C104.966 12.2487 100.034 14.741 101.643 18.8736C102.744 21.6854 105.665 23.0274 108.099 24.5185C112.015 21.8132 109.454 18.128 109.454 18.128Z" fill="#5DB2C9"/>
<path d="M111.676 30.5893C111.676 30.5893 111.676 30.568 111.697 30.5467C112.078 29.6947 112.396 28.7361 112.544 27.6923C112.692 26.4781 112.671 24.9657 112.142 23.2189C111.676 21.6639 110.808 19.9598 109.454 18.1704C109.454 18.1704 112.015 21.8556 108.099 24.5609C110.385 25.9456 112.227 27.5006 111.676 30.5893Z" fill="#73CFEE"/>
<path d="M111.676 30.5893C111.676 30.5893 111.676 30.568 111.697 30.5467C112.078 29.6947 112.396 28.7361 112.544 27.6923C112.692 26.4781 112.671 24.9657 112.142 23.2189C111.676 21.6639 110.808 19.9598 109.454 18.1704C109.454 18.1704 112.015 21.8556 108.099 24.5609C110.385 25.9456 112.227 27.5006 111.676 30.5893Z" fill="#2A90BC"/>
<path d="M83.4396 36.7879C81.6404 36.511 80.2645 35.872 79.2485 35.2329C80.3704 35.9572 81.7462 36.5323 83.4396 36.7879Z" fill="#EF669B"/>
<path d="M83.9689 32.5277C83.6937 30.8449 83.9054 28.4591 84.9214 25.0934C84.9214 25.0934 87.3556 17.7869 80.1588 17.5526C72.5811 17.297 74.3591 27.4579 74.3591 27.4579C74.3591 27.4579 74.8036 30.5893 77.005 33.252C76.9838 33.2307 76.9626 33.2094 76.9626 33.2094C79.5238 34.9987 81.7252 33.9976 83.9689 32.5277Z" fill="#EF669B"/>
<path d="M91.822 29.0981C88.8375 28.8851 86.3821 30.9727 83.9903 32.549C84.7311 37.278 89.1338 36.5324 89.1338 36.5324C86.9325 37.0011 85.0486 37.0437 83.4399 36.8093C84.9851 37.0437 86.8055 37.0437 88.9645 36.575C96.3305 34.9561 96.2035 29.3963 91.822 29.0981Z" fill="#C65583"/>
<path d="M77.0264 33.231C77.1745 33.444 77.873 34.3599 79.2277 35.212C78.3599 34.6369 77.6402 33.9552 77.0264 33.231Z" fill="#C65583"/>
<path d="M89.1335 36.5113C89.1335 36.5113 84.7308 37.2568 83.9899 32.5278C81.7463 33.9977 79.5449 34.9988 77.0049 33.1882C77.0049 33.1882 77.0261 33.2095 77.0472 33.2308C77.6399 33.955 78.3807 34.6367 79.2486 35.2119C80.2646 35.8722 81.6616 36.49 83.4396 36.7669C85.0483 37.0225 86.911 36.9799 89.1335 36.5113Z" fill="#EF669B"/>
<path d="M89.1335 36.5113C89.1335 36.5113 84.7308 37.2568 83.9899 32.5278C81.7463 33.9977 79.5449 34.9988 77.0049 33.1882C77.0049 33.1882 77.0261 33.2095 77.0472 33.2308C77.6399 33.955 78.3807 34.6367 79.2486 35.2119C80.2646 35.8722 81.6616 36.49 83.4396 36.7669C85.0483 37.0225 86.911 36.9799 89.1335 36.5113Z" fill="#B92250"/>
<path d="M88.6889 6.41185C90.2553 7.0722 92.1603 8.49942 94.4463 11.1621C94.4463 11.1621 99.3147 17.1053 103.336 11.0982C107.57 4.77161 98.0658 0.894686 98.0658 0.894686C98.0658 0.894686 95.1871 -0.383421 91.7793 0.0852183C91.8216 0.0852183 91.8428 0.0852183 91.8428 0.0852183C88.9641 1.29942 88.6466 3.70652 88.6889 6.41185Z" fill="#9271BE"/>
<path d="M88.9431 0.9375C87.7154 1.51265 86.5089 2.38602 85.4082 3.68543C86.5724 2.30081 87.8424 1.44874 88.9431 0.9375Z" fill="#9271BE"/>
<path d="M88.9429 0.937215C89.8954 0.489877 90.8691 0.234256 91.7792 0.106445C91.5252 0.127747 90.3822 0.234256 88.9429 0.937215Z" fill="#7659A5"/>
<path d="M87.4405 14.9114C89.1973 12.483 88.7528 9.26643 88.6893 6.39069C84.3078 4.53744 82.5933 8.66998 82.5933 8.66998C83.3764 6.5398 84.3289 4.89957 85.3873 3.66406C84.3713 4.83566 83.3976 6.41199 82.6568 8.49957C80.0956 15.657 84.8581 18.4901 87.4405 14.9114Z" fill="#7659A5"/>
<path d="M88.6893 6.41177C88.647 3.70645 88.9645 1.29934 91.822 0.106445C91.822 0.106445 91.8008 0.106445 91.7585 0.106445C90.8272 0.234256 89.8747 0.489877 88.9221 0.937215C87.8215 1.46976 86.5726 2.30053 85.3873 3.68514C84.3289 4.92065 83.3764 6.56088 82.5933 8.69106C82.6144 8.69106 84.3078 4.53721 88.6893 6.41177Z" fill="#9271BE"/>
<path d="M88.6893 6.41177C88.647 3.70645 88.9645 1.29934 91.822 0.106445C91.822 0.106445 91.8008 0.106445 91.7585 0.106445C90.8272 0.234256 89.8747 0.489877 88.9221 0.937215C87.8215 1.46976 86.5726 2.30053 85.3873 3.68514C84.3289 4.92065 83.3764 6.56088 82.5933 8.69106C82.6144 8.69106 84.3078 4.53721 88.6893 6.41177Z" fill="#43277A"/>
<path d="M96.8597 19.3845C96.0553 17.51 93.9175 16.6579 92.076 17.4461C90.2133 18.2556 89.3666 20.407 90.1498 22.2603C90.9541 24.1348 93.092 24.9869 94.9335 24.1988C96.7962 23.4106 97.664 21.2591 96.8597 19.3845Z" fill="#FF9B2E"/>
<path d="M158.265 7.5197C160.275 7.5197 161.905 5.87932 161.905 3.8558C161.905 1.83228 160.275 0.191895 158.265 0.191895C156.254 0.191895 154.624 1.83228 154.624 3.8558C154.624 5.87932 156.254 7.5197 158.265 7.5197Z" fill="#FF9B2E"/>
</svg>
