<svg width="27" height="25" viewBox="0 0 27 25" fill="none" xmlns="http://www.w3.org/2000/svg">
<path d="M25.7579 19.2934C26.1177 17.2868 24.8999 16.2766 23.4053 15.3633C22.492 15.986 21.039 16.5396 18.7694 16.8717C18.7694 16.8717 13.8014 17.4667 15.6696 21.7843C17.6485 26.3372 23.1147 22.4486 23.1147 22.4486C23.1147 22.4486 24.8307 21.3138 25.7717 19.2657C25.7717 19.2934 25.7579 19.2934 25.7579 19.2934Z" fill="#73CFEE"/>
<path d="M24.3048 11.2115C25.1905 12.3877 25.7579 13.481 26.0623 14.4912C25.7717 13.5225 25.2458 12.4431 24.374 11.2945C21.3711 7.39204 18.1467 9.01114 19.1984 11.6958C19.918 13.5225 21.8277 14.3943 23.4192 15.363C25.9793 13.6055 24.3048 11.2115 24.3048 11.2115Z" fill="#5DB2C9"/>
<path d="M25.7581 19.2934C25.7581 19.2934 25.7581 19.2796 25.772 19.2657C26.0211 18.7122 26.2286 18.0895 26.3255 17.4114C26.4224 16.6226 26.4085 15.6401 26.0626 14.5053C25.7581 13.4951 25.1908 12.388 24.3051 11.2256C24.3051 11.2256 25.9796 13.6196 23.4194 15.3771C24.914 16.2905 26.1179 17.3007 25.7581 19.2934Z" fill="#2A90BC"/>
<path d="M6.78602 21.3565C6.60612 20.2633 6.7445 18.7134 7.40875 16.5269C7.40875 16.5269 9.00018 11.7803 4.29509 11.6281C-0.659087 11.462 0.503347 18.063 0.503347 18.063C0.503347 18.063 0.793955 20.0972 2.23316 21.827C2.21932 21.8132 2.20548 21.7994 2.20548 21.7994C3.87994 22.9618 5.3053 22.3114 6.78602 21.3565Z" fill="#EF669B"/>
<path d="M11.9063 19.1289C9.95508 18.9906 8.34982 20.3467 6.78607 21.3708C7.27042 24.4429 10.1488 23.9586 10.1488 23.9586C8.70962 24.263 7.47799 24.2907 6.42627 24.1385C7.43648 24.2907 8.62659 24.2907 10.0381 23.9862C14.8539 22.9345 14.7709 19.3227 11.9063 19.1289Z" fill="#C65583"/>
<path d="M10.1487 23.9442C10.1487 23.9442 7.27029 24.4286 6.78594 21.3564C5.31906 22.3113 3.87986 22.9617 2.21924 21.7854C2.21924 21.7854 2.23308 21.7993 2.24692 21.8131C2.63439 22.2836 3.11874 22.7265 3.68612 23.1001C4.35037 23.5291 5.2637 23.9304 6.42614 24.1103C7.47786 24.2764 8.70949 24.2487 10.1487 23.9442Z" fill="#B92250"/>
<path d="M9.87127 4.25013C10.8953 4.67913 12.1408 5.6063 13.6353 7.33611C13.6353 7.33611 16.8182 11.1971 19.4475 7.2946C22.2152 3.18457 16.0017 0.665965 16.0017 0.665965C16.0017 0.665965 14.1197 -0.150506 11.8778 0.153941C11.9055 0.153941 11.9194 0.153941 11.9194 0.153941C10.0373 0.928896 9.82975 2.49264 9.87127 4.25013Z" fill="#9271BE"/>
<path d="M9.04091 9.77254C10.1895 8.19495 9.8989 6.10534 9.85738 4.23715C6.99282 3.0332 5.8719 5.71786 5.8719 5.71786C6.38392 4.33402 7.00665 3.26845 7.69858 2.46582C7.03433 3.22694 6.39776 4.25099 5.91341 5.60716C4.23896 10.2569 7.35261 12.0974 9.04091 9.77254Z" fill="#7659A5"/>
<path d="M9.87123 4.25049C9.84355 2.493 10.0511 0.929252 11.9193 0.154297C11.9193 0.154297 11.9055 0.154297 11.8778 0.154297C11.2689 0.237328 10.6462 0.40339 10.0234 0.693998C9.30385 1.03996 8.48738 1.57966 7.71242 2.47916C7.0205 3.28179 6.39777 4.34736 5.88574 5.73121C5.88574 5.73121 7.00666 3.0327 9.87123 4.25049Z" fill="#43277A"/>
<path d="M15.6974 12.818C15.1716 11.6002 13.7739 11.0467 12.5699 11.5587C11.3521 12.0845 10.7986 13.4822 11.3106 14.6862C11.8365 15.904 13.2342 16.4575 14.4381 15.9455C15.6559 15.4334 16.2094 14.0358 15.6974 12.818Z" fill="#FF9B2E"/>
</svg>
