<?xml version="1.0" encoding="utf-8"?>
<!-- Generator: Adobe Illustrator 25.2.3, SVG Export Plug-In . SVG Version: 6.00 Build 0)  -->
<svg version="1.1" id="Layer_1" xmlns="http://www.w3.org/2000/svg" xmlns:xlink="http://www.w3.org/1999/xlink" x="0px" y="0px"
	 viewBox="0 0 500 115.3" style="enable-background:new 0 0 500 115.3;" xml:space="preserve">
<style type="text/css">
	.st0{fill:#EC6B00;}
	.st1{fill:#FFFFFF;}
	.st2{fill:#D1D3D4;}
</style>
<g>
	<path class="st0" d="M129.2,72.5h10.2c0-1.4,0.4-3.2,0.5-4.8l1.8-14.6c0.4-3.1,0.7-6.3,1.2-9.6c0.4-3.3,0.7-6.3,0.7-10.3l1.2,5
		c1,4.1,8.1,25.2,10.2,31.7c0.3,0.8,0.5,1.6,0.8,2.6h6.2c0.5-1.2,1.1-3.2,1.6-4.6c0.5-1.7,1-3,1.5-4.7l8.6-27.3c0,0,0.1-0.6,0.1-0.7
		l1.2,8.8c0.7,5.1,2.9,25.9,3.6,28.4h10.2c0-1.9-0.7-4.3-0.8-6.2l-6.9-44.1H170l-2.9,8.8c-1.8,5.7-7.8,21.8-7.8,26.8h-0.4
		c0-4.3-6.2-21.7-8-26.8c-0.4-1.3-0.8-3-1.2-4.3c-0.5-1.5-1.1-3-1.5-4.5h-11.5C136.6,26.5,129.2,67.8,129.2,72.5"/>
	<path class="st0" d="M259.6,40.2c0,1.7,0.3,2.1,0.3,3.7c-1.8-1.4-3.4-6.5-12.1-6.5c-7.1,0-11.8,4.6-13.7,10.9
		c-3.3,11,1.5,25.5,13.3,25.5c3,0,5.6-0.3,8-1.7c1.6-1,2.2-1.5,3.3-2.9l1-1.3c0,2.9-0.3,3.2-0.3,4.5h9.6V19h-9.3V40.2z M243.3,56.1
		c0-2.9,0.3-5.4,1.9-7.4c3.7-4.7,14.7-4.1,14.7,6v2.3C259.9,67.6,243.3,68.5,243.3,56.1z"/>
	<path class="st0" d="M192.9,55.5c0,5.7,1.5,10.1,4.7,13.4c7.3,7.3,20.7,6.2,26.5-0.3c0.8-1,2.2-2.5,2.5-3.7l-7.8-3.8
		c-2.3,3.4-4.5,4.1-8.6,4.1c-4.3,0-7-3.1-7.3-7.1h25.1c0-1.4,0.3-1.3,0.3-2.3c0-5.5-1.8-10.4-4.5-13.2
		C213.2,32.1,192.9,38,192.9,55.5 M218,52.1h-15c0.1-1.7,1.1-3.6,2.2-4.6C208.5,44.4,217.9,44.9,218,52.1z"/>
	<path class="st1" d="M68.1,32.9v14.7h20v20.1h19.5c0.7,0,1-0.2,1-0.9V54.4c0-4.1-2.5-7.1-6-7.1H88.4V28.1c0-0.6-0.1-0.8-0.8-0.8
		H74.3C71,27.3,68.1,29.6,68.1,32.9"/>
	<path class="st1" d="M7.8,61.7v0.6c0.4,3.1,3.3,5.3,6.5,5.3h13.6v20.1h13.9c3.8,0,6.6-2.6,6.6-6.5V67.4H28.1V47.3H7.8V61.7z"/>
	<path class="st1" d="M48,12.8v14.4H27.9V42c0,3,3,5.6,6,5.6H48V27.5h19.5c0.7,0,0.8-0.2,0.8-0.9V8c0-0.7-0.1-0.9-0.8-0.9H53.9
		C50.9,7.2,48,9.8,48,12.8"/>
	<path class="st1" d="M68.1,87.5H48v19.5c0,0.7,0.1,0.9,0.8,0.9h11.5c4.7,0,8-1.9,8-6.8V87.5h20V73.9c0-1.7-0.7-3.5-1.4-4.4
		c-0.8-1-2.5-2.1-4.3-2.1H68.1V87.5z"/>
	<path class="st2" d="M363.1,97.6c0,5.7,4.1,10.2,10.3,10.5h0.5h0.5c4.9-0.3,9.3-5,9.3-10.2c0-10.7-15-14.2-19.6-4.3
		C363.8,94.3,363.1,96.7,363.1,97.6 M366.6,98.2c0-9.8,13.9-9.7,13.9-0.3c0,6.5-7.8,9.4-11.8,5C367.7,102,366.6,100,366.6,98.2z"/>
	<polygon class="st2" points="342,107.5 345.3,107.5 345.3,98.2 354.3,98.2 354.3,107.5 357.8,107.5 357.8,88.3 354.3,88.3 
		354.3,95.4 345.3,95.4 345.3,88.3 342,88.3 	"/>
	<path class="st2" d="M443.9,107.5h3.3l2.1-4.8h7.6c0.3,1.1,0.5,1.5,1,2.5c0.4,0.9,0.7,1.6,1.1,2.3h3.4l-9.1-20.1
		c-1.2,0.8-7.1,15-8.4,17.4C444.4,105.8,443.9,106.4,443.9,107.5 M452.9,94l2.5,5.9h-4.8C450.7,98.4,452.4,96.2,452.9,94z"/>
	<path class="st2" d="M480.2,92.3V94c0,4.2,8.5,5.4,8.5,7.9c0,4.5-4.5,3.1-5.5,2.3c-0.8-0.9-0.5-0.8-1-1.8c-0.8,0.5-1.8,0.7-2.6,1.1
		c0.3,2.6,2.7,4.2,5.4,4.5h1.6c2.6-0.3,5.2-2,5.5-5.4v-0.8v-0.5c-0.5-5.2-8.5-4.7-8.5-8.6c0-2.8,4.5-3,5.1-0.5
		c1.1-0.1,2.1-0.7,2.9-1.1c-1.4-2.4-2.2-3.4-5.9-3.4C483,87.7,480.2,89.9,480.2,92.3"/>
	<path class="st2" d="M388.9,92.5c0,3.2,0.4,3.9,4,5.9c1.5,0.9,4.5,1.6,4.5,3.9c0,3.2-5.6,3.7-6.6,0c-0.8,0.4-1.6,0.7-2.5,1.1
		c0.3,2.8,2.6,4.3,5.2,4.5h1.2c3.2-0.2,5.9-2.1,5.9-5.9c0-5.7-8.4-6-8.4-8.8c0-1.5,0.1-2.8,2.2-2.8c2.1,0,2.2,1,3.2,1.7
		c1-0.3,1.2-0.9,2.5-1.1c-0.5-1.2-0.8-1.8-1.9-2.5C394.8,86.6,388.9,88,388.9,92.5"/>
	<path class="st2" d="M406.2,107.5h3v-8.5c4,0,8.5-0.3,8.5-5.4c0-6.6-6.5-5.4-11.5-5.4V107.5z M411.3,96.2h-2.1v-5.1h2.6
		c1.4,0,2.5,0.9,2.5,2.3C414.3,95.6,413.4,96.2,411.3,96.2z"/>
	<path class="st1" d="M279.1,54.4c0,3,0.7,6.4,1.6,8.6c3.4,8.7,11.5,10.9,21.3,10.9c13.5,0,20.7-7.4,20.7-20.1V22.2h-10.8v28
		c0,4.3-0.5,7.5-2.2,10.2c-2.9,4.4-12.2,5.9-17.2,0.5c-1.9-1.9-2.6-6-2.6-9.8V22.2h-10.8V54.4z"/>
	<path class="st1" d="M482.8,43.9l-1.9-2.3c-1-1-1.2-1.3-2.5-2.1c-8.2-5.5-22.2-0.3-22.2,14.3v3.4c0,16.5,17,20.5,24.3,13.2
		c0.5-0.6,1.6-1.9,2.1-2.2v4.2h9.6V19h-9.3V43.9z M466.1,55.5c0-4.5,2.5-9.6,7.4-9.6c3.2,0,5.4,0,7.6,2.9c3.3,4.3,3.6,16.3-6.7,16.3
		c-3.8,0-6.6-2.5-7.6-5.7C466.5,58.7,466.1,56.3,466.1,55.5z"/>
	<path class="st1" d="M433.3,73.9c6.3,0,9.9-1.5,13.7-5.3c0.8-0.9,2.3-2.3,2.5-3.7l-7.6-3.8c-1.1,0.8-1.4,1.9-2.9,2.7
		c-3.7,2.1-10.2,2.2-12.5-2.9c-0.4-1-0.4-2-0.8-2.8h22.9c2.9,0.1,2.5,0.5,2.5-3.7c0-20.1-27.3-22.5-33.6-6.6
		c-1.6,3.9-1.9,7.2-1.4,11.6c0.1,1,0.5,2.6,1,3.6C419.7,70.2,425.6,73.9,433.3,73.9 M433.6,45.6c7.1,0,7.1,5.5,7.7,6.5H426
		c0.5-1.3,0.7-4.6,4.5-5.9C431,46,433.1,45.6,433.6,45.6z"/>
	<path class="st1" d="M342.5,43.6v-5.1h-9.6v33.9h9.9V54.4c0-9.7,11.1-10.8,13.3-6c1.6,3.6,1.1,19.3,1.1,24.1h9.9V49.9
		c0-12.7-11.5-14.6-19.5-10.5C345,40.7,344.5,42.3,342.5,43.6"/>
	<polygon class="st1" points="397.5,38.6 392.9,38.6 392.9,46.5 397.5,46.5 397.5,72.5 407.3,72.5 407.3,46.5 412.1,46.5 
		412.1,38.6 407.3,38.6 407.3,27.5 397.5,27.5 	"/>
	<path class="st1" d="M376.7,72.5h9.9V39.4c0-0.7-0.1-0.9-0.8-0.9h-9.1V72.5z"/>
	<path class="st1" d="M375.9,23.9c0,2.1-0.1,3.5,1.8,5.3c3.4,3.3,9.9,0.8,9.7-4.4c-0.1-4.5-5.5-7.6-9.6-4.3
		C377,21,375.9,22.6,375.9,23.9"/>
	<path class="st2" d="M430.5,91.1h4.8v16.4h3.4V91.1c5.8,0,5.1,0.7,5.1-2.8h-13.3V91.1z"/>
	<polygon class="st2" points="466.1,107.5 476.4,107.5 476.4,104.7 469.3,104.7 469.3,88.3 466.1,88.3 	"/>
	<rect x="422.6" y="88.3" class="st2" width="3.4" height="19.2"/>
</g>
</svg>
