<svg width="188" height="68" viewBox="0 0 188 68" fill="none" xmlns="http://www.w3.org/2000/svg">
<path d="M29.432 0.123993L11.5544 10.447H19.2377L19.4356 10.7594L21.1049 13.3611C21.3529 13.28 21.6223 13.2442 21.8989 13.2442C22.6358 13.2442 23.3059 13.5423 23.7876 14.024C24.2764 14.5128 24.5745 15.1829 24.5745 15.9198C24.5745 16.6566 24.2764 17.3338 23.7876 17.8155C23.3059 18.2972 22.6358 18.6025 21.8989 18.6025C21.1621 18.6025 20.4849 18.2972 20.0032 17.8155C19.5143 17.3338 19.2162 16.6638 19.2162 15.9198C19.2162 15.1758 19.5 14.5557 19.9602 14.0764L18.5032 11.7944H9.20796L0.101074 17.0596C0.101074 18.7646 0.151151 20.4434 0.246536 22.0912H9.38204L10.839 19.8162C10.3788 19.3345 10.095 18.6859 10.095 17.9634C10.095 17.2408 10.3931 16.5565 10.882 16.0676C11.3637 15.5859 12.0337 15.2878 12.7777 15.2878C13.5217 15.2878 14.1847 15.5859 14.6735 16.0676C15.1552 16.5565 15.4533 17.2265 15.4533 17.9634C15.4533 18.7002 15.1552 19.3775 14.6735 19.8592C14.1847 20.348 13.5146 20.6461 12.7777 20.6461C12.5011 20.6461 12.2388 20.6032 11.9837 20.5221L10.3144 23.1333L10.1165 23.4456H0.341921C0.451614 24.8311 0.589923 26.1951 0.764 27.5281H11.8668L14.0106 24.1825H23.0722C23.1962 23.7079 23.4442 23.293 23.7733 22.9639C24.2621 22.4751 24.925 22.177 25.669 22.177C26.413 22.177 27.076 22.4751 27.5648 22.9639C28.0537 23.4528 28.3446 24.1157 28.3446 24.8526C28.3446 25.5894 28.0465 26.2666 27.5648 26.7483C27.076 27.2372 26.4059 27.5353 25.669 27.5353C24.4219 27.5353 23.3726 26.6816 23.0746 25.5298H14.757L12.804 28.5702L12.6061 28.8826H0.961924C1.17416 30.2752 1.42216 31.6392 1.70593 32.9722H15.9517C16.0757 32.5048 16.3165 32.0828 16.6528 31.7537C17.1345 31.272 17.8045 30.9667 18.5485 30.9667C19.2925 30.9667 19.9555 31.272 20.4372 31.7537C20.926 32.2354 21.2241 32.9054 21.2241 33.6495C21.2241 34.3935 20.926 35.0564 20.4372 35.5452C19.9555 36.0269 19.2854 36.325 18.5485 36.325C17.8117 36.325 17.1345 36.0269 16.6528 35.5452C16.3165 35.209 16.0757 34.7941 15.9517 34.3267H2.01116C2.34739 35.7193 2.71939 37.0833 3.14147 38.4092H12.6037L12.8016 38.7215L14.7546 41.762H23.0722C23.3703 40.6102 24.4219 39.7636 25.6667 39.7636C26.4035 39.7636 27.0736 40.0617 27.5624 40.5434C28.0441 41.0323 28.3422 41.7023 28.3422 42.4392C28.3422 43.176 28.0441 43.8461 27.5624 44.335C27.0736 44.8167 26.4035 45.1219 25.6667 45.1219C24.9298 45.1219 24.2597 44.8167 23.7709 44.335C23.4418 43.9987 23.1938 43.5838 23.0698 43.1164H14.0082L11.8644 39.7636H3.58501C4.05955 41.1634 4.59132 42.5346 5.15887 43.8533H10.1165L10.3144 44.1657L11.9837 46.7673C12.2388 46.6934 12.5011 46.6504 12.7777 46.6504C13.5146 46.6504 14.1847 46.9485 14.6735 47.4374C15.1552 47.9191 15.4533 48.5891 15.4533 49.326C15.4533 50.0628 15.1552 50.7401 14.6735 51.2218C14.1847 51.7106 13.5146 52.0087 12.7777 52.0087C12.0409 52.0087 11.3637 51.7106 10.882 51.2218C10.3931 50.7401 10.095 50.07 10.095 49.326C10.095 48.582 10.3788 47.962 10.839 47.4827L9.38204 45.2077H5.7741C7.30503 48.4675 9.13404 51.4698 11.242 54.1835H19.1876C19.3116 53.7161 19.5596 53.3012 19.8887 52.9649C20.3776 52.4832 21.0405 52.1852 21.7845 52.1852C22.5285 52.1852 23.1914 52.4832 23.6803 52.9649C24.162 53.4538 24.46 54.1238 24.46 54.8607C24.46 55.5975 24.162 56.2676 23.6803 56.7565C23.1914 57.2382 22.5213 57.5434 21.7845 57.5434C21.0476 57.5434 20.3776 57.2382 19.8887 56.7565C19.5596 56.4202 19.3116 56.0053 19.1876 55.5379H12.3414C16.8841 60.932 22.6215 65.1027 29.4296 67.8665" fill="url(#paint0_linear_907_928)"/>
<path d="M59.5689 16.8498L30.3429 0L30.443 68C63.0934 54.7701 59.5689 16.8498 59.5689 16.8498ZM37.8092 37.0476C38.2789 38.2828 38.9252 39.3296 39.7479 40.1857C40.5706 41.0418 41.5411 41.6952 42.6595 42.1483C43.7779 42.6013 44.9917 42.8279 46.3008 42.8279C47.083 42.8279 47.8389 42.6777 48.5662 42.3748C49.2935 42.072 49.9684 41.6785 50.5884 41.192C51.2084 40.7056 51.7664 40.1571 52.2576 39.5466C52.7488 38.9362 53.1518 38.3186 53.4666 37.6914L55.0429 38.6977C54.585 39.4465 54.0413 40.1666 53.4165 40.8534C52.7894 41.5402 52.0668 42.1507 51.2441 42.6824C50.4214 43.2142 49.4938 43.6363 48.4589 43.9487C47.424 44.261 46.2698 44.4184 44.994 44.4184C43.1483 44.4184 41.4719 44.1108 39.9696 43.4956C38.4649 42.8803 37.1748 42.0481 36.1018 40.9965C35.0287 39.9449 34.1965 38.7168 33.6098 37.3146C33.0232 35.9101 32.7299 34.4268 32.7299 32.8601C32.7299 31.8205 32.8634 30.8046 33.1329 29.815C33.4024 28.8254 33.7887 27.8977 34.299 27.0297C34.8069 26.1641 35.4293 25.3677 36.1614 24.6475C36.8935 23.925 37.7209 23.305 38.6438 22.7851C39.5666 22.2653 40.5753 21.8623 41.6723 21.5761C42.7692 21.2899 43.9376 21.1493 45.18 21.1493C46.4224 21.1493 47.4597 21.309 48.4613 21.6286C49.4628 21.9481 50.3738 22.3702 51.1965 22.8948C52.0191 23.4218 52.7512 24.0275 53.3951 24.7143C54.0389 25.401 54.5898 26.1212 55.0476 26.87L53.4213 27.943C52.4937 26.1427 51.4516 24.824 50.2998 23.9917C49.1481 23.1595 47.8222 22.7422 46.3223 22.7422C45.0346 22.7422 43.8327 22.9759 42.7143 23.448C41.5959 23.9178 40.6206 24.5879 39.786 25.4607C38.9514 26.3334 38.298 27.3922 37.8235 28.6394C37.3489 29.8865 37.1105 31.2934 37.1105 32.8601C37.1105 34.4268 37.3442 35.8099 37.8163 37.0476H37.8092Z" fill="url(#paint1_linear_907_928)"/>
<path d="M61.4694 47.28C61.5744 47.3229 61.6888 47.3802 61.8128 47.4493C61.9392 47.5185 62.0775 47.5852 62.2277 47.6496C62.378 47.714 62.5449 47.7689 62.7285 47.8118C62.9097 47.8547 63.1148 47.8762 63.339 47.8762C63.6156 47.8762 63.8755 47.7975 64.1187 47.6425C64.362 47.4875 64.5814 47.2919 64.7817 47.0582C64.9796 46.8245 65.1584 46.5694 65.3134 46.2928C65.4684 46.0162 65.5996 45.7562 65.7021 45.513L66.5988 43.5123L59.8073 30.838H62.8072L67.9246 40.4481L72.1192 30.838H73.5356L66.7442 46.474C66.4581 47.1226 66.1314 47.6854 65.7641 48.1623C65.3969 48.6392 65.0034 49.0327 64.5885 49.3451C64.1736 49.6575 63.7444 49.8888 63.3032 50.039C62.862 50.1893 62.4328 50.2656 62.0179 50.2656C61.7055 50.2656 61.4027 50.2179 61.1093 50.1225C60.816 50.0271 60.568 49.9007 60.3701 49.7457L61.4742 47.2776L61.4694 47.28Z" fill="#4D4E4E"/>
<path d="M76.1039 24.8001L77.9734 24.0585H78.7532V33.3442C78.9702 32.9722 79.254 32.6169 79.6045 32.2783C79.9551 31.9397 80.3366 31.6488 80.7467 31.4008C81.1569 31.1528 81.5861 30.9572 82.0321 30.8094C82.478 30.6615 82.9048 30.5876 83.3102 30.5876C84.0805 30.5876 84.7911 30.7426 85.4397 31.055C86.0883 31.3674 86.6463 31.7918 87.1161 32.3284C87.5835 32.8649 87.9483 33.4897 88.213 34.2051C88.4777 34.9181 88.6089 35.6836 88.6089 36.4967C88.6089 37.596 88.4157 38.6262 88.0318 39.5872C87.6455 40.5482 87.1185 41.3852 86.4484 42.1006C85.7783 42.816 84.9914 43.3811 84.0924 43.7961C83.1934 44.211 82.23 44.4184 81.2094 44.4184C80.1887 44.4184 79.2945 44.2897 78.4241 44.0297C77.5537 43.7698 76.7811 43.3764 76.1063 42.847V24.7954L76.1039 24.8001ZM78.7532 41.967C78.9177 42.122 79.0966 42.2842 79.2921 42.4464C79.4877 42.6109 79.7047 42.7611 79.9479 42.8947C80.1911 43.0282 80.4606 43.1379 80.7587 43.219C81.0567 43.3024 81.393 43.343 81.765 43.343C82.3802 43.343 82.9382 43.1927 83.4414 42.8947C83.9445 42.5966 84.3738 42.1817 84.7338 41.6475C85.0939 41.1157 85.3705 40.4838 85.5661 39.7517C85.7616 39.0196 85.8594 38.2208 85.8594 37.3552C85.8594 36.697 85.7568 36.0818 85.5542 35.5047C85.3515 34.93 85.0748 34.4269 84.7219 33.9976C84.3714 33.5684 83.9588 33.2322 83.4891 32.9842C83.0169 32.7362 82.5138 32.6145 81.9772 32.6145C81.6744 32.6145 81.3644 32.6575 81.0496 32.7433C80.7348 32.8292 80.432 32.946 80.1482 33.0939C79.8644 33.2417 79.5974 33.411 79.3565 33.6065C79.1133 33.8021 78.9154 34.0119 78.7604 34.2361V41.9623L78.7532 41.967Z" fill="#4D4E4E"/>
<path d="M97.9876 44.4232C97.0862 44.4232 96.242 44.2539 95.448 43.9177C94.6563 43.579 93.9647 43.1212 93.3757 42.5417C92.7867 41.9623 92.3217 41.2803 91.9807 40.4957C91.6397 39.7112 91.468 38.8789 91.468 37.9966C91.468 36.9307 91.623 35.9482 91.9354 35.0421C92.2478 34.1383 92.6889 33.3562 93.2589 32.698C93.8312 32.0398 94.5156 31.5248 95.3168 31.1528C96.118 30.7808 97.0123 30.5948 97.9995 30.5948C98.8651 30.5948 99.6616 30.7498 100.389 31.055C101.116 31.3626 101.741 31.7728 102.266 32.2878C102.79 32.8029 103.196 33.3991 103.487 34.0739C103.777 34.7488 103.921 35.4546 103.921 36.1915H94.0124C94.0124 37.0833 94.1269 37.9108 94.3558 38.6715C94.5847 39.4322 94.9067 40.0903 95.324 40.646C95.7389 41.1992 96.2325 41.6332 96.8048 41.9456C97.3771 42.258 98.0043 42.413 98.6887 42.413C99.261 42.413 99.8094 42.32 100.339 42.134C100.866 41.948 101.345 41.7047 101.774 41.3995C102.204 41.0943 102.568 40.7509 102.871 40.3598C103.174 39.9711 103.386 39.5681 103.508 39.1532L104.273 39.4918C104.083 40.1762 103.775 40.8153 103.351 41.4138C102.926 42.01 102.43 42.5322 101.863 42.9781C101.295 43.424 100.68 43.777 100.012 44.0369C99.3444 44.2968 98.6696 44.4256 97.9852 44.4256L97.9876 44.4232ZM100.611 35.1255C100.611 34.6224 100.522 34.155 100.344 33.7234C100.165 33.2918 99.9215 32.9174 99.6091 32.6002C99.2967 32.2855 98.9343 32.0351 98.5194 31.8538C98.1044 31.6726 97.6585 31.582 97.1816 31.582C96.7833 31.582 96.4018 31.6702 96.0393 31.8491C95.6745 32.0255 95.3502 32.2735 95.0664 32.5883C94.7803 32.9055 94.5442 33.2798 94.3582 33.7115C94.1722 34.1455 94.0625 34.6129 94.0267 35.1136L100.611 35.1255Z" fill="#4D4E4E"/>
<path d="M109.92 30.5924H110.323L110.674 33.3061C110.881 32.9079 111.141 32.543 111.454 32.2163C111.766 31.8872 112.109 31.6011 112.486 31.3602C112.863 31.117 113.261 30.9286 113.681 30.7951C114.101 30.6615 114.527 30.5948 114.959 30.5948C115.348 30.5948 115.732 30.6472 116.108 30.7498C116.485 30.8523 116.838 31.0168 117.167 31.2434L116.335 33.4635C116.161 33.2727 115.98 33.1201 115.789 33.0032C115.598 32.8864 115.403 32.7958 115.205 32.7314C115.007 32.667 114.802 32.6265 114.594 32.6074C114.387 32.5907 114.179 32.5812 113.972 32.5812C113.643 32.5812 113.321 32.6288 113.004 32.7242C112.686 32.8196 112.386 32.9603 112.1 33.1463C111.814 33.3323 111.549 33.5708 111.308 33.8617C111.065 34.1526 110.853 34.4912 110.671 34.8823V44.1418H108.036V31.3245L109.92 30.5971V30.5924Z" fill="#4D4E4E"/>
<path d="M122.523 25.0672L128.22 39.5657L133.225 26.4765L138.388 39.623L143.954 25.0672H145.506L138.171 44.2968H137.222L132.505 32.4023L127.989 44.2968H126.896L119.316 25.0672H122.523Z" fill="#4D4E4E"/>
<path d="M156.134 44.1394C155.789 43.9677 155.495 43.7221 155.257 43.405C155.018 43.0902 154.899 42.7277 154.899 42.32C154.587 42.5537 154.281 42.7969 153.983 43.0473C153.685 43.2977 153.361 43.5266 153.01 43.7293C152.66 43.932 152.271 44.0989 151.842 44.23C151.413 44.3588 150.917 44.4256 150.354 44.4256C149.834 44.4256 149.364 44.3397 148.945 44.1728C148.525 44.0035 148.17 43.7722 147.879 43.4789C147.588 43.1856 147.364 42.835 147.204 42.4273C147.044 42.0195 146.963 41.5831 146.963 41.1157C146.963 40.5434 147.075 40.0283 147.302 39.5705C147.526 39.1126 147.836 38.7025 148.229 38.3424C148.623 37.9823 149.081 37.6628 149.6 37.3814C150.12 37.1 150.673 36.8496 151.263 36.6279C151.852 36.4061 152.457 36.2105 153.08 36.0365C153.702 35.8648 154.308 35.7026 154.897 35.5572V34.7249C154.897 34.1192 154.854 33.6089 154.768 33.1916C154.682 32.7767 154.546 32.4405 154.365 32.1853C154.184 31.9301 153.952 31.7489 153.671 31.6392C153.39 31.5319 153.053 31.4771 152.665 31.4771C152.276 31.4771 151.949 31.551 151.639 31.6988C151.327 31.8467 151.053 32.0422 150.814 32.2902C150.576 32.5382 150.38 32.8268 150.23 33.1606C150.077 33.4945 149.977 33.8474 149.925 34.2194H147.509C147.578 33.6471 147.776 33.1368 148.1 32.6861C148.425 32.2354 148.835 31.8562 149.329 31.5486C149.822 31.241 150.383 31.0049 151.01 30.8404C151.637 30.6758 152.288 30.5948 152.965 30.5948C153.831 30.5948 154.558 30.6782 155.147 30.8475C155.736 31.0168 156.208 31.2529 156.564 31.5558C156.919 31.8586 157.172 32.2282 157.324 32.667C157.474 33.1034 157.551 33.5875 157.551 34.1145V42.3223C157.551 42.7301 157.67 43.0902 157.908 43.4074C158.147 43.7245 158.438 43.9677 158.786 44.1418H156.137L156.134 44.1394ZM154.901 36.3989C154.52 36.5206 154.126 36.6589 153.719 36.8139C153.311 36.9689 152.913 37.1453 152.524 37.3409C152.135 37.5364 151.761 37.7462 151.408 37.9704C151.053 38.1969 150.74 38.4378 150.473 38.6977C150.204 38.9576 149.991 39.2295 149.836 39.5156C149.681 39.8018 149.603 40.0999 149.603 40.4123C149.603 40.7413 149.662 41.0513 149.784 41.3399C149.906 41.6308 150.065 41.886 150.263 42.1053C150.461 42.3271 150.693 42.4988 150.952 42.6252C151.212 42.7516 151.479 42.8136 151.758 42.8136C152.052 42.8136 152.333 42.7754 152.603 42.6967C152.87 42.618 153.13 42.5131 153.382 42.3796C153.633 42.246 153.883 42.091 154.136 41.9193C154.386 41.7477 154.642 41.5593 154.901 41.3613V36.4013V36.3989Z" fill="#4D4E4E"/>
<path d="M165.835 43.5027C166.19 43.5027 166.519 43.4479 166.822 43.3406C167.125 43.2333 167.387 43.0878 167.607 42.9066C167.828 42.7253 167.998 42.5155 168.119 42.277C168.241 42.0386 168.301 41.7953 168.301 41.5426C168.301 41.1348 168.198 40.7795 167.995 40.4766C167.793 40.1738 167.523 39.9043 167.189 39.6659C166.856 39.4274 166.476 39.208 166.052 39.0101C165.627 38.8098 165.196 38.6047 164.752 38.3925C164.311 38.1803 163.877 37.9561 163.453 37.7176C163.028 37.4792 162.649 37.2002 162.315 36.8806C161.981 36.5611 161.714 36.1915 161.509 35.7694C161.307 35.3497 161.204 34.8585 161.204 34.2957C161.204 33.7687 161.316 33.2751 161.543 32.822C161.767 32.3689 162.082 31.9755 162.485 31.6464C162.888 31.3173 163.364 31.0598 163.92 30.8738C164.473 30.6878 165.079 30.5948 165.737 30.5948C166.178 30.5948 166.591 30.6258 166.97 30.6854C167.352 30.745 167.726 30.8618 168.093 31.0359C168.46 31.21 168.828 31.458 169.19 31.7823C169.553 32.1066 169.939 32.5287 170.347 33.0485L169.374 33.9189C168.871 33.0962 168.31 32.4834 167.693 32.0804C167.073 31.6774 166.414 31.4771 165.711 31.4771C165.329 31.4771 164.984 31.5224 164.671 31.613C164.359 31.7036 164.094 31.83 163.872 31.9898C163.651 32.1495 163.479 32.3379 163.353 32.5549C163.226 32.7719 163.164 33.0008 163.164 33.2441C163.164 33.6423 163.274 33.9881 163.496 34.2838C163.717 34.5771 164.008 34.8442 164.373 35.0826C164.736 35.3211 165.151 35.5405 165.613 35.7384C166.076 35.9387 166.548 36.1414 167.03 36.3489C167.509 36.5563 167.981 36.7805 168.446 37.0237C168.909 37.2669 169.324 37.5459 169.686 37.8607C170.049 38.1779 170.342 38.5427 170.564 38.9576C170.785 39.3726 170.895 39.859 170.895 40.4123C170.895 40.9655 170.79 41.502 170.583 41.9909C170.375 42.4797 170.06 42.9042 169.641 43.2643C169.221 43.6244 168.694 43.9081 168.062 44.1156C167.43 44.323 166.686 44.428 165.828 44.428C165.439 44.428 165.038 44.397 164.626 44.3374C164.216 44.2777 163.801 44.1585 163.386 43.9797C162.971 43.8032 162.554 43.5528 162.139 43.2333C161.724 42.9137 161.316 42.494 160.918 41.9742L161.996 41.0013C162.315 41.452 162.623 41.8335 162.919 42.1507C163.212 42.4678 163.515 42.7277 163.822 42.9304C164.13 43.1331 164.445 43.281 164.771 43.3716C165.096 43.4622 165.449 43.5075 165.83 43.5075L165.835 43.5027Z" fill="#4D4E4E"/>
<path d="M176.561 30.5948H177.315V33.5827C177.582 33.2441 177.88 32.8983 178.204 32.543C178.528 32.1877 178.888 31.8658 179.282 31.5748C179.675 31.2839 180.112 31.0478 180.586 30.8666C181.063 30.6854 181.581 30.5948 182.143 30.5948C182.93 30.5948 183.646 30.7593 184.287 31.0884C184.929 31.4175 185.475 31.8634 185.93 32.4261C186.386 32.9889 186.736 33.6495 186.982 34.4054C187.23 35.1637 187.351 35.9697 187.351 36.8282C187.351 37.9275 187.199 38.9433 186.896 39.8733C186.593 40.8033 186.159 41.607 185.596 42.2818C185.034 42.9567 184.349 43.4837 183.546 43.8604C182.74 44.2372 181.841 44.4256 180.844 44.4256C180.481 44.4256 180.14 44.4065 179.826 44.366C179.508 44.3278 179.21 44.2682 178.929 44.1919C178.648 44.1132 178.376 44.0154 178.111 43.8938C177.846 43.7722 177.582 43.6267 177.312 43.4527V49.7385H174.663V31.3364L176.559 30.5971L176.561 30.5948ZM177.315 40.5553C177.315 40.9536 177.4 41.328 177.574 41.6785C177.749 42.029 177.989 42.3367 178.302 42.6013C178.614 42.866 178.986 43.0735 179.418 43.2261C179.849 43.3764 180.326 43.4527 180.846 43.4527C181.366 43.4527 181.805 43.3263 182.241 43.0759C182.678 42.8255 183.059 42.4678 183.383 42.0052C183.708 41.5426 183.963 40.9893 184.149 40.3503C184.335 39.7088 184.428 39.0006 184.428 38.2208C184.428 37.2431 184.342 36.387 184.168 35.6549C183.994 34.9229 183.755 34.3148 183.448 33.8307C183.14 33.3466 182.778 32.9818 182.358 32.7409C181.938 32.4977 181.478 32.3785 180.975 32.3785C180.593 32.3785 180.229 32.4357 179.878 32.5525C179.527 32.6694 179.196 32.8268 178.884 33.0271C178.571 33.225 178.285 33.4563 178.02 33.7138C177.756 33.9738 177.52 34.2456 177.312 34.5318V40.5577L177.315 40.5553Z" fill="#4D4E4E"/>
<path d="M61.4742 57.8987L62.2015 57.8343C62.2349 58.1252 62.316 58.3637 62.4423 58.5497C62.5687 58.7357 62.7643 58.8859 63.029 59.0028C63.2937 59.1173 63.5917 59.1745 63.9232 59.1745C64.2165 59.1745 64.4764 59.1316 64.7006 59.0433C64.9247 58.9551 65.094 58.8359 65.2037 58.6833C65.3134 58.5306 65.3683 58.3661 65.3683 58.1849C65.3683 58.0036 65.3158 57.8439 65.2085 57.7056C65.1012 57.5672 64.9271 57.4552 64.6839 57.3622C64.5289 57.3002 64.1831 57.2072 63.649 57.0784C63.1148 56.9496 62.7404 56.828 62.5258 56.7159C62.2468 56.5705 62.0417 56.3892 61.9058 56.1746C61.7699 55.96 61.7007 55.7168 61.7007 55.4497C61.7007 55.1564 61.7842 54.8822 61.9511 54.627C62.118 54.3718 62.3613 54.1787 62.6808 54.0452C63.0003 53.914 63.358 53.8472 63.7491 53.8472C64.1807 53.8472 64.5599 53.9164 64.889 54.0547C65.218 54.193 65.4708 54.3981 65.6497 54.6675C65.8285 54.937 65.9215 55.2422 65.9358 55.5856L65.1966 55.6405C65.156 55.2732 65.0225 54.9942 64.7936 54.8058C64.5647 54.6175 64.226 54.5245 63.7801 54.5245C63.3342 54.5245 62.9741 54.6103 62.7619 54.7796C62.5496 54.9489 62.4423 55.1564 62.4423 55.3972C62.4423 55.6071 62.5187 55.7788 62.6689 55.9123C62.8167 56.0482 63.203 56.1865 63.8302 56.3272C64.455 56.4679 64.8842 56.5919 65.1179 56.6992C65.4565 56.8542 65.7069 57.0522 65.869 57.293C66.0312 57.5315 66.1123 57.8081 66.1123 58.1205C66.1123 58.4329 66.0241 58.7214 65.8452 58.9956C65.6687 59.2699 65.4136 59.4821 65.0821 59.6347C64.7507 59.7873 64.3763 59.8636 63.9613 59.8636C63.4343 59.8636 62.9932 59.7873 62.6379 59.6347C62.2826 59.4821 62.0036 59.2508 61.8009 58.9432C61.5982 58.6356 61.4909 58.2874 61.4813 57.8963L61.4742 57.8987Z" fill="#979797"/>
<path d="M73.2042 58.409L73.9434 58.4997C73.8266 58.9313 73.612 59.2651 73.2972 59.5036C72.9824 59.7421 72.5794 59.8613 72.0906 59.8613C71.4729 59.8613 70.9841 59.6705 70.624 59.2914C70.2615 58.9122 70.0827 58.378 70.0827 57.6937C70.0827 57.0093 70.2663 56.4346 70.6312 56.0435C70.996 55.6524 71.4706 55.4569 72.0524 55.4569C72.6343 55.4569 73.0754 55.6476 73.4331 56.0316C73.7908 56.4155 73.9696 56.9544 73.9696 57.6507C73.9696 57.6937 73.9696 57.7557 73.9649 57.8415H70.8219C70.8482 58.3041 70.9793 58.6594 71.2154 58.905C71.4515 59.1507 71.7448 59.2747 72.0977 59.2747C72.36 59.2747 72.5842 59.2055 72.7678 59.0672C72.9538 58.9289 73.0993 58.7095 73.2089 58.409H73.2042ZM70.8577 57.2549H73.2113C73.1803 56.8996 73.0897 56.6349 72.9419 56.456C72.7153 56.1818 72.4196 56.0435 72.0572 56.0435C71.7281 56.0435 71.4539 56.1532 71.2297 56.3726C71.0056 56.592 70.8816 56.8853 70.8577 57.2525V57.2549Z" fill="#979797"/>
<path d="M80.8421 58.223L81.5456 58.3137C81.4692 58.7977 81.2713 59.1769 80.9565 59.4511C80.6418 59.7254 80.2531 59.8613 79.7905 59.8613C79.2134 59.8613 78.7508 59.6729 78.4002 59.2961C78.0497 58.9194 77.8732 58.378 77.8732 57.6746C77.8732 57.2191 77.9495 56.8209 78.0998 56.4799C78.25 56.1389 78.4789 55.8813 78.7889 55.712C79.0965 55.5427 79.4328 55.4569 79.7952 55.4569C80.2531 55.4569 80.6275 55.5737 80.9184 55.805C81.2093 56.0363 81.3953 56.3654 81.4788 56.7923L80.7849 56.8996C80.7181 56.6158 80.6012 56.4036 80.4343 56.2605C80.265 56.1174 80.0623 56.0459 79.8239 56.0459C79.4638 56.0459 79.1729 56.1747 78.9463 56.4322C78.7222 56.6897 78.6101 57.0975 78.6101 57.6555C78.6101 58.2135 78.7174 58.6332 78.9344 58.8907C79.1514 59.1483 79.4352 59.2747 79.7833 59.2747C80.0647 59.2747 80.2984 59.1888 80.4868 59.0171C80.6752 58.8454 80.7944 58.5807 80.8445 58.223H80.8421Z" fill="#979797"/>
<path d="M88.1701 59.7683V59.1483C87.841 59.6252 87.395 59.8637 86.8323 59.8637C86.5843 59.8637 86.3506 59.816 86.136 59.7206C85.919 59.6252 85.7592 59.506 85.6567 59.3605C85.5517 59.2174 85.4778 59.0386 85.4373 58.8311C85.4087 58.6904 85.3943 58.4687 85.3943 58.1634V55.5523H86.1097V57.8892C86.1097 58.2612 86.124 58.514 86.1527 58.6428C86.198 58.8311 86.2934 58.979 86.4388 59.0863C86.5843 59.1936 86.7655 59.2461 86.9777 59.2461C87.19 59.2461 87.3927 59.1912 87.5811 59.0815C87.7694 58.9718 87.903 58.8216 87.9793 58.6332C88.058 58.4448 88.0961 58.1706 88.0961 57.8105V55.5523H88.8115V59.7683H88.1724H88.1701Z" fill="#979797"/>
<path d="M93.1706 59.7683V55.5523H93.8145V56.1913C93.979 55.8933 94.1292 55.6953 94.2699 55.6C94.4082 55.5046 94.5609 55.4569 94.7278 55.4569C94.9686 55.4569 95.2142 55.5332 95.4622 55.6882L95.2166 56.3511C95.0426 56.2486 94.8685 56.1961 94.692 56.1961C94.5346 56.1961 94.3963 56.2438 94.2723 56.3368C94.1483 56.4298 94.0601 56.561 94.0076 56.7279C93.9289 56.983 93.8884 57.2597 93.8884 57.5625V59.7683H93.173H93.1706Z" fill="#979797"/>
<path d="M99.1417 54.7701V53.9474H99.8571V54.7701H99.1417ZM99.1417 59.7683V55.5522H99.8571V59.7683H99.1417Z" fill="#979797"/>
<path d="M105.754 59.1292L105.857 59.7611C105.657 59.804 105.475 59.8255 105.318 59.8255C105.058 59.8255 104.858 59.7849 104.715 59.7015C104.572 59.6204 104.471 59.5107 104.414 59.3772C104.357 59.2436 104.326 58.9622 104.326 58.533V56.1078H103.801V55.5522H104.326V54.5078L105.037 54.0785V55.5498H105.754V56.1055H105.037V58.5712C105.037 58.7738 105.048 58.905 105.075 58.9646C105.099 59.0219 105.141 59.0695 105.199 59.1029C105.256 59.1363 105.337 59.1554 105.442 59.1554C105.521 59.1554 105.626 59.1459 105.757 59.1268L105.754 59.1292Z" fill="#979797"/>
<path d="M109.675 61.3898L109.596 60.7197C109.751 60.7627 109.889 60.7841 110.004 60.7841C110.163 60.7841 110.29 60.7579 110.385 60.7054C110.481 60.653 110.559 60.579 110.619 60.4836C110.664 60.4121 110.736 60.2356 110.838 59.9519C110.853 59.9113 110.872 59.8541 110.903 59.7778L109.303 55.5546H110.073L110.95 57.9965C111.065 58.3065 111.165 58.6308 111.256 58.9718C111.337 58.6427 111.434 58.3232 111.549 58.0108L112.45 55.5546H113.166L111.561 59.8422C111.389 60.3048 111.256 60.6243 111.16 60.7984C111.034 61.0345 110.888 61.2062 110.724 61.3159C110.559 61.4256 110.364 61.4804 110.137 61.4804C109.999 61.4804 109.846 61.4518 109.677 61.3922L109.675 61.3898Z" fill="#979797"/>
<path d="M122.361 57.8987L123.088 57.8343C123.122 58.1252 123.203 58.3637 123.329 58.5497C123.455 58.7357 123.651 58.8859 123.913 59.0028C124.176 59.1196 124.476 59.1745 124.807 59.1745C125.101 59.1745 125.361 59.1316 125.585 59.0433C125.809 58.9551 125.978 58.8359 126.088 58.6833C126.198 58.5306 126.253 58.3661 126.253 58.1849C126.253 58.0036 126.2 57.8439 126.093 57.7056C125.985 57.5672 125.811 57.4552 125.568 57.3622C125.411 57.3002 125.067 57.2072 124.533 57.0784C123.999 56.9496 123.625 56.828 123.41 56.7159C123.131 56.5705 122.926 56.3892 122.79 56.1746C122.654 55.96 122.585 55.7168 122.585 55.4497C122.585 55.1564 122.668 54.8822 122.835 54.627C123.002 54.3718 123.246 54.1787 123.565 54.0452C123.885 53.914 124.242 53.8472 124.633 53.8472C125.065 53.8472 125.444 53.9164 125.776 54.0547C126.105 54.193 126.358 54.3981 126.536 54.6675C126.715 54.937 126.808 55.2422 126.822 55.5856L126.083 55.6405C126.043 55.2732 125.909 54.9942 125.68 54.8058C125.451 54.6175 125.113 54.5245 124.667 54.5245C124.221 54.5245 123.861 54.6103 123.649 54.7796C123.436 54.9489 123.329 55.1564 123.329 55.3972C123.329 55.6071 123.405 55.7788 123.556 55.9123C123.703 56.0482 124.09 56.1865 124.717 56.3272C125.342 56.4679 125.771 56.5919 126.005 56.6992C126.343 56.8542 126.594 57.0522 126.756 57.293C126.918 57.5315 126.997 57.8081 126.997 58.1205C126.997 58.4329 126.908 58.7214 126.732 58.9956C126.555 59.2699 126.3 59.4821 125.969 59.6347C125.637 59.7873 125.263 59.8636 124.848 59.8636C124.321 59.8636 123.88 59.7873 123.525 59.6347C123.169 59.4821 122.89 59.2508 122.688 58.9432C122.485 58.6356 122.378 58.2874 122.368 57.8963L122.361 57.8987Z" fill="#979797"/>
<path d="M131.208 54.7701V53.9474H131.923V54.7701H131.208ZM131.208 59.7683V55.5522H131.923V59.7683H131.208Z" fill="#979797"/>
<path d="M136.263 59.7683V55.5523H136.902V56.1437C137.033 55.9362 137.21 55.7717 137.429 55.6453C137.649 55.5189 137.899 55.4569 138.18 55.4569C138.493 55.4569 138.748 55.5213 138.948 55.6524C139.149 55.7812 139.289 55.9624 139.37 56.1961C139.704 55.7049 140.138 55.4569 140.672 55.4569C141.09 55.4569 141.412 55.5737 141.636 55.805C141.86 56.0363 141.972 56.394 141.972 56.8757V59.7683H141.261V57.1142C141.261 56.828 141.238 56.623 141.192 56.4966C141.147 56.3702 141.061 56.27 140.939 56.1937C140.818 56.1174 140.675 56.0793 140.51 56.0793C140.215 56.0793 139.969 56.177 139.771 56.375C139.575 56.5729 139.478 56.8877 139.478 57.3217V59.7707H138.762V57.0331C138.762 56.716 138.705 56.4775 138.588 56.3177C138.471 56.158 138.281 56.0793 138.016 56.0793C137.816 56.0793 137.63 56.1317 137.458 56.239C137.286 56.3463 137.165 56.499 137.086 56.704C137.01 56.9067 136.971 57.2024 136.971 57.584V59.7707H136.256L136.263 59.7683Z" fill="#979797"/>
<path d="M146.286 61.3827V55.5523H146.937V56.1007C147.089 55.8861 147.263 55.7263 147.457 55.619C147.65 55.5117 147.883 55.4593 148.16 55.4593C148.52 55.4593 148.837 55.5523 149.112 55.7383C149.386 55.9243 149.593 56.1842 149.734 56.5228C149.875 56.859 149.944 57.231 149.944 57.6316C149.944 58.0633 149.868 58.452 149.713 58.7977C149.558 59.1435 149.333 59.4082 149.038 59.5918C148.742 59.7754 148.432 59.8684 148.108 59.8684C147.869 59.8684 147.657 59.8184 147.466 59.7182C147.275 59.618 147.12 59.4917 146.999 59.3367V61.3874H146.283L146.286 61.3827ZM146.932 57.6841C146.932 58.2278 147.042 58.6284 147.261 58.886C147.48 59.1459 147.748 59.2747 148.06 59.2747C148.372 59.2747 148.649 59.1411 148.876 58.8717C149.102 58.6022 149.214 58.1873 149.214 57.6221C149.214 57.057 149.104 56.6826 148.883 56.4155C148.661 56.1484 148.399 56.0149 148.091 56.0149C147.783 56.0149 147.516 56.158 147.283 56.4417C147.049 56.7255 146.932 57.1404 146.932 57.6817V57.6841Z" fill="#979797"/>
<path d="M154.041 59.7683V53.9498H154.756V59.7683H154.041Z" fill="#979797"/>
<path d="M159.12 54.7701V53.9474H159.835V54.7701H159.12ZM159.12 59.7683V55.5522H159.835V59.7683H159.12Z" fill="#979797"/>
<path d="M164.342 59.7682V56.1078H163.71V55.5522H164.342V55.1039C164.342 54.8202 164.368 54.6103 164.418 54.472C164.488 54.286 164.609 54.1358 164.781 54.0213C164.953 53.9068 165.198 53.8496 165.508 53.8496C165.709 53.8496 165.933 53.8735 166.176 53.9211L166.069 54.5435C165.921 54.5173 165.78 54.503 165.649 54.503C165.432 54.503 165.279 54.5483 165.189 54.6413C165.098 54.7343 165.053 54.906 165.053 55.1612V55.5498H165.875V56.1055H165.053V59.7659H164.342V59.7682Z" fill="#979797"/>
<path d="M169.686 54.7701V53.9474H170.401V54.7701H169.686ZM169.686 59.7683V55.5522H170.401V59.7683H169.686Z" fill="#979797"/>
<path d="M177.625 58.409L178.364 58.4997C178.247 58.9313 178.032 59.2651 177.718 59.5036C177.403 59.7421 177 59.8613 176.511 59.8613C175.893 59.8613 175.404 59.6705 175.044 59.2914C174.682 58.9122 174.503 58.378 174.503 57.6937C174.503 57.0093 174.687 56.4346 175.052 56.0435C175.416 55.6524 175.891 55.4569 176.473 55.4569C177.055 55.4569 177.496 55.6476 177.853 56.0316C178.211 56.4155 178.39 56.9544 178.39 57.6507C178.39 57.6937 178.39 57.7557 178.385 57.8415H175.242C175.269 58.3041 175.4 58.6594 175.636 58.905C175.872 59.1507 176.165 59.2747 176.518 59.2747C176.78 59.2747 177.005 59.2055 177.188 59.0672C177.374 58.9289 177.52 58.7095 177.629 58.409H177.625ZM175.278 57.2549H177.632C177.601 56.8996 177.51 56.6349 177.362 56.456C177.136 56.1818 176.84 56.0435 176.478 56.0435C176.148 56.0435 175.874 56.1532 175.65 56.3726C175.426 56.592 175.302 56.8853 175.278 57.2525V57.2549Z" fill="#979797"/>
<path d="M185.248 59.7683V59.2365C184.981 59.6538 184.588 59.8637 184.07 59.8637C183.734 59.8637 183.426 59.7707 183.143 59.5847C182.861 59.3987 182.642 59.1411 182.487 58.8097C182.332 58.4782 182.255 58.0967 182.255 57.665C182.255 57.2334 182.325 56.8614 182.465 56.5204C182.606 56.177 182.816 55.9147 183.097 55.7335C183.379 55.5523 183.691 55.4593 184.037 55.4593C184.292 55.4593 184.516 55.5117 184.716 55.619C184.914 55.7263 185.077 55.867 185.201 56.0387V53.9498H185.911V59.7683H185.248ZM182.99 57.665C182.99 58.204 183.104 58.6094 183.331 58.8764C183.558 59.1435 183.827 59.2771 184.137 59.2771C184.447 59.2771 184.714 59.1483 184.933 58.8931C185.153 58.638 185.26 58.2469 185.26 57.7247C185.26 57.1476 185.148 56.7231 184.926 56.4537C184.705 56.1842 184.43 56.0483 184.104 56.0483C183.777 56.0483 183.522 56.177 183.307 56.437C183.095 56.6969 182.988 57.1047 182.988 57.6627L182.99 57.665Z" fill="#979797"/>
<defs>
<linearGradient id="paint0_linear_907_928" x1="0.101074" y1="34" x2="58.7605" y2="34" gradientUnits="userSpaceOnUse">
<stop stop-color="#EF669A"/>
<stop offset="0.51" stop-color="#9171B1"/>
<stop offset="1" stop-color="#72CEEC"/>
</linearGradient>
<linearGradient id="paint1_linear_907_928" x1="0.122525" y1="34" x2="58.7963" y2="34" gradientUnits="userSpaceOnUse">
<stop stop-color="#EF669A"/>
<stop offset="0.51" stop-color="#9171B1"/>
<stop offset="1" stop-color="#72CEEC"/>
</linearGradient>
</defs>
</svg>
