<svg width="207" height="69" viewBox="0 0 207 69" fill="none" xmlns="http://www.w3.org/2000/svg">
<path d="M30.0353 0.125641L11.7199 10.6038H18.2624H18.6429L18.8459 10.9304L20.5709 13.5688C20.8245 13.4934 21.1036 13.4432 21.3826 13.4432C22.1437 13.4432 22.8286 13.7447 23.3106 14.2221C23.8179 14.7247 24.1223 15.4031 24.1223 16.157C24.1223 16.9108 23.8179 17.5892 23.3106 18.0918C22.8286 18.5692 22.1183 18.8958 21.3826 18.8958C20.6216 18.8958 19.9367 18.5943 19.4293 18.0918C18.922 17.6143 18.6175 16.9108 18.6175 16.157C18.6175 15.4283 18.8966 14.7749 19.3786 14.2975L17.8819 11.9858H9.33529L0 17.3128C0 19.0466 0.0507348 20.7553 0.152205 22.4137H8.57196L10.0686 20.102C9.58666 19.6245 9.30762 18.9461 9.30762 18.2174C9.30762 17.4636 9.61203 16.7851 10.1194 16.2826C10.6014 15.8052 11.3117 15.5036 12.0727 15.5036C12.8337 15.5036 13.5186 15.8052 14.026 16.2826C14.508 16.7851 14.8124 17.4636 14.8124 18.2174C14.8124 18.9712 14.508 19.6497 14.026 20.1522C13.5186 20.6548 12.8337 20.9563 12.0727 20.9563C11.7936 20.9563 11.5146 20.906 11.2609 20.8307L9.5613 23.469L9.35835 23.7957H8.97784H0.253676C0.355147 25.2028 0.507352 26.5848 0.684926 27.9417H11.1087L13.3157 24.5495H22.6003C22.7271 24.0721 22.9808 23.6449 23.3106 23.3183C23.8179 22.8157 24.5028 22.5142 25.2639 22.5142C26.0249 22.5142 26.7098 22.8157 27.2172 23.3183C27.6992 23.7957 28.0036 24.4993 28.0036 25.228C28.0036 25.9818 27.6992 26.6602 27.2172 27.1628C26.7098 27.6653 26.0249 27.9669 25.2639 27.9669C23.9955 27.9669 22.9047 27.1125 22.6003 25.9315H14.0767L12.0727 29.0222L11.8698 29.3489H11.4892H0.887868C1.11618 30.756 1.36985 32.138 1.6489 33.4949H14.3535C14.4803 33.0175 14.734 32.5903 15.0638 32.2637C15.5458 31.7862 16.2561 31.4596 17.0171 31.4596C17.7781 31.4596 18.463 31.7611 18.945 32.2637C19.4524 32.7411 19.7568 33.4446 19.7568 34.1985C19.7568 34.9523 19.4524 35.6307 18.945 36.1333C18.463 36.6107 17.7527 36.9122 17.0171 36.9122C16.2561 36.9122 15.5711 36.6107 15.0638 36.1333C14.7086 35.7815 14.4803 35.3795 14.3535 34.902H1.95331C2.30846 36.3092 2.68897 37.6912 3.12022 39.0481H12.4301H12.8107L13.0136 39.3747L14.0767 42.4654H22.6003C22.9047 41.2844 23.9701 40.4301 25.2639 40.4301C26.0249 40.4301 26.7098 40.7316 27.2172 41.209C27.6992 41.7116 28.0036 42.39 28.0036 43.1438C28.0036 43.8977 27.6992 44.5761 27.2172 45.0787C26.7098 45.5561 26.0249 45.8827 25.2639 45.8827C24.5028 45.8827 23.8179 45.5812 23.3106 45.0787C22.9808 44.7269 22.7271 44.3248 22.6003 43.8474H13.3157L12.0496 40.4552H3.57684C4.05882 41.8875 4.61691 43.2695 5.20037 44.6012H10.8343H11.2148L11.4177 44.9279L13.1174 47.5663C13.3711 47.4909 13.6501 47.4406 13.9291 47.4406C14.6902 47.4406 15.3751 47.7422 15.8825 48.2447C16.3644 48.7221 16.6688 49.4257 16.6688 50.1544C16.6688 50.9082 16.3644 51.5867 15.8825 52.0892C15.3751 52.5918 14.6902 52.8933 13.9291 52.8933C13.1681 52.8933 12.4832 52.5918 11.9758 52.0892C11.4685 51.6118 11.1641 50.9082 11.1641 50.1544C11.1641 49.4257 11.4431 48.7724 11.9251 48.295L10.4284 45.9832H5.80919C7.38198 49.3001 9.25919 52.3405 11.4154 55.0794H18.6175C18.7444 54.602 18.9981 54.1748 19.3278 53.8481C19.8352 53.3707 20.5201 53.0692 21.2811 53.0692C22.0422 53.0692 22.7271 53.3707 23.2345 53.8481C23.7164 54.3507 24.0209 55.0291 24.0209 55.7829C24.0209 56.5368 23.7164 57.2152 23.2345 57.7178C22.7271 58.1952 22.0422 58.5218 21.2811 58.5218C20.5201 58.5218 19.8352 58.2203 19.3278 57.7178C18.9981 57.366 18.7444 56.9639 18.6175 56.4865H12.5316C17.1739 61.9643 23.0592 66.1857 30.0353 69" fill="url(#paint0_linear_3_64)"/>
<path d="M30.9739 0L60.9077 17.0867C60.9077 17.0867 64.5099 55.5568 31.0753 68.9749L30.9739 0Z" fill="url(#paint1_linear_3_64)"/>
<path d="M37.8993 33.3441C37.8993 34.9272 38.1276 36.3343 38.6096 37.5907C39.0916 38.8471 39.7511 39.9024 40.5883 40.7819C41.4254 41.6613 42.4147 42.3146 43.5816 42.7669C44.7232 43.2192 45.9662 43.4454 47.3107 43.4454C48.1225 43.4454 48.8835 43.2946 49.6191 42.9931C50.3548 42.6916 51.0651 42.2895 51.6993 41.787C52.3335 41.2844 52.9169 40.7316 53.3989 40.1286C53.9063 39.5004 54.3122 38.8722 54.6419 38.244L56.2655 39.2742C55.7835 40.028 55.2508 40.7567 54.5912 41.4603C53.957 42.1639 53.196 42.7669 52.3588 43.3197C51.5217 43.8474 50.5577 44.2997 49.5177 44.6012C48.4522 44.9279 47.2853 45.0787 45.9662 45.0787C44.0636 45.0787 42.364 44.7771 40.8166 44.1489C39.2691 43.5208 37.95 42.6916 36.8592 41.6111C35.7684 40.5557 34.9059 39.2993 34.2971 37.8671C33.6883 36.4348 33.3839 34.9272 33.3839 33.3441C33.3839 32.2888 33.5107 31.2586 33.7897 30.2535C34.0688 29.2484 34.4747 28.3186 34.982 27.4392C35.5147 26.5597 36.1489 25.7556 36.8846 25.0269C37.6456 24.2983 38.4827 23.6701 39.4213 23.1424C40.36 22.6147 41.4 22.2127 42.5162 21.9111C43.6324 21.6096 44.8247 21.484 46.1184 21.484C47.3361 21.484 48.4522 21.6347 49.4669 21.9614C50.4816 22.2881 51.4202 22.7152 52.2574 23.2429C53.0945 23.7706 53.8555 24.3988 54.5151 25.1023C55.1747 25.8059 55.7327 26.5346 56.2147 27.2884L54.5405 28.3689C53.6019 26.5346 52.5111 25.2028 51.3441 24.3485C50.1519 23.4942 48.8074 23.0921 47.26 23.0921C45.9408 23.0921 44.6978 23.3183 43.5563 23.7957C42.4147 24.2731 41.4 24.9516 40.5629 25.831C39.7004 26.7105 39.0408 27.791 38.5588 29.0473C38.153 30.3288 37.8993 31.7611 37.8993 33.3441Z" fill="white"/>
<path d="M62.861 47.9683C62.9625 48.0186 63.0893 48.0689 63.2162 48.1442C63.343 48.2196 63.4952 48.2699 63.6474 48.3453C63.7996 48.4206 63.9772 48.4709 64.1548 48.5211C64.3323 48.5714 64.5606 48.5965 64.7889 48.5965C65.068 48.5965 65.347 48.5211 65.5753 48.3704C65.829 48.2196 66.0573 48.0186 66.2603 47.7673C66.4632 47.5412 66.6408 47.2648 66.793 46.9884C66.9452 46.712 67.0974 46.4356 67.1989 46.2094L68.1121 44.1741L61.1614 31.3088H64.2309L69.482 41.0583L73.7691 31.3088H75.2151L68.2643 47.1643C67.9599 47.8176 67.6301 48.3955 67.2496 48.8729C66.8691 49.3504 66.4632 49.7524 66.0573 50.0791C65.6261 50.4057 65.1948 50.6319 64.7382 50.7826C64.2816 50.9334 63.8503 51.0088 63.4191 51.0088C63.0893 51.0088 62.7849 50.9585 62.4805 50.858C62.1761 50.7575 61.9224 50.6319 61.7195 50.4811L62.861 47.9683Z" fill="#333333"/>
<path d="M77.8533 25.1526L79.7812 24.3988H80.5676V33.8216C80.7959 33.4447 81.075 33.0929 81.4301 32.7411C81.7853 32.3893 82.1911 32.1129 82.597 31.8616C83.0283 31.6104 83.4595 31.4093 83.9161 31.2586C84.3728 31.1078 84.804 31.0324 85.2353 31.0324C86.0217 31.0324 86.7573 31.1832 87.4169 31.5098C88.0764 31.8365 88.6599 32.2637 89.1419 32.7913C89.6239 33.3441 90.0044 33.9723 90.258 34.701C90.5371 35.4297 90.6639 36.2087 90.6639 37.0379C90.6639 38.1435 90.461 39.1988 90.0805 40.1788C89.6746 41.1588 89.1419 42.0131 88.457 42.7167C87.772 43.4454 86.9603 44.0233 86.047 44.4254C85.1338 44.8525 84.1445 45.0535 83.1044 45.0535C82.0897 45.0535 81.1511 44.9279 80.2632 44.6515C79.3753 44.4002 78.5889 43.9982 77.8786 43.4454V25.1526H77.8533ZM80.5676 42.5911C80.7452 42.7418 80.9228 42.9177 81.1257 43.0685C81.3286 43.2444 81.5569 43.3951 81.7853 43.5208C82.0389 43.6464 82.318 43.772 82.6224 43.8474C82.9268 43.9228 83.2819 43.9731 83.6625 43.9731C84.2967 43.9731 84.8547 43.8223 85.3875 43.5208C85.8948 43.2192 86.3514 42.7921 86.7066 42.2644C87.0871 41.7367 87.3661 41.0834 87.5691 40.3296C87.772 39.5758 87.8735 38.7717 87.8735 37.8922C87.8735 37.2138 87.772 36.6107 87.5691 36.0077C87.3661 35.4297 87.0871 34.902 86.7066 34.4749C86.3261 34.0477 85.9202 33.6959 85.4382 33.4447C84.9562 33.1934 84.4489 33.0677 83.8908 33.0677C83.5864 33.0677 83.2566 33.118 82.9522 33.1934C82.6224 33.2939 82.318 33.3944 82.0389 33.5452C81.7345 33.6959 81.4808 33.8718 81.2272 34.0728C80.9735 34.2739 80.7705 34.4749 80.6183 34.701V42.5911H80.5676Z" fill="#333333"/>
<path d="M100.278 45.0787C99.3651 45.0787 98.4772 44.9028 97.6654 44.5761C96.8537 44.2494 96.1434 43.772 95.5345 43.169C94.9257 42.591 94.4437 41.8875 94.114 41.0834C93.7588 40.2793 93.5812 39.4501 93.5812 38.5455C93.5812 37.465 93.7334 36.4599 94.0632 35.5554C94.393 34.6256 94.8243 33.8467 95.4077 33.1682C95.9912 32.4898 96.7015 31.9873 97.5132 31.6103C98.325 31.2334 99.2382 31.0324 100.253 31.0324C101.141 31.0324 101.953 31.1832 102.688 31.5098C103.424 31.8114 104.083 32.2385 104.616 32.7662C105.149 33.2939 105.58 33.8969 105.859 34.5754C106.164 35.2538 106.316 35.9825 106.316 36.7112H96.1687C96.1687 37.6158 96.2956 38.445 96.5239 39.224C96.7522 40.0029 97.082 40.6562 97.5132 41.2342C97.9445 41.8121 98.4518 42.2393 99.0353 42.5408C99.6187 42.8674 100.253 43.0182 100.963 43.0182C101.547 43.0182 102.105 42.9177 102.663 42.7418C103.196 42.5408 103.703 42.3146 104.134 41.988C104.565 41.6865 104.946 41.3347 105.25 40.9326C105.555 40.5306 105.783 40.1285 105.91 39.7014L106.696 40.0532C106.493 40.7567 106.189 41.3849 105.758 42.0131C105.326 42.6162 104.819 43.1438 104.236 43.5961C103.652 44.0484 103.018 44.4002 102.333 44.6766C101.648 44.953 100.963 45.0787 100.278 45.0787ZM102.942 35.6307C102.942 35.1282 102.84 34.6508 102.663 34.1985C102.485 33.7713 102.232 33.3693 101.902 33.0677C101.572 32.7411 101.217 32.4898 100.786 32.3139C100.354 32.138 99.8978 32.0375 99.4158 32.0375C99.0099 32.0375 98.6294 32.138 98.2489 32.3139C97.8684 32.4898 97.5386 32.7411 97.2595 33.0677C96.9551 33.3944 96.7268 33.7713 96.5239 34.1985C96.3209 34.6256 96.2195 35.1031 96.1941 35.6307H102.942Z" fill="#333333"/>
<path d="M112.48 31.0324H112.886L113.241 33.7964C113.444 33.3944 113.723 33.0175 114.028 32.6908C114.357 32.3642 114.687 32.0626 115.093 31.8114C115.474 31.5601 115.879 31.3842 116.311 31.2334C116.742 31.1078 117.173 31.0324 117.63 31.0324C118.036 31.0324 118.416 31.0827 118.797 31.1832C119.177 31.2837 119.532 31.4596 119.887 31.6857L119.025 33.9472C118.847 33.7462 118.67 33.5954 118.467 33.4698C118.264 33.3441 118.061 33.2688 117.858 33.1934C117.655 33.118 117.452 33.0929 117.224 33.0677C117.021 33.0426 116.793 33.0426 116.59 33.0426C116.26 33.0426 115.93 33.0929 115.6 33.1934C115.271 33.2939 114.966 33.4446 114.687 33.6205C114.383 33.8216 114.129 34.0477 113.875 34.3492C113.622 34.6508 113.419 34.9774 113.216 35.3795V44.7771H110.527V31.7611L112.48 31.0324Z" fill="#333333"/>
<path d="M132.673 43.8725C133.231 43.8725 133.789 43.7971 134.347 43.6464C134.905 43.4956 135.387 43.2695 135.818 42.9679C136.25 42.6664 136.605 42.2895 136.858 41.8623C137.112 41.4352 137.264 40.9075 137.264 40.3296C137.264 39.626 137.087 39.0229 136.732 38.4701C136.376 37.9425 135.894 37.4399 135.311 36.9876C134.728 36.5353 134.068 36.1081 133.307 35.7312C132.546 35.3292 131.785 34.9272 131.024 34.5502C130.238 34.1482 129.476 33.7462 128.741 33.2939C127.98 32.8667 127.32 32.3642 126.737 31.8365C126.153 31.3088 125.671 30.7057 125.316 30.0273C124.961 29.374 124.783 28.595 124.783 27.7407C124.783 26.8864 124.936 26.0823 125.265 25.3285C125.595 24.5998 126.077 23.9465 126.711 23.4188C127.346 22.8911 128.107 22.4639 129.045 22.1624C129.958 21.8609 131.024 21.7101 132.216 21.7101C133.282 21.7101 134.246 21.8358 135.108 22.0619C135.945 22.288 136.706 22.6147 137.34 23.067C137.975 23.5193 138.533 24.047 138.964 24.7003C139.421 25.3536 139.776 26.1074 140.055 26.9366L138.101 27.8161C137.873 27.1125 137.569 26.4843 137.214 25.9064C136.858 25.3285 136.427 24.851 135.945 24.4239C135.463 24.0218 134.88 23.6952 134.246 23.469C133.586 23.2429 132.876 23.1424 132.064 23.1424C131.354 23.1424 130.719 23.2429 130.161 23.4439C129.629 23.6449 129.172 23.8962 128.817 24.2229C128.462 24.5495 128.183 24.9013 128.005 25.3033C127.828 25.7054 127.726 26.1074 127.726 26.5346C127.726 27.1125 127.904 27.6653 128.284 28.1679C128.639 28.6704 129.147 29.1227 129.756 29.575C130.364 30.0022 131.049 30.4293 131.836 30.8314C132.622 31.2334 133.408 31.6606 134.195 32.0626C135.007 32.4898 135.793 32.917 136.554 33.3693C137.315 33.8215 138.025 34.3241 138.634 34.8518C139.243 35.3794 139.725 35.9825 140.106 36.6107C140.461 37.264 140.664 37.9676 140.664 38.7717C140.664 39.6762 140.486 40.5055 140.156 41.3095C139.801 42.0885 139.294 42.7921 138.609 43.37C137.924 43.9479 137.061 44.4253 136.047 44.752C135.032 45.1038 133.84 45.2545 132.495 45.2545C131.404 45.2545 130.415 45.1289 129.553 44.9028C128.69 44.6766 127.929 44.3248 127.269 43.8725C126.61 43.4202 126.052 42.8674 125.57 42.2141C125.088 41.5608 124.707 40.807 124.428 39.9778L126.483 39.1486C126.711 39.8773 127.041 40.5557 127.447 41.1336C127.853 41.7116 128.335 42.2141 128.868 42.6162C129.4 43.0182 130.009 43.3197 130.669 43.5459C131.227 43.772 131.937 43.8725 132.673 43.8725Z" fill="#333333"/>
<path d="M151.47 45.0786C150.43 45.0786 149.466 44.9027 148.578 44.551C147.69 44.1992 146.955 43.6966 146.295 43.0936C145.661 42.4654 145.154 41.7618 144.799 40.9075C144.443 40.0783 144.266 39.1988 144.266 38.244C144.266 37.2389 144.443 36.3092 144.799 35.4548C145.154 34.5754 145.661 33.8215 146.295 33.1682C146.929 32.5149 147.69 32.0124 148.578 31.6354C149.466 31.2585 150.43 31.0826 151.47 31.0826C152.51 31.0826 153.474 31.2585 154.337 31.5852C155.199 31.937 155.96 32.3893 156.594 32.9923C157.229 33.5954 157.736 34.299 158.091 35.103C158.446 35.9071 158.624 36.7614 158.624 37.6912C158.624 38.7214 158.446 39.6762 158.091 40.5808C157.736 41.4854 157.229 42.2644 156.594 42.9428C155.96 43.6212 155.199 44.1489 154.337 44.5258C153.474 44.8776 152.51 45.0786 151.47 45.0786ZM151.978 44.0987C152.51 44.0987 152.992 43.973 153.449 43.6966C153.88 43.4202 154.286 43.0684 154.59 42.591C154.895 42.1136 155.149 41.5859 155.326 40.9829C155.504 40.3798 155.58 39.7265 155.58 39.048C155.58 38.0681 155.504 37.1635 155.326 36.3092C155.149 35.4548 154.895 34.7261 154.489 34.0728C154.108 33.4446 153.601 32.9421 152.992 32.5652C152.383 32.1883 151.648 32.0124 150.76 32.0124C150.303 32.0124 149.872 32.138 149.441 32.3893C149.01 32.6405 148.629 32.9923 148.325 33.4446C147.995 33.8969 147.741 34.4246 147.538 35.0277C147.335 35.6307 147.234 36.2589 147.234 36.9373C147.234 37.9173 147.335 38.847 147.538 39.7014C147.741 40.5557 148.046 41.3095 148.451 41.9628C148.857 42.6161 149.339 43.1187 149.923 43.4956C150.582 43.8976 151.242 44.0987 151.978 44.0987Z" fill="#333333"/>
<path d="M164.433 31.0324H165.194V34.0728C165.473 33.721 165.778 33.3693 166.107 33.0175C166.437 32.6657 166.818 32.339 167.224 32.0375C167.629 31.736 168.061 31.5098 168.568 31.3088C169.05 31.1329 169.583 31.0324 170.166 31.0324C170.978 31.0324 171.714 31.2083 172.373 31.535C173.033 31.8616 173.591 32.3139 174.047 32.8918C174.504 33.4698 174.885 34.1231 175.113 34.902C175.367 35.681 175.493 36.4851 175.493 37.3645C175.493 38.4701 175.341 39.5004 175.037 40.4552C174.732 41.4101 174.276 42.2141 173.718 42.8926C173.134 43.571 172.449 44.1238 171.612 44.5007C170.775 44.8776 169.862 45.0787 168.847 45.0787C168.467 45.0787 168.137 45.0535 167.807 45.0284C167.477 44.9781 167.173 44.9279 166.894 44.8525C166.615 44.7771 166.336 44.6766 166.057 44.551C165.778 44.4253 165.524 44.2746 165.245 44.0987V50.4811H162.531V31.8114L164.433 31.0324ZM165.219 41.1588C165.219 41.5608 165.296 41.9377 165.473 42.2895C165.651 42.6413 165.904 42.968 166.209 43.2192C166.513 43.4705 166.919 43.6966 167.35 43.8474C167.782 43.9982 168.289 44.0736 168.822 44.0736C169.329 44.0736 169.811 43.9479 170.242 43.6966C170.699 43.4454 171.079 43.0685 171.409 42.6162C171.739 42.1387 171.993 41.5859 172.196 40.9326C172.399 40.2793 172.475 39.5506 172.475 38.7717C172.475 37.7666 172.373 36.9122 172.221 36.1584C172.043 35.4046 171.79 34.8015 171.485 34.299C171.181 33.7964 170.8 33.4446 170.369 33.1934C169.938 32.9421 169.456 32.8165 168.949 32.8165C168.568 32.8165 168.187 32.8667 167.832 32.9924C167.477 33.118 167.122 33.2688 166.818 33.4698C166.488 33.6708 166.209 33.8969 165.93 34.1733C165.651 34.4246 165.422 34.701 165.194 35.0025V41.1588H165.219Z" fill="#333333"/>
<path d="M182.064 33.7713C182.875 32.8667 183.712 32.1631 184.626 31.7108C185.514 31.2585 186.427 31.0324 187.34 31.0324C187.822 31.0324 188.253 31.1329 188.685 31.359C189.09 31.5601 189.446 31.8616 189.775 32.2385C190.08 32.6154 190.333 33.0426 190.511 33.5451C190.689 34.0477 190.765 34.5754 190.765 35.1282V44.8022H188.076V35.5805C188.076 34.6759 187.873 33.9974 187.467 33.5451C187.061 33.0928 186.528 32.8416 185.894 32.8416C185.615 32.8416 185.311 32.8918 184.981 32.9923C184.651 33.0928 184.347 33.2185 184.017 33.3944C183.687 33.5703 183.357 33.7713 183.028 33.9974C182.698 34.2236 182.393 34.5 182.089 34.7764V44.752H179.349V25.1526L181.303 24.3987H182.064V33.7713Z" fill="#333333"/>
<path d="M194.646 47.9683C194.747 48.0186 194.874 48.0688 195.001 48.1442C195.128 48.2196 195.28 48.2698 195.432 48.3452C195.585 48.4206 195.762 48.4709 195.94 48.5211C196.117 48.5714 196.346 48.5965 196.574 48.5965C196.853 48.5965 197.132 48.5211 197.36 48.3704C197.614 48.2196 197.842 48.0186 198.045 47.7673C198.248 47.5411 198.426 47.2647 198.578 46.9883C198.73 46.7119 198.882 46.4355 198.984 46.2094L199.897 44.1741L192.946 31.3088H196.016L201.267 41.0583L205.554 31.3088H207L200.049 47.1642C199.745 47.8175 199.415 48.3955 199.035 48.8729C198.654 49.3503 198.248 49.7524 197.842 50.079C197.411 50.4057 196.98 50.6318 196.523 50.7826C196.067 50.9334 195.635 51.0087 195.204 51.0087C194.874 51.0087 194.57 50.9585 194.265 50.858C193.961 50.7575 193.707 50.6318 193.504 50.4811L194.646 47.9683Z" fill="#333333"/>
<path d="M62.861 58.949L63.6474 58.8736C63.6728 59.1752 63.7743 59.4516 63.9011 59.6275C64.0279 59.8285 64.2562 59.9792 64.5353 60.1049C64.8143 60.2305 65.1441 60.2808 65.4993 60.2808C65.8037 60.2808 66.0827 60.2305 66.3364 60.13C66.5901 60.0295 66.7676 59.9039 66.8691 59.7531C66.996 59.6023 67.0467 59.4013 67.0467 59.2254C67.0467 59.0244 66.996 58.8485 66.8691 58.7229C66.7676 58.5721 66.5647 58.4465 66.311 58.3459C66.1334 58.2706 65.7783 58.1701 65.1948 58.0444C64.6114 57.9188 64.2055 57.768 63.9772 57.6675C63.6728 57.5167 63.4445 57.3157 63.3176 57.0896C63.1654 56.8634 63.0893 56.6122 63.0893 56.3106C63.0893 56.0091 63.1908 55.7076 63.3684 55.4312C63.5459 55.1548 63.7996 54.9537 64.1548 54.803C64.5099 54.6522 64.8904 54.602 65.2963 54.602C65.7529 54.602 66.1588 54.6773 66.514 54.8281C66.8691 54.9789 67.1482 55.205 67.3257 55.4814C67.5033 55.7578 67.6301 56.0845 67.6301 56.4614L66.8437 56.5116C66.793 56.1096 66.6662 55.8332 66.4125 55.6322C66.1588 55.4312 65.8037 55.3307 65.3217 55.3307C64.8143 55.3307 64.4592 55.4312 64.2309 55.6071C64.0026 55.7829 63.8757 56.0091 63.8757 56.2604C63.8757 56.4865 63.9518 56.6624 64.1294 56.8132C64.2816 56.9639 64.7129 57.1147 65.3724 57.2655C66.0573 57.4162 66.514 57.5419 66.7676 57.6675C67.1228 57.8434 67.4018 58.0444 67.5794 58.2957C67.757 58.547 67.8331 58.8485 67.8331 59.1752C67.8331 59.5018 67.7316 59.8285 67.554 60.1049C67.3511 60.4064 67.0974 60.6325 66.7423 60.7833C66.3871 60.9341 65.9812 61.0346 65.5246 61.0346C64.9665 61.0346 64.4846 60.9592 64.104 60.7833C63.7235 60.6074 63.4191 60.3813 63.1908 60.0546C62.9625 59.728 62.8864 59.3762 62.861 58.949Z" fill="#333333"/>
<path d="M75.4941 59.5018L76.2805 59.6023C76.1537 60.0546 75.9253 60.4315 75.5956 60.6828C75.2658 60.9341 74.8345 61.0597 74.3018 61.0597C73.6423 61.0597 73.1095 60.8587 72.729 60.4566C72.3485 60.0546 72.1456 59.4767 72.1456 58.748C72.1456 57.9942 72.3485 57.4162 72.729 56.9891C73.1349 56.5619 73.6423 56.3609 74.2511 56.3609C74.8599 56.3609 75.3419 56.5619 75.7478 56.9639C76.1283 57.366 76.3312 57.9439 76.3312 58.6977C76.3312 58.748 76.3312 58.8234 76.3312 58.8987H72.932C72.9573 59.4013 73.1095 59.7782 73.3632 60.0295C73.6169 60.2808 73.9213 60.4315 74.3018 60.4315C74.5809 60.4315 74.8345 60.3561 75.0121 60.2054C75.2404 60.0546 75.3926 59.8285 75.4941 59.5018ZM72.9827 58.2706H75.5195C75.4941 57.8936 75.3926 57.6172 75.2404 57.4162C74.9867 57.1147 74.6823 56.9639 74.2764 56.9639C73.9213 56.9639 73.6169 57.0896 73.3886 57.3157C73.1349 57.567 73.0081 57.8685 72.9827 58.2706Z" fill="#333333"/>
<path d="M83.7386 59.3008L84.4996 59.4013C84.4235 59.929 84.1952 60.331 83.8654 60.6074C83.5356 60.909 83.1044 61.0346 82.6224 61.0346C81.9882 61.0346 81.5062 60.8336 81.1257 60.4315C80.7452 60.0295 80.5676 59.4516 80.5676 58.6977C80.5676 58.2203 80.6437 57.7932 80.8213 57.4162C80.9735 57.0645 81.2272 56.7881 81.557 56.587C81.8867 56.4111 82.2419 56.3106 82.6478 56.3106C83.1298 56.3106 83.5356 56.4363 83.8654 56.6876C84.1698 56.9388 84.3728 57.2906 84.4742 57.7429L83.7132 57.8685C83.6371 57.567 83.5103 57.3409 83.3327 57.1901C83.1551 57.0393 82.9268 56.964 82.6731 56.964C82.2926 56.964 81.9628 57.0896 81.7345 57.366C81.4809 57.6424 81.3794 58.0696 81.3794 58.6726C81.3794 59.2757 81.5062 59.728 81.7345 59.9792C81.9628 60.2556 82.2673 60.3813 82.6478 60.3813C82.9522 60.3813 83.2059 60.2808 83.4088 60.1049C83.561 59.9792 83.6878 59.6777 83.7386 59.3008Z" fill="#333333"/>
<path d="M91.6279 60.9592V60.3059C91.2728 60.8084 90.7908 61.0597 90.182 61.0597C89.9029 61.0597 89.6746 61.0095 89.421 60.9089C89.1926 60.8084 89.0151 60.6828 88.9136 60.532C88.8121 60.3813 88.7107 60.1802 88.6853 59.9792C88.6599 59.8285 88.6346 59.6023 88.6346 59.2757V56.4865H89.3956V58.9741C89.3956 59.3762 89.421 59.6526 89.4463 59.7782C89.4971 59.9792 89.5985 60.13 89.7507 60.2556C89.9029 60.3813 90.1059 60.4315 90.3342 60.4315C90.5625 60.4315 90.7908 60.3813 90.9937 60.2556C91.1967 60.13 91.3489 59.9792 91.425 59.7782C91.5011 59.5772 91.5518 59.2757 91.5518 58.8987V56.4865H92.3129V60.9843H91.6279V60.9592Z" fill="#333333"/>
<path d="M97.0312 60.9592V56.4614H97.7162V57.1398C97.8938 56.8132 98.046 56.6121 98.1982 56.5116C98.3504 56.4111 98.5026 56.3609 98.6801 56.3609C98.9338 56.3609 99.2129 56.4363 99.4665 56.6121L99.2129 57.3157C99.0353 57.2152 98.8324 57.1398 98.6548 57.1398C98.4772 57.1398 98.325 57.1901 98.1982 57.2906C98.0713 57.3911 97.9699 57.5419 97.9191 57.7178C97.843 57.9942 97.7923 58.2957 97.7923 58.5972V60.9592H97.0312Z" fill="#333333"/>
<path d="M103.449 55.6322V54.7527H104.21V55.6322H103.449ZM103.449 60.9592V56.4614H104.21V60.9592H103.449Z" fill="#333333"/>
<path d="M110.578 60.2808L110.679 60.9592C110.451 61.0095 110.273 61.0346 110.096 61.0346C109.817 61.0346 109.588 60.9843 109.436 60.9089C109.284 60.8336 109.182 60.7079 109.106 60.5572C109.056 60.4064 109.005 60.1049 109.005 59.6526V57.0393H108.447V56.4363H109.005V55.3307L109.766 54.8784V56.4614H110.552V57.0644H109.766V59.7028C109.766 59.929 109.791 60.0546 109.817 60.13C109.842 60.1803 109.893 60.2305 109.943 60.2808C109.994 60.3059 110.096 60.331 110.197 60.331C110.324 60.3059 110.451 60.2808 110.578 60.2808Z" fill="#333333"/>
<path d="M114.814 62.693L114.738 61.9894C114.915 62.0397 115.042 62.0648 115.169 62.0648C115.347 62.0648 115.474 62.0397 115.575 61.9894C115.676 61.9392 115.753 61.8638 115.829 61.7633C115.879 61.6879 115.956 61.4869 116.057 61.1854C116.082 61.1351 116.082 61.0849 116.133 61.0095L114.408 56.5117H115.245L116.184 59.0495C116.311 59.3762 116.412 59.728 116.514 60.0798C116.59 59.728 116.717 59.3762 116.818 59.0495L117.782 56.4363H118.543L116.818 61.0095C116.64 61.512 116.488 61.8387 116.387 62.0397C116.26 62.291 116.082 62.4669 115.905 62.5925C115.727 62.7181 115.524 62.7684 115.271 62.7684C115.144 62.7684 114.992 62.7433 114.814 62.693Z" fill="#333333"/>
<path d="M128.462 58.949L129.248 58.8736C129.274 59.1752 129.375 59.4516 129.502 59.6275C129.629 59.8285 129.857 59.9792 130.136 60.1049C130.415 60.2305 130.745 60.2808 131.1 60.2808C131.404 60.2808 131.683 60.2305 131.937 60.13C132.191 60.0295 132.368 59.9039 132.47 59.7531C132.571 59.6023 132.647 59.4013 132.647 59.2254C132.647 59.0244 132.597 58.8485 132.47 58.7229C132.368 58.5721 132.165 58.4465 131.912 58.3459C131.734 58.2706 131.379 58.1701 130.796 58.0444C130.212 57.9188 129.806 57.768 129.578 57.6675C129.274 57.5167 129.045 57.3157 128.918 57.0896C128.766 56.8634 128.69 56.6122 128.69 56.3106C128.69 56.0091 128.792 55.7076 128.969 55.4312C129.147 55.1548 129.4 54.9537 129.756 54.803C130.111 54.6522 130.491 54.602 130.897 54.602C131.354 54.602 131.76 54.6773 132.115 54.8281C132.47 54.9789 132.749 55.205 132.926 55.4814C133.129 55.7578 133.231 56.0845 133.231 56.4614L132.444 56.5116C132.394 56.1096 132.267 55.8332 132.013 55.6322C131.76 55.4312 131.404 55.3307 130.922 55.3307C130.415 55.3307 130.06 55.4312 129.832 55.6071C129.603 55.7829 129.476 56.0091 129.476 56.2604C129.476 56.4865 129.553 56.6624 129.73 56.8132C129.882 56.9639 130.314 57.1147 130.973 57.2655C131.658 57.4162 132.115 57.5419 132.368 57.6675C132.724 57.8434 133.003 58.0444 133.18 58.2957C133.358 58.547 133.434 58.8485 133.434 59.1752C133.434 59.5018 133.332 59.8285 133.155 60.1049C132.952 60.4064 132.698 60.6325 132.343 60.7833C131.988 60.9341 131.582 61.0346 131.125 61.0346C130.567 61.0346 130.085 60.9592 129.705 60.7833C129.324 60.6074 129.02 60.3813 128.792 60.0546C128.563 59.728 128.487 59.3762 128.462 58.949Z" fill="#333333"/>
<path d="M138 55.6322V54.7527H138.761V55.6322H138ZM138 60.9592V56.4614H138.761V60.9592H138Z" fill="#333333"/>
<path d="M143.454 60.9592V56.4614H144.139V57.0896C144.291 56.8634 144.469 56.6875 144.697 56.5619C144.925 56.4363 145.204 56.3609 145.509 56.3609C145.839 56.3609 146.118 56.4363 146.346 56.5619C146.574 56.6875 146.701 56.8885 146.803 57.1398C147.158 56.6121 147.64 56.3609 148.198 56.3609C148.654 56.3609 148.984 56.4865 149.238 56.7378C149.492 56.9891 149.593 57.366 149.593 57.8685V60.9592H148.832V58.1198C148.832 57.8183 148.807 57.5921 148.756 57.4665C148.705 57.3408 148.604 57.2152 148.477 57.1398C148.35 57.0644 148.198 57.0142 148.02 57.0142C147.69 57.0142 147.437 57.1147 147.234 57.3408C147.031 57.5419 146.929 57.8936 146.929 58.3459V60.9592H146.168V58.0444C146.168 57.7178 146.118 57.4414 145.991 57.2906C145.864 57.1147 145.661 57.0393 145.382 57.0393C145.154 57.0393 144.976 57.0896 144.773 57.2152C144.57 57.3408 144.443 57.4916 144.367 57.7178C144.291 57.9439 144.24 58.2454 144.24 58.6475V60.9843H143.454V60.9592Z" fill="#333333"/>
<path d="M154.261 62.6679V56.4363H154.971V57.0142C155.149 56.788 155.326 56.6122 155.529 56.5116C155.732 56.386 155.986 56.3358 156.29 56.3358C156.671 56.3358 157.026 56.4363 157.305 56.6373C157.609 56.8383 157.837 57.1147 157.964 57.4665C158.117 57.8183 158.193 58.2203 158.193 58.6475C158.193 59.0998 158.117 59.5269 157.939 59.8787C157.761 60.2556 157.533 60.532 157.203 60.7331C156.874 60.9341 156.544 61.0346 156.189 61.0346C155.935 61.0346 155.707 60.9843 155.504 60.8838C155.301 60.7833 155.123 60.6325 154.996 60.4818V62.6679H154.261ZM154.946 58.7229C154.946 59.3008 155.072 59.728 155.301 60.0044C155.529 60.2808 155.833 60.4315 156.163 60.4315C156.493 60.4315 156.797 60.2808 157.051 60.0044C157.305 59.728 157.406 59.2757 157.406 58.6726C157.406 58.0947 157.279 57.6675 157.051 57.3911C156.823 57.1147 156.518 56.9639 156.189 56.9639C155.859 56.9639 155.58 57.1147 155.326 57.4162C155.072 57.7178 154.946 58.1449 154.946 58.7229Z" fill="#333333"/>
<path d="M162.607 60.9592V54.7527H163.368V60.9592H162.607Z" fill="#333333"/>
<path d="M168.086 55.6322V54.7527H168.847V55.6322H168.086ZM168.086 60.9592V56.4614H168.847V60.9592H168.086Z" fill="#333333"/>
<path d="M173.718 60.9592V57.0393H173.033V56.4363H173.718V55.9588C173.718 55.6573 173.743 55.4312 173.794 55.2804C173.87 55.0794 173.997 54.9286 174.174 54.803C174.352 54.6773 174.631 54.6271 174.961 54.6271C175.189 54.6271 175.417 54.6522 175.671 54.7025L175.544 55.3558C175.392 55.3306 175.24 55.3055 175.088 55.3055C174.859 55.3055 174.682 55.3558 174.58 55.4563C174.479 55.5568 174.428 55.7327 174.428 56.0091V56.4363H175.316V57.0393H174.428V60.9341H173.718V60.9592Z" fill="#333333"/>
<path d="M179.476 55.6322V54.7527H180.237V55.6322H179.476ZM179.476 60.9592V56.4614H180.237V60.9592H179.476Z" fill="#333333"/>
<path d="M188.025 59.5018L188.811 59.6023C188.685 60.0546 188.456 60.4315 188.126 60.6828C187.797 60.9341 187.365 61.0597 186.833 61.0597C186.173 61.0597 185.64 60.8587 185.26 60.4566C184.879 60.0546 184.676 59.4767 184.676 58.748C184.676 57.9942 184.879 57.4162 185.26 56.9891C185.666 56.5619 186.173 56.3609 186.782 56.3609C187.391 56.3609 187.873 56.5619 188.279 56.9639C188.659 57.366 188.862 57.9439 188.862 58.6977C188.862 58.748 188.862 58.8234 188.862 58.8987H185.463C185.488 59.4013 185.64 59.7782 185.894 60.0295C186.148 60.2808 186.452 60.4315 186.833 60.4315C187.112 60.4315 187.365 60.3561 187.543 60.2054C187.746 60.0546 187.898 59.8285 188.025 59.5018ZM185.488 58.2706H188.025C188 57.8936 187.898 57.6172 187.746 57.4162C187.492 57.1147 187.188 56.9639 186.782 56.9639C186.427 56.9639 186.122 57.0896 185.894 57.3157C185.64 57.567 185.514 57.8685 185.488 58.2706Z" fill="#333333"/>
<path d="M196.244 60.9592V60.3813C195.965 60.8336 195.534 61.0597 194.976 61.0597C194.621 61.0597 194.291 60.9592 193.986 60.7582C193.682 60.5572 193.454 60.2808 193.276 59.929C193.099 59.5772 193.022 59.1752 193.022 58.6977C193.022 58.2454 193.099 57.8434 193.251 57.4665C193.403 57.0896 193.631 56.8132 193.936 56.6373C194.24 56.4363 194.57 56.3358 194.95 56.3358C195.229 56.3358 195.458 56.386 195.686 56.5116C195.889 56.6373 196.067 56.7629 196.219 56.9639V54.7276H196.98V60.9341H196.244V60.9592ZM193.809 58.6977C193.809 59.2757 193.936 59.7028 194.164 59.9792C194.418 60.2556 194.697 60.4064 195.026 60.4064C195.356 60.4064 195.661 60.2808 195.889 60.0044C196.117 59.728 196.244 59.3259 196.244 58.748C196.244 58.1198 196.117 57.6926 195.889 57.3911C195.661 57.1147 195.356 56.9639 195.001 56.9639C194.671 56.9639 194.367 57.1147 194.139 57.3911C193.91 57.6675 193.809 58.1198 193.809 58.6977Z" fill="#333333"/>
<defs>
<linearGradient id="paint0_linear_3_64" x1="-2.89998e-07" y1="34.4975" x2="60.0865" y2="34.4975" gradientUnits="userSpaceOnUse">
<stop stop-color="#EF669A"/>
<stop offset="0.5102" stop-color="#9171B1"/>
<stop offset="1" stop-color="#72CEEC"/>
</linearGradient>
<linearGradient id="paint1_linear_3_64" x1="0.0207968" y1="34.4975" x2="60.1223" y2="34.4975" gradientUnits="userSpaceOnUse">
<stop stop-color="#EF669A"/>
<stop offset="0.5102" stop-color="#9171B1"/>
<stop offset="1" stop-color="#72CEEC"/>
</linearGradient>
</defs>
</svg>
