<svg width="49" height="49" viewBox="0 0 49 49" fill="none" xmlns="http://www.w3.org/2000/svg">
<path d="M48.2744 6.6932C48.2458 6.66621 42.5699 1.25332 42.5699 1.25332C42.353 1.04513 42.1286 0.829956 41.7095 0.829956H18.8594C18.192 0.829956 17.649 1.3729 17.649 2.04032V5.75709L9.59546 7.13761C8.94993 7.25086 8.51581 7.86864 8.62764 8.51351L9.03638 10.8967C6.41869 11.7776 3.73117 12.6856 1.13671 13.6176C0.523647 13.8417 0.201922 14.5234 0.420683 15.1402L5.58159 29.4867C5.6854 29.7754 5.95748 29.9552 6.24769 29.9552C6.32715 29.9552 6.40813 29.9417 6.48721 29.9132C6.85509 29.7808 7.04601 29.3754 6.91369 29.0075L1.82914 14.8732C4.27345 13.998 6.80478 13.1415 9.27864 12.3088L11.7108 26.4882L14.5094 42.8181C14.6105 43.3946 15.1172 43.8047 15.6891 43.8047C15.7538 43.8047 15.8195 43.7994 15.8854 43.7886L23.4652 42.4878L29.3882 41.4725L20.48 44.6744L13.4552 47.2001L7.99957 32.0257C7.86735 31.6578 7.46201 31.4669 7.09404 31.5991C6.72617 31.7313 6.53525 32.1367 6.66747 32.5046L12.2005 47.8947C12.3774 48.3787 12.8359 48.6796 13.3205 48.6796C13.4545 48.6796 13.5905 48.6565 13.723 48.6081L20.9588 46.0066L37.3889 40.1012L40.5278 39.5631H47.4616C48.129 39.5631 48.6721 39.019 48.6721 38.35V7.49077C48.6721 7.06711 48.4422 6.851 48.2744 6.6932ZM46.3991 6.86081H42.8572L42.7695 6.86119C42.5999 6.86232 42.2028 6.86525 42.1021 6.76521C42.0789 6.74209 42.0517 6.66489 42.0517 6.52153L42.0435 2.70736L46.3991 6.86081ZM47.2565 38.1473H19.0646V24.3528C19.0646 23.9619 18.7477 23.645 18.3568 23.645C17.9659 23.645 17.649 23.9619 17.649 24.3528V38.3498C17.649 39.0187 18.192 39.5629 18.8594 39.5629H32.1486L23.2259 41.0924L15.8663 42.3554L13.106 26.2489L10.0606 8.49407L17.6489 7.19329V21.0685C17.6489 21.4594 17.9658 21.7763 18.3567 21.7763C18.7476 21.7763 19.0645 21.4594 19.0645 21.0685V2.24549H40.6269L40.6361 6.52314C40.6361 7.04163 40.7938 7.46104 41.1048 7.76983C41.5826 8.24426 42.258 8.27729 42.6773 8.27729C42.7134 8.27729 42.7476 8.277 42.7796 8.27681L47.2565 8.27653V38.1473Z" fill="#000036"/>
<path d="M22.4766 11.8205C22.4766 12.2114 22.7935 12.5284 23.1844 12.5284H43.4218C43.8127 12.5284 44.1296 12.2114 44.1296 11.8205C44.1296 11.4296 43.8127 11.1127 43.4218 11.1127H23.1844C22.7935 11.1127 22.4766 11.4296 22.4766 11.8205Z" fill="#000036"/>
<path d="M43.4218 16.1412H23.1844C22.7935 16.1412 22.4766 16.4581 22.4766 16.849C22.4766 17.24 22.7935 17.5569 23.1844 17.5569H43.4218C43.8127 17.5569 44.1296 17.24 44.1296 16.849C44.1296 16.4581 43.8127 16.1412 43.4218 16.1412Z" fill="#000036"/>
<path d="M43.4218 21.1697H23.1844C22.7935 21.1697 22.4766 21.4866 22.4766 21.8775C22.4766 22.2684 22.7935 22.5853 23.1844 22.5853H43.4218C43.8127 22.5853 44.1296 22.2684 44.1296 21.8775C44.1296 21.4866 43.8127 21.1697 43.4218 21.1697Z" fill="#000036"/>
<path d="M43.4218 26.1982H23.1844C22.7935 26.1982 22.4766 26.5152 22.4766 26.9061C22.4766 27.297 22.7935 27.6139 23.1844 27.6139H43.4218C43.8127 27.6139 44.1296 27.297 44.1296 26.9061C44.1296 26.5152 43.8127 26.1982 43.4218 26.1982Z" fill="#000036"/>
<path d="M43.4218 31.2267H23.1844C22.7935 31.2267 22.4766 31.5437 22.4766 31.9346C22.4766 32.3255 22.7935 32.6424 23.1844 32.6424H43.4218C43.8127 32.6424 44.1296 32.3255 44.1296 31.9346C44.1296 31.5437 43.8127 31.2267 43.4218 31.2267Z" fill="#000036"/>
</svg>
