<svg width="156" height="112" viewBox="0 0 156 112" fill="none" xmlns="http://www.w3.org/2000/svg">
<path opacity="0.44" d="M142.407 71.3409C142.407 81.0428 113.573 88.9066 78.0014 88.9066C42.43 88.9066 13.5938 81.0428 13.5938 71.3409C13.5938 64.0667 29.8097 57.8268 52.922 55.1595C60.6315 56.0486 69.1057 56.5415 78.0014 56.5415C86.8971 56.5415 95.3713 56.0486 103.081 55.1595C126.191 57.8268 142.407 64.0667 142.407 71.3409Z" fill="url(#paint0_linear_21_3)"/>
<path d="M46.0664 55.157V71.1242C46.0664 75.9337 60.3636 79.8334 78.0007 79.8334C95.6379 79.8334 109.935 75.9337 109.935 71.1242V55.157H46.0664Z" fill="url(#paint1_linear_21_3)"/>
<path d="M109.933 55.1571C109.933 55.4611 109.876 55.7629 109.763 56.06C108.109 60.448 94.5188 63.8662 77.9988 63.8662C61.4788 63.8662 47.8887 60.448 46.2349 56.06C46.122 55.7629 46.0645 55.4611 46.0645 55.1571C46.0645 54.853 46.122 54.5536 46.2326 54.2588C46.5942 53.2936 47.5363 52.3746 48.9598 51.5292C54.0043 48.5302 65.109 46.4479 77.9988 46.4479C90.8886 46.4479 101.993 48.5302 107.038 51.5292C108.461 52.3746 109.403 53.2936 109.765 54.2588C109.876 54.5536 109.933 54.853 109.933 55.1571Z" fill="#1A2E35"/>
<path d="M109.933 31.9343V47.9014C109.933 49.1959 108.897 50.4237 107.038 51.5293C104.552 53.0081 100.593 54.2634 95.6727 55.1571C92.1209 55.7998 88.0692 56.2582 83.7089 56.4724C83.6974 56.4724 83.6836 56.4747 83.672 56.4747H83.6329C81.804 56.5645 79.9221 56.6106 77.9988 56.6106C76.0754 56.6106 74.1936 56.5645 72.3647 56.4747H72.3255C72.314 56.4747 72.3002 56.4724 72.2886 56.4724C67.9283 56.2582 63.8766 55.7998 60.3248 55.1571C55.4047 54.2634 51.4452 53.0081 48.9598 51.5293C47.101 50.4237 46.0645 49.1959 46.0645 47.9014V31.9343H109.933Z" fill="url(#paint2_linear_21_3)"/>
<path d="M109.933 31.9342C109.933 36.7437 95.6359 40.6434 77.9988 40.6434C60.3616 40.6434 46.0645 36.7437 46.0645 31.9342C46.0645 30.6397 47.101 29.4097 48.9621 28.3041C54.0066 25.3051 65.1113 23.2251 77.9988 23.2251C90.8863 23.2251 101.991 25.3051 107.035 28.3041C108.897 29.4097 109.933 30.6397 109.933 31.9342Z" fill="#1A2E35"/>
<path d="M109.933 8.70905V24.6762C109.933 25.9707 108.896 27.2007 107.035 28.3041C104.545 29.7851 100.581 31.0405 95.6563 31.9342C94.0324 32.2291 92.3048 32.4847 90.4898 32.6943C86.6523 33.1389 82.4325 33.3854 77.9984 33.3854C71.4729 33.3854 65.4057 32.851 60.3498 31.9342C55.4182 31.0405 51.4518 29.7851 48.9618 28.3041C47.1029 27.1984 46.0664 25.9707 46.0664 24.6762V8.70905H109.933Z" fill="url(#paint3_linear_21_3)"/>
<path d="M109.934 8.70915C109.934 8.91415 109.908 9.11685 109.858 9.31725C108.713 4.79107 94.8879 1.21619 77.9994 1.21619C61.1109 1.21619 47.2882 4.79107 46.1434 9.31725C46.0927 9.11685 46.0674 8.91415 46.0674 8.70915C46.0674 3.89965 60.3646 0 77.9994 0C95.6342 0 109.934 3.89965 109.934 8.70915Z" fill="#1A2E35"/>
<path d="M109.858 9.31724C108.713 13.8434 94.8881 17.4183 77.9996 17.4183C61.111 17.4183 47.2883 13.8434 46.1436 9.31724C47.2883 4.79106 61.1133 1.21619 77.9996 1.21619C94.8858 1.21619 108.713 4.79106 109.858 9.31724Z" fill="#1A2E35"/>
<path opacity="0.18" d="M109.934 8.70915C109.934 8.91415 109.908 9.11685 109.858 9.31725C108.713 4.79107 94.8879 1.21619 77.9994 1.21619C61.1109 1.21619 47.2882 4.79107 46.1434 9.31725C46.0927 9.11685 46.0674 8.91415 46.0674 8.70915C46.0674 3.89965 60.3646 0 77.9994 0C95.6342 0 109.934 3.89965 109.934 8.70915Z" fill="#6096A5"/>
<g style="mix-blend-mode:multiply" opacity="0.31">
<path d="M109.934 10.8766V24.6763C109.934 28.2765 101.921 31.3677 90.4911 32.6944H90.4727C97.2723 27.3091 108.529 20.9724 109.929 8.84503C109.929 9.61897 109.934 10.3307 109.934 10.8766Z" fill="#0065C3"/>
</g>
<g style="mix-blend-mode:multiply" opacity="0.31">
<path d="M109.934 34.0903V47.89C109.934 51.4902 101.921 54.5814 90.4911 55.9081H90.4727C97.2723 50.5228 108.529 44.1861 109.929 32.0587C109.929 32.8327 109.934 33.5444 109.934 34.0903Z" fill="#0065C3"/>
</g>
<g style="mix-blend-mode:multiply" opacity="0.31">
<path d="M109.934 57.3569V71.1566C109.934 74.7568 101.921 77.848 90.4911 79.1747H90.4727C97.2723 73.7894 108.529 67.4527 109.929 55.3253C109.929 56.0993 109.934 56.811 109.934 57.3569Z" fill="#0065C3"/>
</g>
<path opacity="0.44" d="M142.407 38.9781V71.1796C142.407 71.2234 142.407 71.2694 142.405 71.3132C142.405 71.3431 142.402 71.3754 142.402 71.4076C141.956 81.0036 113.292 88.7453 77.9994 88.7453C42.7068 88.7453 13.7185 80.9161 13.5941 71.2441C13.5941 71.2372 13.5918 71.2303 13.5941 71.2234C13.5918 71.2095 13.5918 71.1934 13.5918 71.1796V38.9781C13.5918 40.5697 14.368 42.1107 15.8238 43.5757C16.2384 43.9949 16.7106 44.4072 17.2335 44.8149C17.4085 44.9485 17.5882 45.0844 17.7748 45.218C18.0558 45.4184 18.3483 45.6165 18.6547 45.8146C18.8574 45.9459 19.067 46.0749 19.2812 46.2062C19.6037 46.3996 19.94 46.5931 20.2878 46.7843C20.5181 46.911 20.7554 47.0377 20.9972 47.1621C21.4832 47.4131 21.99 47.6619 22.5175 47.9038C23.9686 48.5717 25.5764 49.2144 27.3293 49.8225C27.6471 49.9331 27.9719 50.0413 28.299 50.1496C28.9555 50.3684 29.6304 50.5803 30.3237 50.7876C30.6715 50.8913 31.0216 50.9949 31.3763 51.0963C35.7182 52.3378 40.7235 53.4066 46.2333 54.2588C48.3777 54.5928 50.6005 54.8923 52.8901 55.1572C52.897 55.1572 52.9062 55.1595 52.9154 55.1595H52.92C53.8391 55.2677 54.772 55.3668 55.7141 55.4612C55.8246 55.4727 55.9375 55.4842 56.0503 55.4935C56.9141 55.581 57.7871 55.6616 58.6693 55.7353C58.7661 55.7445 58.8628 55.7537 58.9595 55.7607C59.0632 55.7699 59.1669 55.7791 59.2705 55.786C60.1066 55.8574 60.9497 55.9219 61.7996 55.9818C61.8319 55.9841 61.8664 55.9864 61.8987 55.9887C62.4446 56.0255 62.9905 56.0624 63.541 56.0969C64.0155 56.1269 64.4923 56.1545 64.9714 56.1822C65.0014 56.1845 65.0313 56.1845 65.0589 56.1868C65.5565 56.2144 66.054 56.2398 66.5562 56.2651C67.542 56.3135 68.5371 56.3549 69.5391 56.3918C69.8362 56.401 70.1333 56.4125 70.4328 56.4217C70.6447 56.4286 70.8589 56.4355 71.0708 56.4402C71.3633 56.4494 71.6559 56.4586 71.9484 56.4655C72.0728 56.4678 72.1995 56.4724 72.3262 56.4747H72.3653C72.5911 56.4816 72.8168 56.4862 73.0425 56.4908C73.5884 56.5023 74.1366 56.5116 74.6848 56.5185C75.7836 56.5346 76.8869 56.5415 77.9994 56.5415C79.112 56.5415 80.2153 56.5346 81.314 56.5185C81.8622 56.5116 82.4104 56.5023 82.9563 56.4908C83.1821 56.4862 83.4078 56.4816 83.6335 56.4747H83.6727C83.7994 56.4724 83.9261 56.4678 84.0505 56.4655C84.343 56.4586 84.6355 56.4494 84.9281 56.4402C85.14 56.4355 85.3542 56.4286 85.5661 56.4217C85.8655 56.4125 86.1627 56.401 86.4598 56.3918C87.4618 56.3549 88.4569 56.3135 89.4427 56.2651C89.9449 56.2398 90.4424 56.2144 90.9399 56.1868C90.9676 56.1845 90.9975 56.1845 91.0275 56.1822C91.5066 56.1545 91.9834 56.1269 92.4579 56.0969C93.0084 56.0624 93.5543 56.0255 94.1002 55.9887C94.1324 55.9864 94.167 55.9841 94.1992 55.9818C95.0492 55.9219 95.8922 55.8574 96.7284 55.786C96.832 55.7791 96.9357 55.7699 97.0393 55.7607C97.1361 55.7537 97.2328 55.7445 97.3296 55.7353C98.2118 55.6616 99.0847 55.581 99.9485 55.4935C100.061 55.4842 100.174 55.4727 100.285 55.4612C101.227 55.3668 102.16 55.2677 103.079 55.1595H103.083C103.083 55.1595 103.102 55.1572 103.109 55.1572C105.398 54.8923 107.621 54.5928 109.766 54.2588C115.275 53.4066 120.281 52.3378 124.623 51.0963C124.977 50.9949 125.327 50.8913 125.675 50.7876C126.368 50.5803 127.043 50.3684 127.7 50.1496C128.027 50.0413 128.352 49.9331 128.67 49.8225C130.422 49.2144 132.03 48.5717 133.481 47.9038C134.009 47.6619 134.516 47.4131 135.002 47.1621C135.243 47.0377 135.481 46.911 135.711 46.7843C136.059 46.5931 136.395 46.3996 136.718 46.2062C136.932 46.0749 137.142 45.9459 137.344 45.8146C137.651 45.6165 137.943 45.4184 138.224 45.218C138.411 45.0844 138.59 44.9485 138.765 44.8149C139.288 44.4072 139.76 43.9949 140.175 43.5757C141.631 42.1107 142.407 40.5697 142.407 38.9781Z" fill="url(#paint4_linear_21_3)"/>
<path opacity="0.36" d="M48.9605 51.5293C47.537 52.3747 46.5949 53.2937 46.2333 54.2588C40.7235 53.4066 35.7182 52.3378 31.3763 51.0963C31.0216 50.9949 30.6715 50.8913 30.3237 50.7876C29.6304 50.5803 28.9555 50.3684 28.299 50.1496C27.9719 50.0413 27.6471 49.9331 27.3293 49.8225C25.5764 49.2144 23.9686 48.5718 22.5175 47.9038C21.99 47.6596 21.4832 47.4131 20.9972 47.1621C20.7554 47.0377 20.5181 46.911 20.2878 46.7843C19.94 46.5931 19.6037 46.3997 19.2812 46.2062C19.067 46.0749 18.8574 45.9459 18.6547 45.8146C18.3483 45.6165 18.0558 45.4184 17.7748 45.218C17.5882 45.0844 17.4085 44.9485 17.2335 44.8149C16.7106 44.4072 16.2384 43.9949 15.8238 43.5757C14.368 42.1107 13.5918 40.5697 13.5918 38.9781C13.5918 32.4434 26.6659 26.7447 46.0674 23.7181V24.6763C46.0674 25.9708 47.104 27.1985 48.9628 28.3041C47.1017 29.4098 46.0651 30.6398 46.0651 31.9343V47.9015C46.0651 49.196 47.1016 50.4237 48.9605 51.5293Z" fill="url(#paint5_linear_21_3)"/>
<path opacity="0.36" d="M142.407 38.9758C142.407 40.5697 141.631 42.1107 140.175 43.5757C139.761 43.9949 139.288 44.4072 138.765 44.8149C138.59 44.9485 138.411 45.0844 138.224 45.218C137.943 45.4184 137.651 45.6165 137.344 45.8146C137.142 45.9459 136.932 46.0749 136.718 46.2062C136.395 46.3997 136.059 46.5931 135.711 46.7843C135.481 46.911 135.244 47.0377 135.002 47.1621C134.516 47.4131 134.009 47.6596 133.481 47.9038C132.03 48.5718 130.423 49.2144 128.67 49.8225C128.352 49.9331 128.027 50.0413 127.7 50.1496C127.043 50.3684 126.369 50.5803 125.675 50.7876C125.327 50.8913 124.977 50.9949 124.623 51.0963C120.281 52.3378 115.275 53.4066 109.766 54.2588C109.404 53.2937 108.462 52.3747 107.038 51.5293C108.897 50.4237 109.934 49.196 109.934 47.9015V31.9343C109.934 30.6398 108.897 29.4098 107.036 28.3041C108.897 27.2008 109.934 25.9708 109.934 24.6763V23.7181C129.333 26.7447 142.407 32.4434 142.407 38.9758Z" fill="url(#paint6_linear_21_3)"/>
<path d="M6.68446 99.9353C5.50052 99.9353 4.48702 100.354 3.64628 101.195C2.80554 102.036 2.38632 103.047 2.38632 104.233C2.38632 105.42 2.80554 106.431 3.64628 107.272C4.48702 108.112 5.49821 108.532 6.68446 108.532H13.3689V110.92H6.68446C4.83714 110.92 3.26161 110.268 1.95789 108.962C0.651862 107.656 0 106.081 0 104.236C0 102.391 0.651862 100.813 1.95789 99.5068C3.26392 98.2008 4.83944 97.549 6.68446 97.549H13.3689V99.9376H6.68446V99.9353Z" fill="#1A2E35"/>
<path d="M26.2652 97.549H28.6538V110.92H26.2652V104.789H17.6689V110.92H15.2803V97.549H17.6689V102.4H26.2652V97.549Z" fill="#1A2E35"/>
<path d="M42.2331 108.532L43.4562 110.92H40.7819L39.5588 108.532L36.6358 102.801L33.7128 108.532L32.4897 110.92H29.8154L31.0385 108.532L36.6358 97.549L42.2331 108.532Z" fill="#1A2E35"/>
<path d="M55.5855 97.549L57.9741 97.5674V110.939L55.5855 109.105L46.9892 102.476V110.939H44.6006V97.6065L46.9892 99.44L55.5855 106.069V97.549Z" fill="#1A2E35"/>
<path d="M70.8667 97.549L73.2554 97.5674V110.939L70.8667 109.105L62.2705 102.476V110.939H59.8818V97.6065L62.2705 99.44L70.8667 106.069V97.549Z" fill="#1A2E35"/>
<path d="M78.7736 99.9352C78.4419 99.9352 78.1563 100.057 77.9145 100.299C77.6726 100.541 77.5505 100.827 77.5505 101.158V102.4H86.1468V104.789H77.5505V107.311C77.5505 107.642 77.6703 107.928 77.9145 108.17C78.1563 108.412 78.4419 108.534 78.7736 108.534H88.5354V110.922H78.7736C77.7809 110.922 76.9332 110.57 76.233 109.863C75.5327 109.156 75.1826 108.306 75.1826 107.313V101.163C75.1826 100.17 75.5327 99.3202 76.233 98.6131C76.9332 97.9059 77.7809 97.5535 78.7736 97.5535H88.5354V99.9422H78.7736V99.9352Z" fill="#1A2E35"/>
<path d="M94.4553 108.532L101.464 108.55V110.939H94.6833C94.0199 110.939 93.398 110.793 92.8106 110.499C91.933 110.066 91.2881 109.416 90.8804 108.55C90.5878 107.965 90.4404 107.341 90.4404 106.677V97.5651H92.8291V106.905C92.8935 107.325 93.0732 107.686 93.3727 107.986C93.6721 108.285 94.0314 108.467 94.4529 108.529L94.4553 108.532Z" fill="#1A2E35"/>
<path d="M126.049 101.541L126.031 101.598C126.031 102.667 125.662 103.584 124.923 104.349C125.662 105.113 126.031 106.03 126.031 107.099C126.031 108.168 125.646 109.124 124.874 109.888C124.103 110.653 123.177 111.035 122.094 111.035H112.678V108.647H122.094C122.527 108.647 122.896 108.495 123.202 108.188C123.508 107.882 123.66 107.513 123.66 107.08C123.66 106.647 123.518 106.3 123.23 106.002C122.942 105.705 122.596 105.542 122.188 105.514H115.082V103.125H122.188C122.596 103.1 122.946 102.939 123.239 102.639C123.531 102.34 123.679 101.981 123.679 101.559C123.679 101.138 123.527 100.758 123.22 100.451C122.914 100.145 122.545 99.9929 122.112 99.9929H112.696V97.6042H122.112C123.207 97.6042 124.137 97.9889 124.902 98.7606C125.667 99.5299 126.049 100.458 126.049 101.541Z" fill="#1A2E35"/>
<path d="M140.185 104.176C140.924 104.941 141.293 105.857 141.293 106.926C141.293 107.995 140.91 108.935 140.146 109.706C139.381 110.478 138.453 110.863 137.356 110.863H131.874C131.059 110.863 130.326 110.639 129.677 110.195C129.027 109.75 128.55 109.17 128.244 108.456C128.039 107.947 127.938 107.431 127.938 106.908V101.426C127.938 100.444 128.269 99.5852 128.93 98.8458C129.262 98.4772 129.644 98.1778 130.077 97.9475C130.626 97.6549 131.224 97.5075 131.872 97.5075H140.18V99.8961H131.872C131.439 99.8961 131.07 100.048 130.764 100.355C130.457 100.661 130.305 101.029 130.305 101.462V103.335C130.789 103.132 131.287 103.029 131.796 103.029H137.43C138.512 103.043 139.436 103.443 140.198 104.231L140.18 104.174L140.185 104.176ZM137.358 108.474H137.34C137.773 108.474 138.142 108.322 138.448 108.016C138.754 107.709 138.906 107.341 138.906 106.908C138.906 106.475 138.763 106.127 138.476 105.827C138.19 105.528 137.842 105.367 137.434 105.341H131.8C131.393 105.367 131.042 105.53 130.75 105.827C130.457 106.127 130.31 106.486 130.31 106.908C130.31 107.329 130.462 107.709 130.768 108.016C131.075 108.322 131.443 108.474 131.876 108.474H137.358Z" fill="#1A2E35"/>
<path d="M147.558 97.549H151.683C152.881 97.549 153.899 97.9682 154.74 98.8089C155.581 99.6497 156 100.668 156 101.866V106.583C156 107.781 155.581 108.799 154.74 109.639C153.899 110.48 152.881 110.899 151.683 110.899H147.558C146.36 110.899 145.342 110.48 144.501 109.639C143.66 108.799 143.241 107.781 143.241 106.583V101.866C143.241 100.668 143.66 99.6497 144.501 98.8089C145.342 97.9682 146.36 97.549 147.558 97.549ZM151.683 99.9353H147.558C147.023 99.9353 146.565 100.126 146.183 100.509C145.8 100.891 145.609 101.35 145.609 101.884V106.601C145.609 107.136 145.8 107.594 146.183 107.976C146.565 108.359 147.023 108.55 147.558 108.55H151.683C152.218 108.55 152.676 108.359 153.058 107.976C153.441 107.594 153.632 107.136 153.632 106.601V101.884C153.632 101.35 153.441 100.891 153.058 100.509C152.676 100.126 152.218 99.9353 151.683 99.9353Z" fill="#1A2E35"/>
<defs>
<linearGradient id="paint0_linear_21_3" x1="76.7599" y1="100.788" x2="82.0945" y2="-25.9616" gradientUnits="userSpaceOnUse">
<stop stop-color="#00B2FF"/>
<stop offset="1" stop-color="#0065C3"/>
</linearGradient>
<linearGradient id="paint1_linear_21_3" x1="46.0664" y1="67.4963" x2="109.933" y2="67.4963" gradientUnits="userSpaceOnUse">
<stop stop-color="#00B2FF"/>
<stop offset="1" stop-color="#0065C3"/>
</linearGradient>
<linearGradient id="paint2_linear_21_3" x1="46.0645" y1="44.2713" x2="109.933" y2="44.2713" gradientUnits="userSpaceOnUse">
<stop stop-color="#68B2FF"/>
<stop offset="1" stop-color="#0065C3"/>
</linearGradient>
<linearGradient id="paint3_linear_21_3" x1="46.0664" y1="21.0461" x2="0.228773" y2="21.0461" gradientUnits="userSpaceOnUse">
<stop stop-color="#68B2FF"/>
<stop offset="1" stop-color="#0065C3"/>
</linearGradient>
<linearGradient id="paint4_linear_21_3" x1="34.4076" y1="30.0801" x2="144.075" y2="97.6549" gradientUnits="userSpaceOnUse">
<stop stop-color="#00B2FF"/>
<stop offset="1" stop-color="#0065C3"/>
</linearGradient>
<linearGradient id="paint5_linear_21_3" x1="30.9226" y1="53.6139" x2="32.2056" y2="23.1353" gradientUnits="userSpaceOnUse">
<stop stop-color="#00B2FF"/>
<stop offset="1" stop-color="#0065C3"/>
</linearGradient>
<linearGradient id="paint6_linear_21_3" x1="123.833" y1="54.8508" x2="125.116" y2="24.3561" gradientUnits="userSpaceOnUse">
<stop stop-color="#00B2FF"/>
<stop offset="1" stop-color="#0065C3"/>
</linearGradient>
</defs>
</svg>
