<svg width="117" height="108" viewBox="0 0 117 108" fill="none" xmlns="http://www.w3.org/2000/svg">
<g clip-path="url(#clip0_3163_61)">
<path d="M46.0721 3.59729C46.2648 4.25835 46.369 4.95587 46.369 5.67876C46.369 6.89784 46.0737 8.04717 45.5557 9.06175C57.8334 11.427 67.8416 20.2776 71.8846 31.9151H77.6034C73.3155 17.4146 61.1294 6.29385 46.0721 3.5957V3.59729Z" fill="#016BEB"/>
<path d="M31.5848 5.67901C31.5848 4.95612 31.6891 4.25701 31.8817 3.59753C16.826 6.29409 4.63992 17.4164 0.352051 31.9154H6.07079C10.1139 20.2794 20.1221 11.4272 32.3998 9.06199C31.8802 8.04741 31.5864 6.89809 31.5864 5.67901H31.5848Z" fill="#016BEB"/>
<path d="M38.9778 10.5027C41.632 10.5027 43.7837 8.34296 43.7837 5.67874C43.7837 3.01452 41.632 0.854736 38.9778 0.854736C36.3235 0.854736 34.1719 3.01452 34.1719 5.67874C34.1719 8.34296 36.3235 10.5027 38.9778 10.5027Z" fill="#016BEB"/>
<path d="M41.9562 13.4022V81.1047C41.9562 82.7376 40.6817 84.1199 39.0566 84.1612C37.3746 84.204 35.999 82.8501 35.999 81.1713V13.4022" fill="#016BEB"/>
<path d="M52.4904 91.4455V104.115C52.4904 105.711 51.2001 107.007 49.6097 107.007C48.0193 107.007 46.729 105.711 46.729 104.115V68.6873H53.2564C56.4545 68.6873 58.8693 68.9108 60.5007 69.3578C62.1496 69.8049 63.5994 70.6482 64.8518 71.8895C67.0439 74.0407 68.1399 76.7547 68.1399 80.0299C68.1399 83.5381 66.9697 86.3171 64.6291 88.3685C62.2885 90.4198 59.1315 91.4455 55.1595 91.4455H52.4888H52.4904ZM52.4904 86.0841H54.6414C59.9322 86.0841 62.5776 84.0407 62.5776 79.9538C62.5776 75.867 59.8485 74.0217 54.3935 74.0217H52.4904V86.0841Z" fill="#016BEB"/>
<path d="M62.2821 42.863V62.4919H59.0761V43.291C59.0761 39.805 57.8473 38.0342 55.2288 38.0342C52.3434 38.0342 50.3139 40.447 50.3139 44.8462V62.4919H47.1079V35.6753H49.886L49.9396 39.3754C51.061 36.6931 53.2531 35.1379 56.0848 35.1379C60.1453 35.1379 62.2837 37.6046 62.2837 42.8614L62.2821 42.863Z" fill="#000036"/>
<path d="M66.3945 55.5199V54.6083H69.4932V55.6277C69.4932 58.738 71.2036 60.1869 73.8205 60.1869C76.4375 60.1869 78.0958 58.7919 78.0958 55.7894C78.0958 52.7869 75.692 51.5519 73.1272 50.2647C70.0286 48.7634 66.6614 47.0466 66.6614 42.1655C66.6614 37.8741 69.3337 35.1395 73.7147 35.1395C78.0958 35.1395 80.768 37.8741 80.768 42.4873V42.9692H77.7752V42.3795C77.7752 39.3754 76.1184 37.9819 73.7684 37.9819C71.4184 37.9819 69.7617 39.377 69.7617 42.1116C69.7617 45.168 72.1654 46.349 74.8376 47.6886C77.9363 49.1899 81.2497 50.9067 81.2497 55.7878C81.2497 60.2931 78.6312 63.0278 73.9295 63.0278C69.2278 63.0278 66.3961 60.2931 66.3961 55.5199H66.3945Z" fill="#000036"/>
<path d="M100.592 35.6753V62.4919H97.7599L97.7062 58.8441C96.5833 61.5264 94.3928 63.0277 91.561 63.0277C87.5543 63.0277 85.3638 60.561 85.3638 55.3042V35.6753H88.5698V54.8762C88.5698 58.3622 89.8522 60.133 92.4707 60.133C95.3025 60.133 97.3335 57.7202 97.3335 53.321V35.6753H100.593H100.592Z" fill="#000036"/>
<path d="M116.352 35.4613V38.6795C115.818 38.4654 115.283 38.3576 114.642 38.3576C111.008 38.3576 109.191 41.0923 109.191 46.7786V62.4935H105.985V35.6769H108.71L108.817 40.0745C109.779 36.7486 111.703 35.1411 114.588 35.1411C115.283 35.1411 115.817 35.2489 116.35 35.4629L116.352 35.4613Z" fill="#000036"/>
<path d="M81.2324 80.287V83.5051C80.6986 83.2911 80.1632 83.1833 79.522 83.1833C75.888 83.1833 74.0718 85.9179 74.0718 91.6043V107.319H70.8657V80.5026H73.5901L73.6975 84.9002C74.6593 81.5743 76.5829 79.9668 79.4683 79.9668C80.1632 79.9668 80.697 80.0746 81.2308 80.2886L81.2324 80.287Z" fill="#000036"/>
<path d="M83.8496 99.2198V88.6C83.8496 83.0753 86.5739 79.965 91.5441 79.965C96.5142 79.965 99.2386 83.0753 99.2386 88.6V99.2198C99.2386 104.744 96.5142 107.855 91.5441 107.855C86.5739 107.855 83.8496 104.744 83.8496 99.2198ZM96.0325 99.5416V88.3321C96.0325 84.8999 94.6427 82.8613 91.5441 82.8613C88.4454 82.8613 87.0556 84.8999 87.0556 88.3321V99.5416C87.0556 102.92 88.4454 104.958 91.5441 104.958C94.6427 104.958 96.0325 102.92 96.0325 99.5416Z" fill="#000036"/>
</g>
<defs>
<clipPath id="clip0_3163_61">
<rect width="116" height="107" fill="white" transform="translate(0.352051 0.854736)"/>
</clipPath>
</defs>
</svg>
