<svg width="103" height="894" viewBox="0 0 103 894" fill="none" xmlns="http://www.w3.org/2000/svg">
<path d="M100.82 20.4742L2 20.4741L2 0.180689L100.82 0.180693L100.82 20.4742ZM100.82 119.973L1.99999 119.973L2 99.6118L68.2422 59.9073L2 59.9073L2 39.5459L100.82 39.5459L100.82 59.9073L34.5102 99.6797L100.82 99.6797L100.82 119.973ZM100.82 218.115L1.99999 218.115L1.99999 197.753L68.2422 158.049L1.99999 158.049L1.99999 137.688L100.82 137.688L100.82 158.049L34.5102 197.821L100.82 197.821L100.82 218.115ZM53.7178 317.003L49.0347 317.003C41.5236 317.003 34.7817 315.985 28.8091 313.949C22.8364 311.913 17.7461 309.039 13.5381 305.329C9.37531 301.619 6.18537 297.185 3.96825 292.026C1.75113 286.913 0.642565 281.235 0.642566 274.991C0.642566 268.792 1.75113 263.113 3.96825 257.955C6.18537 252.842 9.37531 248.408 13.5381 244.652C17.7461 240.897 22.8364 237.978 28.8091 235.897C34.7817 233.861 41.5236 232.843 49.0347 232.843L53.7178 232.843C61.2741 232.843 68.0159 233.861 73.9433 235.897C79.916 237.933 85.0063 240.806 89.2143 244.517C93.4224 248.272 96.6349 252.706 98.852 257.819C101.069 262.978 102.178 268.656 102.178 274.855C102.178 281.099 101.069 286.778 98.852 291.891C96.6349 297.049 93.4223 301.483 89.2143 305.193C85.0063 308.949 79.916 311.845 73.9433 313.881C68.0159 315.962 61.2741 317.003 53.7178 317.003ZM49.0347 296.438L53.8535 296.438C59.1022 296.438 63.7174 295.963 67.6992 295.013C71.681 294.063 75.0293 292.66 77.7441 290.805C80.459 288.95 82.4951 286.687 83.8525 284.018C85.2552 281.348 85.9565 278.294 85.9565 274.855C85.9565 271.416 85.2552 268.362 83.8525 265.692C82.4951 263.068 80.459 260.828 77.7441 258.973C75.0293 257.163 71.681 255.783 67.6992 254.833C63.7174 253.883 59.1022 253.408 53.8535 253.408L49.0347 253.408C43.8312 253.408 39.216 253.883 35.189 254.833C31.2072 255.783 27.8363 257.186 25.0762 259.041C22.3613 260.896 20.3026 263.159 18.8999 265.828C17.4972 268.498 16.7959 271.552 16.7959 274.991C16.7959 278.43 17.4972 281.484 18.8999 284.153C20.3026 286.823 22.3613 289.063 25.0762 290.873C27.8362 292.682 31.2072 294.063 35.189 295.013C39.216 295.963 43.8312 296.438 49.0347 296.438ZM22.6328 365.802L100.82 389.082L100.82 411.751L1.99998 377.34L1.99998 362.409L22.6328 365.802ZM100.82 344.355L22.6328 367.567L1.99998 371.096L1.99998 356.029L100.82 321.822L100.82 344.355ZM83.9204 456.003L1.99998 429.126L1.99998 407.475L100.82 444.193L100.82 457.971L83.9204 456.003ZM1.99998 478.333L83.9204 451.388L100.82 449.216L100.82 463.129L1.99998 500.051L1.99998 478.333ZM38.7861 477.111L22.8364 477.111L22.8364 424.918L38.7861 424.918L38.7861 477.111ZM100.82 544.982L1.99998 544.982L1.99998 524.689L100.82 524.689L100.82 544.982ZM100.82 575.388L84.8706 575.388L84.8706 494.757L100.82 494.757L100.82 575.388ZM100.82 608.645L1.99997 608.645L1.99997 588.352L100.82 588.352L100.82 608.645ZM53.7177 708.891L49.0346 708.891C41.5236 708.891 34.7817 707.873 28.8091 705.836C22.8364 703.8 17.7461 700.927 13.5381 697.217C9.37529 693.507 6.18535 689.072 3.96823 683.914C1.75111 678.801 0.642548 673.123 0.642549 666.878C0.642549 660.68 1.75111 655.001 3.96823 649.843C6.18536 644.73 9.3753 640.296 13.5381 636.54C17.7461 632.785 22.8364 629.866 28.8091 627.785C34.7817 625.749 41.5236 624.73 49.0346 624.73L53.7177 624.73C61.2741 624.73 68.0159 625.749 73.9433 627.785C79.916 629.821 85.0063 632.694 89.2143 636.404C93.4223 640.16 96.6349 644.594 98.852 649.707C101.069 654.865 102.178 660.544 102.178 666.743C102.178 672.987 101.069 678.665 98.852 683.778C96.6349 688.937 93.4223 693.371 89.2143 697.081C85.0063 700.837 79.916 703.732 73.9433 705.769C68.0159 707.85 61.2741 708.891 53.7177 708.891ZM49.0346 688.326L53.8535 688.326C59.1022 688.326 63.7174 687.851 67.6992 686.9C71.681 685.95 75.0293 684.548 77.7441 682.692C80.459 680.837 82.4951 678.575 83.8525 675.905C85.2552 673.236 85.9565 670.182 85.9565 666.743C85.9565 663.304 85.2552 660.25 83.8525 657.58C82.4951 654.956 80.459 652.716 77.7441 650.861C75.0293 649.051 71.681 647.671 67.6992 646.721C63.7174 645.771 59.1022 645.295 53.8535 645.295L49.0346 645.295C43.8312 645.295 39.216 645.771 35.1889 646.721C31.2072 647.671 27.8362 649.074 25.0761 650.929C22.3613 652.784 20.3025 655.046 18.8999 657.716C17.4972 660.385 16.7959 663.44 16.7959 666.878C16.7959 670.317 17.4972 673.371 18.8999 676.041C20.3025 678.711 22.3613 680.95 25.0761 682.76C27.8362 684.57 31.2072 685.95 35.1889 686.9C39.216 687.851 43.8312 688.326 49.0346 688.326ZM100.82 803.978L1.99996 803.978L1.99997 783.617L68.2422 743.912L1.99997 743.912L1.99997 723.551L100.82 723.551L100.82 743.912L34.5102 783.685L100.82 783.685L100.82 803.978ZM27.8588 873.139C29.6235 873.139 31.2072 872.867 32.6098 872.324C34.0577 871.827 35.3699 870.876 36.5463 869.474C37.768 868.071 38.9671 866.103 40.1435 863.569C41.3199 861.035 42.5416 857.755 43.8086 853.728C45.2565 849.248 46.8854 844.995 48.6953 840.968C50.5052 836.986 52.6092 833.457 55.0073 830.38C57.4506 827.348 60.2786 824.95 63.4912 823.186C66.7037 821.466 70.4366 820.606 74.6899 820.606C78.8074 820.606 82.5403 821.511 85.8886 823.321C89.2822 825.131 92.178 827.665 94.5761 830.923C97.0195 834.181 98.8973 838.027 100.209 842.461C101.522 846.94 102.178 851.85 102.178 857.189C102.178 864.474 100.866 870.831 98.2412 876.261C95.6168 881.69 92.0197 885.898 87.4497 888.885C82.8797 891.916 77.6536 893.432 71.7714 893.432L71.7714 873.207C74.6673 873.207 77.2011 872.596 79.373 871.374C81.5901 870.198 83.3322 868.388 84.5991 865.944C85.866 863.546 86.4995 860.515 86.4995 856.85C86.4995 853.32 85.9565 850.379 84.8706 848.026C83.8299 845.674 82.4046 843.909 80.5947 842.732C78.83 841.556 76.8392 840.968 74.622 840.968C72.9479 840.968 71.4321 841.375 70.0747 842.189C68.7172 843.049 67.4503 844.316 66.2739 845.99C65.0975 847.664 63.9889 849.723 62.9482 852.167C61.9075 854.61 60.8894 857.438 59.894 860.65C58.2651 866.035 56.4326 870.763 54.3964 874.835C52.3603 878.953 50.0753 882.392 47.5415 885.152C45.0076 887.912 42.1344 889.993 38.9218 891.396C35.7093 892.799 32.0669 893.5 27.9946 893.5C23.6961 893.5 19.8501 892.663 16.4565 890.989C13.0629 889.315 10.1897 886.894 7.83687 883.727C5.48401 880.559 3.69674 876.781 2.47506 872.392C1.25338 868.003 0.64254 863.094 0.64254 857.664C0.64254 852.777 1.276 847.959 2.54293 843.208C3.85511 838.457 5.82337 834.135 8.44772 830.244C11.0721 826.398 14.4204 823.321 18.4926 821.014C22.5649 818.706 27.3838 817.552 32.9492 817.552L32.9492 837.981C29.8724 837.981 27.2706 838.457 25.144 839.407C23.0174 840.357 21.298 841.692 19.9858 843.411C18.6736 845.176 17.7234 847.257 17.1352 849.655C16.547 852.099 16.2529 854.768 16.2529 857.664C16.2529 861.193 16.7506 864.089 17.7461 866.352C18.7415 868.659 20.1215 870.356 21.8862 871.442C23.6508 872.573 25.6417 873.139 27.8588 873.139Z" fill="#E0E0E0"/>
</svg>
