<svg width="248" height="49" viewBox="0 0 248 49" fill="none" xmlns="http://www.w3.org/2000/svg">
<path d="M0 11.8627V4.60681H7.99073V11.8051H17.4186L12.9921 18.6579H7.99073V30.751C7.99073 32.5937 8.79555 33.5151 10.5777 33.5151C12.0723 33.5151 13.3945 33.1696 14.5443 32.5362V38.9858C12.8771 39.9648 10.9226 40.5982 8.22068 40.5982C3.33426 40.5407 0 38.6403 0 32.0755V18.7155V11.8627Z" fill="white"/>
<path d="M15.7515 26.1442V26.029C15.7515 17.9669 21.5002 11.3445 29.6634 11.3445C39.0913 11.3445 43.4029 18.6579 43.4029 26.6624C43.4029 27.2959 43.3454 28.0445 43.2879 28.7931H23.6848C24.4896 32.4211 27.019 34.3214 30.5832 34.3214C33.2851 34.3214 35.2397 33.4576 37.4242 31.4421L42.0232 35.4731C39.3788 38.7556 35.5846 40.7711 30.5257 40.7711C21.9601 40.7135 15.7515 34.7821 15.7515 26.1442ZM35.5846 23.7831C35.1247 20.2128 32.9977 17.7941 29.6634 17.7941C26.3292 17.7941 24.2021 20.1552 23.5698 23.7831H35.5846Z" fill="white"/>
<path d="M45.9898 26.2017V26.0865C45.9898 18.0245 52.1409 11.402 60.764 11.402C66.0529 11.402 69.3871 13.1872 72.0315 16.1241L67.1451 21.4221C65.363 19.5217 63.5809 18.3124 60.7065 18.3124C56.6824 18.3124 53.8656 21.8252 53.8656 26.029V26.1441C53.8656 30.4631 56.6824 33.9183 60.994 33.9183C63.6959 33.9183 65.5355 32.7666 67.49 30.9238L72.1465 35.6459C69.3871 38.6404 66.2828 40.8286 60.6491 40.8286C52.1984 40.8286 45.9898 34.2638 45.9898 26.2017Z" fill="white"/>
<path d="M74.7334 5.12518L82.7242 0V15.9514C84.5637 13.5904 86.9207 11.4021 91.0023 11.4021C97.0385 11.4021 100.603 15.4331 100.603 21.8828V40.1952H92.5545V24.4166C92.5545 20.6159 90.7724 18.658 87.7256 18.658C84.6787 18.658 82.7242 20.6159 82.7242 24.4166V40.1952H74.7334V5.12518Z" fill="white"/>
<path d="M102.672 36.4521L106.064 31.1542C109.168 33.4 112.33 34.5518 114.974 34.5518C117.274 34.5518 118.366 33.688 118.366 32.4211V32.3059C118.366 30.5783 115.607 30.0024 112.503 29.0235C108.536 27.8717 104.109 26.029 104.109 20.5583V20.4431C104.109 14.6845 108.766 11.4597 114.4 11.4597C117.964 11.4597 121.873 12.669 124.92 14.7421L121.873 20.2704C119.056 18.6579 116.297 17.6214 114.227 17.6214C112.273 17.6214 111.295 18.4852 111.295 19.5793V19.6945C111.295 21.2493 113.997 21.9979 117.044 23.0921C121.011 24.4166 125.552 26.3169 125.552 31.4421V31.5573C125.552 37.8342 120.896 40.6559 114.745 40.6559C110.835 40.7135 106.409 39.389 102.672 36.4521Z" fill="#F15830"/>
<path d="M127.277 26.2017V26.0865C127.277 17.9669 133.83 11.402 142.568 11.402C151.306 11.402 157.745 17.9093 157.745 25.9714V26.0865C157.745 34.2062 151.192 40.771 142.453 40.771C133.773 40.8286 127.277 34.3214 127.277 26.2017ZM149.927 26.2017V26.0865C149.927 21.9403 146.937 18.3124 142.511 18.3124C137.912 18.3124 135.21 21.8252 135.21 26.029V26.1441C135.21 30.2903 138.199 33.9183 142.626 33.9183C147.167 33.9183 149.927 30.3479 149.927 26.2017Z" fill="#F15830"/>
<path d="M160.504 15.3179L168.495 10.1927V15.9513C170.45 13.3023 173.152 11.3444 177.291 11.3444C183.844 11.3444 190.11 16.5272 190.11 25.9137V26.0289C190.11 35.4731 183.959 40.5982 177.291 40.5982C173.037 40.5982 170.392 38.6403 168.495 36.3944V48.4876H160.504V15.3179ZM182.177 26.0865V25.9713C182.177 21.3068 179.015 18.1972 175.279 18.1972C171.542 18.1972 168.438 21.3068 168.438 25.9713V26.0865C168.438 30.751 171.542 33.8607 175.279 33.8607C179.015 33.8607 182.177 30.8662 182.177 26.0865Z" fill="#F15830"/>
<path d="M192.755 5.12518L200.746 0V15.9514C202.585 13.5904 204.942 11.4021 209.024 11.4021C215.06 11.4021 218.624 15.4331 218.624 21.8828V40.1952H210.633V24.4166C210.633 20.6159 208.851 18.658 205.804 18.658C202.758 18.658 200.803 20.6159 200.803 24.4166V40.1952H192.812V5.12518H192.755Z" fill="#F15830"/>
<path d="M239.664 11.9204H248L237.135 40.8287C234.95 46.5873 232.651 48.718 227.879 48.718C225.005 48.718 222.821 47.9694 220.751 46.7601L223.453 40.9439C224.488 41.5773 225.81 42.038 226.845 42.038C228.224 42.038 228.972 41.6349 229.604 40.1952L218.567 11.8628H227.075L233.513 31.0966L239.664 11.9204Z" fill="#F15830"/>
</svg>
